<mxfile host="app.diagrams.net" agent="Mozilla/5.0 (Windows NT 10.0; Win64; x64) AppleWebKit/537.36 (KHTML, like Gecko) Chrome/135.0.0.0 Safari/537.36 Edg/135.0.0.0" version="26.2.13">
  <diagram name="第 1 页" id="f_WdxiT-r1zh-24rFA0j">
    <mxGraphModel dx="1420" dy="1939" grid="1" gridSize="10" guides="1" tooltips="1" connect="1" arrows="1" fold="1" page="1" pageScale="1" pageWidth="827" pageHeight="1169" math="0" shadow="0">
      <root>
        <mxCell id="0" />
        <mxCell id="1" parent="0" />
        <mxCell id="jlxDaTGka9EmKuP6cyfk-4" value="" style="rounded=1;whiteSpace=wrap;html=1;dashed=1;dashPattern=8 8;" parent="1" vertex="1">
          <mxGeometry x="30" y="60" width="380" height="650" as="geometry" />
        </mxCell>
        <mxCell id="jlxDaTGka9EmKuP6cyfk-1" value="" style="whiteSpace=wrap;html=1;aspect=fixed;" parent="1" vertex="1">
          <mxGeometry x="90" y="80" width="190" height="190" as="geometry" />
        </mxCell>
        <mxCell id="jlxDaTGka9EmKuP6cyfk-2" value="" style="whiteSpace=wrap;html=1;aspect=fixed;dashed=1;" parent="1" vertex="1">
          <mxGeometry x="480" y="80" width="190" height="190" as="geometry" />
        </mxCell>
        <mxCell id="jlxDaTGka9EmKuP6cyfk-3" value="顶部canvas" style="whiteSpace=wrap;html=1;aspect=fixed;" parent="1" vertex="1">
          <mxGeometry x="90" y="460" width="200" height="200" as="geometry" />
        </mxCell>
        <mxCell id="jlxDaTGka9EmKuP6cyfk-5" value="调度器" style="text;html=1;align=center;verticalAlign=middle;whiteSpace=wrap;rounded=0;" parent="1" vertex="1">
          <mxGeometry x="310" y="555" width="60" height="30" as="geometry" />
        </mxCell>
        <mxCell id="jlxDaTGka9EmKuP6cyfk-6" value="显示" style="text;html=1;align=center;verticalAlign=middle;whiteSpace=wrap;rounded=0;" parent="1" vertex="1">
          <mxGeometry x="155" y="150" width="60" height="30" as="geometry" />
        </mxCell>
        <mxCell id="jlxDaTGka9EmKuP6cyfk-7" value="计算" style="text;html=1;align=center;verticalAlign=middle;whiteSpace=wrap;rounded=0;" parent="1" vertex="1">
          <mxGeometry x="545" y="150" width="60" height="30" as="geometry" />
        </mxCell>
        <mxCell id="jlxDaTGka9EmKuP6cyfk-8" value="worker" style="text;html=1;align=center;verticalAlign=middle;whiteSpace=wrap;rounded=0;" parent="1" vertex="1">
          <mxGeometry x="545" y="220" width="60" height="30" as="geometry" />
        </mxCell>
        <mxCell id="jlxDaTGka9EmKuP6cyfk-9" value="" style="endArrow=classic;html=1;rounded=0;" parent="1" edge="1">
          <mxGeometry width="50" height="50" relative="1" as="geometry">
            <mxPoint x="300" y="200" as="sourcePoint" />
            <mxPoint x="470" y="200" as="targetPoint" />
          </mxGeometry>
        </mxCell>
        <mxCell id="jlxDaTGka9EmKuP6cyfk-10" value="画布组件" style="text;html=1;align=center;verticalAlign=middle;whiteSpace=wrap;rounded=0;" parent="1" vertex="1">
          <mxGeometry x="255" y="380" width="60" height="30" as="geometry" />
        </mxCell>
        <mxCell id="jlxDaTGka9EmKuP6cyfk-11" value="" style="endArrow=classic;html=1;rounded=0;entryX=0.475;entryY=1.003;entryDx=0;entryDy=0;entryPerimeter=0;" parent="1" target="jlxDaTGka9EmKuP6cyfk-1" edge="1">
          <mxGeometry width="50" height="50" relative="1" as="geometry">
            <mxPoint x="180" y="430" as="sourcePoint" />
            <mxPoint x="230" y="380" as="targetPoint" />
          </mxGeometry>
        </mxCell>
        <mxCell id="jlxDaTGka9EmKuP6cyfk-12" value="" style="shape=image;verticalLabelPosition=bottom;labelBackgroundColor=default;verticalAlign=top;aspect=fixed;imageAspect=0;image=data:image/png,iVBORw0KGgoAAAANSUhEUgAAAw0AAAH0CAIAAADwgVZPAAAgAElEQVR4Aey9j1NUR9ov/v4ZY5nB1ZQyGBPFVdRd5ZV1XKJcfyH+ynjNqISAiBggkhGBjAEFJIrZICtGCAJltGCDNcEQQO6wbkwVqUQS8npzfbnfhKXu1mt8U7UYqzK1VHm+1afPeeY53ecczvBzgE5R5umnn3766c/p7vOZ7j7n/Jsk/hMIhB8Cz549G0VQz9T/cFmqwxpdmTfDGkamHqgS/tV1O45KiAFq5FECm3GsV7gSCEwoArg/Y5mpFLKM9GCABcbYYhJGFnWFS0EWVlIZ18uYMX5oLmPDOxy7xiQkXedgr5s7a5X/NmtbLho+kxDA0xCWJUlikkyrIRcEbIAnMiwzNrSskQE2NpKteMARmthjM6PqhF4gEFYIQH/mBYgTZ4GSCjgLy4yZ9SR1gp1DWZwFSkbQjQEXxDJTdtRJ3fkHR2KlUrAfdRgzsqDgSTPyss6uRvETBGhAMEcEZgfGHs8sYGPuKtRccAuCkQccDPA/GjAOmzEz8ib0AoHwQQA6P/RnrIHuDUqjyMel80N1UAu45bPAhhEgVChLxyw1s+6HcWuSxBVBLaCEeEw84FIjms0qA8GTZtXlnmmNNZpuYHYIqcEwlWC3II/Op3kAuEZG5gtCJDSLsYfciYiTD0ZoBALjiwD0Z3ALGl0BzMZRgEHE+BzFmAJXuCxuCFPF2JO4IuqN0UDt5nVZNDN3MsNyBU+aYRd0hjfHyhhmZgfriDBTG02CN8i17tDckm8LaPi6IAzwiY2xPW8JRYQgEAhnBKBL4yBByQjYZkJlXK/1ioyGJPVm3Y91S94zo7HYEDCzXvWMtxQ8acZf4pnWQDwB8W3TzWXmC74U1eCyuAiWjcqOQq87H4ESBwO7bBAnNuPD4zWjCE8UEQhMMgLQq5l6Qc8IjFlISXBlUoragAEzJEGvK+gaMw51C45aacW5lVbDbKPbhFGHN60LCp40rS/fbAzeaPSGquexYzzQpMWZhffGa5iJzMgz6HE8WKkr89UJjUBg2iEAfZuPHLKwwJtZ11A/RvZ8Leb2jB88eJmssSTNYzDPxQTIPDzz3LHEP03LCp40TS/c7A2bnwt4DUXHSG+EndHsYKQ38mOkZ+KhSV3nfBZoQMBtpEqjeoVeIDBdEIDurTsurN/pLbYX16JbNTOymKRJLdiziVmoWRCkbkEr4Zl70HUrlIIniT4wzRDAcwHIIEBjjOYpIz2dgqH4RAhMkDTJKGm9ulmgZGLT9cDYiKRAYLogYNTPJzR+k0HEzBgmljhCphTOGotsDo6V2MDDBEU4ltaFbVnBk8L20ojA9BHQnQuwEiYCvjw2083lleOo4WsfMVQ8l2F5HKMSrgQC4YaAybgY91DpsOLHJlQEWRAVaMCGFyZotOIY+EphvU03C5TgBDRCMEdA8CRzfERuOCLAz0H8yNe1MW8MX8Tc3iTXaCZl9BA2X7VJlkm9IksgMAMQgM4/oW3hB6NRdbwlrzEqO456gAUE3jkTGG9ANSYejIrMZr3gSbP56k/XtvNzgbmGz9VtOU9WdM3MlTAB6XrjIwF73q1JFm8sNAKBmYTAWDq/7tBjwOFtmLGJk1imfpjweG9MdeOShEpB4N3yofI2sOw0OWHrBjC9lIInTa/rJaIlCOjOBfyYN5lNdHHkPeiamSihRt0IdSPHRRjPkMXoRVIgMOMRGEvnNxp95qDxpbAGy9QP1cCkAYJ5LWPJhRigar5SyBpLRaIsg4DgSQwgIjkNELA4F1g0G5cGQ11UMPHJG+CyuCDosVLIAgGBgBECMGQYAsEkTYrjLGaoYicg4xpBiZ2Mo4zjgXp5/9iMzxWaUSAgeNIoQBNFphgBOh+ZTAcwiVixHHtjcHUjzpV82Lg4Dgb0WClkgYBAQBcBPPQYGSf5sjAkeTPIwovBRma8nq/LSAOD3cQJDgbi4e0ZM6Mahd46AuPDk779tq++vvHkyfykpH1O56b16zeKP4HA5CAQF/fH9es30n+hRl7JGDCWkByjYFQL79bcEudimfcjNAKBWY4AHSC6w0RXqQsXYwlJKuB/+dlG16FFJVTE2Bvprddu4oGpa6Ymnc5NSUn7Tp7Mr69v/PbbPuusiLccK0/66quvz507v21b0kzFWrQrbBFgJgKaxEpdDTYYr6aBTyxgGVcEeqwUskBAIDCOCMAoA2EUzpmyNMkoR+HWqAjjmUnypYwMjPS8h9mj2bYt6dy581999TXPgaxoxsSTPv74lsv16uzBWrQ0HBCIi/sjTARUwBocIeRi5UTIEA91ziQZpW4uY6ObpErxr0BgNiMAwwcEHg2ahQ2MpgimLC5CsywWZPxYTPLVmRRkjJkkXmfis0zczqosl+vVjz++ZYUYMTaj50nXrjVs2PDyrEJZNDYcELA+c43vfIG9Ydk6JkwpJmndj7AUCAgEdBGgY8poZBnpwRVvwGvAeBQC4w2SIGC6w/gHGxCMDEBvZAkGs1DYsOHla9caGBo0YnKUPOnjj28JkjQLO1kYNpnOBbozgq5yFE0w8oP1WKZVUA2vhwBMssBGCAIBgYAVBEYcTSMa8ByF/iSDgiBYicfEBvzwAi0FehwSVpo45z2MaDzbDDZseDnUVaXR8KSvvvpabLfNtr4V/u3VnUd0lSG1ZXw9UG9j9xlSE4SxQGAmIcAPIl5D22ukN0LDaGAa6Y38mOvBGwjm9jSXN7aiseJ5Ftq4XK+GdFZpNDzp3LnzsxBZ0eSwRYCfL/DvsPEKG2oBwagWbMDUTrPAAATGTCQFAgIBIwTwIMIyHo8jjixdA12lURij0Jv4Z7JwEsu0UkZDk4xyFOHNqiLnzp0fcbsNDELmSd9+2yeebptV/WkaNZaZKZjkKBoyogdswKzS4+rADASayyRxESELBAQCugjQUQP/gkB5kvmYglwQcBW6SmwwXvLoKjI5mjk6h+PVnOnoZ9u2pG+/7fu///cHIEMmQsg8qb6+cTqCImKe2Qgw0wSTHHXbwQ8I1BUkQTCvAswYAZLmxUWuQEAgwCDAjB2cxDIuRfVGuVZoFvZmLpvXBTGAgBfDqGeTLPOqRa5FBOrrGyv+9GcTegRZIfOkkyfzLQYhzAQCk4mA+cQ0ukjwVIU9gB4EnMvLYAYCbyM0AgGBwKgRoCMLjy+swbJJFSYLNialmCwcA5PFkyHeQFdj7lO3yDRVXvr6F2ngUwvBX/76l1++rmTfaH3p619+vM0qjbydPJm/e99BIEMmQsg8KSlpn1GtjJ40+Jf7lyb/3dyV93+RdBBkwhNJgQAgAFtmzHwESRBoEUiCAK7wVAhuca6QBQICgQlCQHc84iFpXu8YeZJR7bhS3obXgD1kgQBZM1Mg926z/375+vL69Z/+KA20rmd4ElVuDIknJSXtW/rbdWb1qXkh8yTrnyUJZ540ZbFNPmucTTWOYjbRLYKVWObnJj6X10ApkyywEYJAQCBgHQGLY2p8zXTD46vgNbigUS7WgwwC9jDT5Mr7v5D/9NdWWgfUtY/bAyp7gf8PtCrkKTSe5HRumvubF8CLiRAyT5oZ10bwpJlxHSeuFWOZmMZSduJaJDwLBGYMAnjhR3e4USX8CzZMQTAYX2SgutG55YvzmtF5DuNSl7/+hdIdI7pCeZKybrR+PNaT1q/faLM7jOrD+gnkSYSLqBuNRFb+G2hdv3E9szUGSbTsBruMUFZec6Nbj5fBn2xGkj/e/vRHUsVAK3gjUEo/3g4aUw+tiI8in1Y3NcO4q4kmjAkBZjJiknDdjfRgQNf5YdPNij0uK2SBgEDAHAEYXNiMDjT8L83lNbjUuMghjXFdY13luMQ2rZx8+qP5elLlp63KmaRx2HcLM55Uef9Hsq24UeaAkkyeCHcBjkKIC2FUl78eUNbcZG4kMyqyyCYL6zde+vo+4VhkhY3ak5ti69f3L8l8CMwQCaMMSV2vk0kYpV/Ev8H1mFa9aky0QLR0dAjAjAaC9QMQo6tRlBIICAQwAnhZCEYfHo/YGMs8wbJSCnuwLmPPWAYPjJJJgtlsEuhih7qoovk/uY/DookmR5J++fq+fGgptH23MONJ6IgMaae8yISYCoEGVo+UPkE4DfAklehQP7cHOIqjYV0MTwI2RkiVQshkuAVPQtdlNg3FEcglnq2wbAIRmIFgYiyyBAICgYlAgCFPE1GFFZ/Ww9CdLrASy1aqnhE25G7O8gGdW9VMXE+CXTdCAxWC8umP9Km0IO+hyz/AFBV6BBQyuBSkbuep3UKLLLvvFrwv6rG0YK7qTWhmHQIm85FJFvyQFT1HICAQmCoE6Ag1GacmWaHGjF1hOdSpgCkbahgz2B5u98ADVIHlA6pePmwzqnPcYbWepFnsQctIZHXnl68v03/Xk201tBcW5DrqPZtswKkrb+xSkFWepF+XDldVKxVZ0x8BPCVhGc81RnpsQ2UTS5Ms3o/QCAQEApODwLgMzFE4oUWYgoySyZ0cQMK2FmUho/L+L5qlEM1Jm0vkvUmX0TluerJ7NO8FCFueJDcYWA5ZSfoF3nWEeZJ81JqyogH1XVLq+pN8Pgl20+B8UnClLsix6AKVcrxpvcq0WE42/alA2Pb7qQ3MaA4CPQh8nDjLSMalsA3WC1kgIBCYaASMRp+RfhzjwVUYySbV4SImZrMhi9z0MTdQTh3R5aLgyoUBT1IMQnp/UljxJPp0G10kG/gaLxppT2Qrp7xlwx+/hndFBg92ATdSjnJTS/LyTfP1JPCgLNzJfU5RIp/BKzEbOuWMb2OoE5CJPc7CMsWQ18x4bEUDBQLhiQA/GHlNqJFjD1jm/Zjk8lm8hnc4mzSXLwVfrg23bHVvDfiTvO8E60k/DsgnelBu64CVs03Be/3UvxcADk1P3cXW8iexbjQrEYD5CAR8mEBXSXsszoI+jJVYBgMhCAQEApOPAD8Yec0Yo8IOscy4NcnClhbNcJGZLgM9UreA4IalvlsSrWsw57jp3hE5/qxuQAXJkAluU86TSJuDe2HQ4EkVBE+y1FdMutE0zRpxDhrRwKjhoy5o5FDoBQICgXFEAI9QLI9jFePoKvwjHMfGhqGrKeRJKivUHMWakhu24ElTAvvUVwqzDwh0iEISBLy2xMhGoxqXNbIReoGAQGAKEbD+cL71IMXAt47VdLGcQp409bfJ6XKRRJwThIDRjAZ6EPgATLJ4Y6ERCAgEwgcBOnhHMYRxESxD03SVkGskTOZrLY1iEHoTBARPEnRt9iIAkxoIdKhAEgTdITQRP0Z1KxJKgYBAYHwRMB/a1usy92Oea70WYTm1CAieNHtZwtT2vDCp3Xwi43N5TZg0RIQhEBAITAkCJnMCZIGAI7SuxKWEPPkICJ4keJJAIDQEdGe3yR+6okaBgEBgchDghzyvMY/ExB423UxszJ2L3IlGQPCk0O6RE309hP8pR8DibCVmtym/UiIAgcDkIABzAgjMwxxYP2JIYr9+RIjCzUDwJMGTBAIaBGDKA4GZE8NtDIt4BAICgQlFAKYCEPjq+CzQ8AJfXGjCGQHBkzT3yPG6VLDYMF4OhZ8pREBMc1MIvqhaIDDlCMAMEFIkUAoEXFxXiQ2EHD4ICJ40UTwpfK6xiGTUCIi5bNTQiYICgemFADPYcdJIZlaasZl5261bmvsRuZODwETxJEmSbHbHbP6bExE1JyIKI8AkcZaQwwQBetWM/g2TIEUYAgGBwPgiMOKQxwZM1UZZWI9lprhITgsE1G/Imf3/38wyDfKmReMnLkgYGFAFr4EsIYQJAnCNeCFMIhRhCAQEAuOLAD/YsYbWhTXML16jLEbPlBrfJghvE42AAc3RqAVPMlwbg8EA14mOB0bPJMFYCGGFAFwmLIRVhCIYgYBAYBwR0B3p1pU0khHtBUkax0s2Ja40hMggIXiSIU+y2R14kFCZHzxgMyXXWFRqEQG4TPg6WiwrzAQCAoFphwAe8jh40IMSNPzkgLN4e9AIYfoiYECNNGrBkyzxJMyZsKy7wjR9e8wMjhzmuxncRtE0gYBAABAwGvK6elBSgXeC142wDJZCmKYIaAiRQULwpCBPYno/P3JgCEEW7RlMcpp2lxkfNnN9Z3x7RQMFArMZAZiWmYEPegwOKKkAWVgPSiHMJAQMqJFGLXiShifBIIHhAatHINBRhw0gayb1HtEWgYBAQCAwfRFgpmhoyIh6MMACFBfCDENAQ4gMEoInsTwJOgEdJMCBmDEDSWrPJMGJEAQCAgGBgEAgTBCAiZpZZKLh4VxGDpP4RRjjjoABNdKoBU8agScxq0cwuvAowmNs3K+icCgQEAgIBAQC44IAP28zbrEByIyNSM4kBDSEyCAheJIhT2JWkqBnwODBFAqMwUwIAgGBgEBAIBBWCDCzd1jFJoKZEgQMqJFGLXiSDk/CY4nKcP0gixIjoEeghwUnKCIEgYBAQCAgEJhyBIxmaWaSn/I4RQCTiYCGEBkkBE/S8CR6eWA44avFK4ESQZYYbxgxIQsEZh4CeLDPvNbN7Bbx1w5rYD6f2SCI1jEIGFAjjVrwJB2eBKtEACgMJ6qhScgFe16PbYQsEBAIzAAEmNlgBrRoljQBLpyRMEtwEM3ECGgIkUFC8KQgT8LYYcaDZWoDwwySgiph9IQ8qQjM3x61InpSa5ziL2EnLYmLmcL2MsOfRiJWI6bwilisGi4cL1j0IMxmHgIG1EijFjzJjCfxcx8zwGinATMmF5IT1bcKugeePqiZ4puWPoAT1WS2scvnxSdFbkJ/8RtI1Tsrs9t6vPJfcvYURrj6eYiNBsbGj2NDxrRUzHIWRtKum+s1TjY7i9oyXt+nsUw+eqUiQaPRFMGVGsiRaza/vsv96h8WRxoYhOpwtPZrT3nePfV7TVscqXsv+nZtnEpqSIc2RAUjHaYCyBJC+CCALxOWwydCEcnkI6AhRAaJac2Ttse92bBtk848PvYxAB7gsjEaSFKBWU/ic8HPeAreL4ak/sbR3oHGMxJNDBWt399vzNS5LmOu8Vhi7YdOzRU/vM/XW9KhUCJCjG5Uvmh32CI3yOTJ4/b1pr81EZHo+uTDK0r39xZTxnant8R3c32cbkGqLEyWLYv9Souyzx5gEdv7ocffEo/QXpbpy8vPYs3SsuqrE1klKmWe9dyWQxc/K710LbPo2jv1HYUZW0xinvCs9WcKL52JZQPeUJFdXRs7f8Jrh4FMA2AGO0TFmIFeCGGFAFwmEMIqPBHMlCBgQI006mnNkw7squxOcenMlTAMRv3zTtcDKOnlhCSthSbhSkMuaMZfCFOe1PRQenLXq3NdxoxAUbr/3r692DPhScZMyDwX+xkXmQ8Pa7bEN/QUf+AZCQTTmBmeND/38FVf4u+44NOydLiFVZ70h9xb5e/mKKs1q07l1d98dZXVslwkYy64/kxhURrvNjq2sPP40SQOzAPxeQ0uF6/nPVjS4FGsK4OSClw8lmoRpSYHAXyxJqdGUUv4I6AhRAaJieZJ0VHuhuyr3d667oL3Gpxr1aXyFbnu94jSe7UtLf0whXJJenPG0VPbytpkvc+9e7MC8bJc13lZWdedXeiNkn9ExuZ15l3uLKjr9lYTIe9ybSyakfF4oPL+qi8GnsoYPB28W5WieD7Y+OU/AhSZoe99nnXypHbtQeAbX03vkCRJz/71648dpasiomze7kdD96tio5TZsPyLRz/fr9lOkquK2x/+THw8+9evA5/XuJQwnG9/0j80zNWIghxtB0qp+nyQBD0cGPhuMLielFDRKaul4cDQN41qGA6XTsNPdw4G+q4pM7inYzDwTaPNfrpz8PHA4BNJkgI/9D8kWAUeNrpJkOtON39P9JIkBVGyN/Y9fdBc84C2MTDY/TZBj3gOPJUhDRAhMNjtMWvylrXv+8nyyZ17mRca0mFHKS5n3/V7JYo+53ni4UDiDbJoVALLM3TdyG7KKvjcyAPxtXKN/l5PbZm8qXQg8YY/U67O29CSfru3xN+T+qa8eadj7LBl3/RWl62vVsM+myZfR6PwME9yRF+8V1JbZFtRlHrbv88Nd9C9idd7TpQpo8DGx2zfsvZCu5ei8UFrPl5PcjV4z59bxCMcGf3SEvDvsCUfvdJ44t3b5fUdhYWVebVd5fU3X11vj824fqYo8yXoh4nn37lSufU3CYcudWW5FqjF127N/fOrW2Vv63OzLn1WXt9VXv/JiTdeUcYy2RcrSEy7doboPyvMO0T0v3k988o1F7CrhZlZajI68VzelQ7ipLYp071BrWVFQu512UNX6aXKxFVQu93x3JKV+nt/O2sLKiuXMW1f4k2r6/ae8c5l9GNI8pMJRQz0OAlgCiEMEWAuWRhGKEKafATorc383wnmSTtrC642byOHLmOWpDYX0KXy+RmuS93Z2alkLlvhTanuTHHF2eyOZdlt3uqPNsvGUanN3quU+sTFl3Rn58rGC1P3VnajH5EjrydR0OfkdP/Xs6Fvr+SsinCmX3kwJD3uzImaE/Fm6z+koZ4KZ0TUnISKL4ekRx05xP5GvzT8uOdKTozduevKg1+f/dSZGWWz53X+JA20uOlIq/gqEPiqSt5rq/n212cDzTmrIqJWHfUNDEt9V+Spv/x+YHiw+ajTZnceaR6Uhh/UUBKmN1+ThtfJrFH5t20X3D84+6SWQSkw2Fqww7bOXfH5E0nZd0tpHZQC/b4j6xy2hIq7P0tDn5eStmR3P5Ke9MltOUIbTg7rlN4dkh7eUG5Rb3/+ROpvkpWBvis7YqoeBKTHrQcdWV2PZb2z6ruANNjuSXDYEk53/kMK9FTIqDY9lKRHPTVH1jli9tT0PVXRIwFbXU+al99a0tG6dfdqW+SG1Rf9JQoD2JvY1Oup9kRGOmzxham3ezPzZdZCPGtohxwG4UmZp4Pnk+ZpztMwLGr5+g96im9UvrjUYVt6eHdTb/77x2Re0pN8ZLUt9abX3741zrG4zF9SV2Sz6xo7bG+1lNzx7z+SZLMvn3fkZr6/PTG4D8iHRzTuI0mRu3OcZS35d/z7XMsVzx8UyvE7bO6GfH/r5jUqY+B4kgFKxD42vzPPk6H44bpKUJ+WVd/oemlBdHJj+ZWKl59bkFD4WeEbCY5VBWitaOmu0q53chMdtrSs+o8PaY9AybH9z6O1n51wy3G+lHWi9rOjiXKN688U1t8+kfzyCzb7C8s9nnqqJ1XI3ojNS8nXyt/NIYSMGHyc4iTX6AXnucL6667lsoG7tvzSuT/8hmyY/iH34/KLBWuCwRu1K+bc8brmzZgOUsuouFGTJDq6oWq4rYIeNLDPzhuDRggCAYFA+CNgzpBo7sTypLjT3WgeT4px5y5b4rDtrC24fDlGnf6ijvq8ZWciKE8qOqXAuuRMRp1v1787bHaZJ+XlRi2UJ+uo7YuWwaMuVnmS569PpMH2XRF0Ncj99jVfRbayMjQnwpmUmpN+/M2arwIyLZB50tAXb0dEyZFU9fzy7P80EmNCUH7wESexjX3DgS/LSTzqBLpj//E304+fah1UCYrMk1qL3XIzd7gyM5KMeVIoPcnZ/INahd1hg323zO5H0mDrKzJEdkdMzQPp6f0Ku4M2PEmBmjbchCfJm2Xg80Y/AWSdlvRceSANffE2cajRV3wVkL5vUhuiyVKVSmw4GV/Xm3+Rrsc4bLCjRAWV7kSebS9pKFNL8USEMCF0Pqk9cSeuSMuTIrXFM24W+z6MJrxE3suDAN5qITxJ31jmSaQUrSXH3dab+ibUqPVPbIrS/T2e6y2ptS3Zt3qLfS3xO+Sj2VurT/j9u7eSgivfv1cMnIkU0cZsXx7foIeSHICzqDs7mzvDpMQGUcnURz6u5Koul/fjYt/4mPAkG2EzpYWHiOXCrBPK/poRT6JuI6OXr125PM71bpfswe4gPAnOQi3d925XYcYfiUPnuXeunPsDuXBxr17sOuFeGoznuSUriZNX0650ZckLny8RnlSRsFy+6CR3xQvqFQ+W4jSnUurMflFw9iaulCxMg9DoVoY5s72uazzqjf5RRCuKCAQEAmNHYMp50r5d7+nN464GL14wV5NkWQV4kh1NgssyEot8BTXdBdW+lKNZi4KHN63ypMbvJYUDyXM9THCumv/456+//vrff3/4ff/Az6rNjX5CBRSeRJZe/s8NwpNs6xr7hh93ZjtW1fzHs0f+LOVu5Hy7YzAQCPzz//3nw+/7Hz0FEuP0ND94NER2x4b+8aC5YIfJ5YzYmBvv9qI/mU3ydzui0SwFBXkSkBtaSk0yDVdj0DhB60l6PIm4Yv6jJ8c1ZEh1Qu83miy1Uv4upSUEmKb4e8mmG/wFeQlPRLROWNC0uaQK5JbILfFGPEnfmOFJWv86y1044OVk362pMpIEuWHzdXk1K7IwtePe/uAeHM+TtFUASnJLx8qTZDZTX7troX1Nxs3y0ix5D47wpBSd9aQFsWnXztTefufi1cyiP+dd0eVJ9sQiVU/o0WeZiQvIqlVtZcJz9NKsSMhrKq29XfjunzOLagtrFZ7ksK14OaO6sLajvPZ2YVHByy+hfTfj/oOmCPa6853NkgZmBlopToKsK2B744AtxSCKCwQEApOJAHN7001O7HqSs6g7NxsOXsQsiNkeMd9he6XBi9aTIpKb6RkLA56klrJHR/wu1/Ved25uqgqiVZ5E7uI/+MgxIzKfkgUkV4LDZq/pGw70VTmpt+CdnvIkZeallEJZfDrbE3jUVdr8g/Rji3xwx+6wkYWcx62HZCJldzT2KzwpZk/GkYMyN0pIOfvpYEAabFYXe9Tgg5PmolcqD59uQH+VcTHBXK29wXpSwRdDaD3JVnE/MPygyu6gDVeX7qDhofCkV9oHJMIOtWGw60lB9AhuFnmSwUrJaw3ejpvr1fUkbb2YdtCQtDSCvV9qc9dcyFZXcZBbg/UkfeOx8CSH7fjNYn+LkwaZcbO442Z8YWtJU+ViTdjamCd0PYks9rguduVlpF2jaV4AACAASURBVKVcuX00kbKTta6LXZ5kWP75o+vdTzJdix3LT+XVN+5TQw3yIc16EuZJ9pfctaWFhzbm3oINOEfin0rJxh9tLz0IReQXFq9duVCufWFcQl5TubIQpYGF74ETxZNQ34AF4+CSEuVJ1AZzJlh/EktKGEAhCwTCHAFdYsQoJ5YnRRz+yFvd4FxG5ri5my5n130Uv8Rhm5/lru5McW8n8NEjR+nk+RQDnpTlvtqZdlg2tsesye8sCD4FHbe5rDtX73wGzF/0Cs0p//rXZ0N/LSaUKIacIqK7ZuSEzUAzOdMdc7Smb0i7nqTM0QqlUCbH7O5HT58MBR7UxFLK5bARgvKEenYWtA8MKzzpSMdjaej+WcLGHDFH2x9JjzvH6Tl5sv339EHNQUL4jnw6qJ5PIsenhj6vIPfgdTnNP0iB72oIPSq/H5Ce3GUb7iYGX1URg3XkyJG82FZ6d0hvPckuG9OTT3aHs7y7r6NUJl4aMqTlSVVfPpUGPlEPywfvdptjsxvcrwNvdpCTN7fpo/LLI0+3q+eTju2/3eu5eEw+ZbI88mSD+/gWdaSRfa7sQkjyqy/M3ZThHGQVp7iujJx8sjvmuquTySlsA54kL/lwxuY8iQ8PEbuYtMQbPcV1RfMUQPbu/ktPcUdP6nHmJUlMzEYokSYsyfR5T6tb1UGcGRCM993kIomVpbWflaIjQdHJ19TTQvYXtla8Iy84OdZ6C8k6E2EzL6z1eGrVdSNjnuR47lBm7a13rqDH5fb8ubz2aiIhWwtWbq0orFfWk8j2X2nWSpk/vbD1T2dq/2Th5U8bKrPrGuLYVsct2+ON20jOO47iD3MgZepQNuuVX0q6SlwKy6MIQBQRCAgEJhkBhhLpJieWJ9nsm9fkki2zvOpu71Xf3m3qI2wbz2VUdxdUdxbUdOfm5S6QJzUDnuRYsK0yo1p+ru1qd8F7tbEy61Kg3FiRXUOyvHVtezcGZ0ZmtpoTsdHzyX/++q9n5FGs4cDDT07TJZaslr/LD45JUmCw7wdyhokc5dFZT4Jfk4SOBHoq0E9Gd8Xnjwmyw5I09KDvH4R/kNjUZ8RojQMKtwhGOIaukNL4PYk6EAgE/vE4AO9POthIqF4gEBiW1KfPCJfyfNJPNNqGxxR/8WiYGEvDj7/8hp7XNuJJDtvBmruDBLdAgADVWU73EE14ksN1o18OUZKkweZt0Oos99Vu77v4+awt8bXkETZvR6/3L34vPMm1oyzV11typ8fbQd455IwPMonn32rx+nuLO3pL/K3xKxSeFNyh8/eW0E06btfMc0HmZ3E5+270EM9tvSVt7bvdq415ksOmY2zOkxxceOT9SUp4d3rUJ+wUQOYVtpfcblgZvKMjY7mUErMdUOrxNvk1z7ttupyLlmYNO5X6OiX2fBKtek/aFe35IZuyO3am9rPy2uspWwnODtvSjbk3y+u7Sms7yi9VZL7bdSZvD9Gb8CT5/JO6nUfrit1VSh67K63tOPPun05cUheuFr9yiDyOd1uuseloIq0xiAx0oaBA1qFLvBGsDVljtnRmiy1IPON5g8rwL2ALGhBwQaoEYyEIBAQCYY6ALjFilBPNk+R5bX7cohU6v/DmLpO34fQmLB7Zucu2L6BHuVn7mAUxG5knXPjZStbs2H/8dWXXQ3aiKNMOUtrEV4o11Cf8i7Ns69yH6C4bE9s696FUepQ7OL9rCjL21pMJKfLWIes2Zk+Gnn6HKzMFN1yOwZl0MJTYElKUnUSLQeq2fWEc2XgNelhui3TYYpKeX+qwvdbghT0pahCTFMm/kJq+Q3Lkd1vjWjh56cuRsatRGJxBMEKHLSTjEMIji1snyvZaD4OghAMjctK2852Hd6uv22BzeXsdjfPcO8HzQ8iD7gP5ukouKp1asM1vVii7bFhJ3iawwuAVACgqtUhS4sVO906+4Rmuy90pLl4/QkjULR3dWEa/iIgHZvjr2jNF1IAtBSCMBQICgUlGgKFEuslJ4Uk609zEzhp4/qKgMxMcP+WNeG14DyMWEQbmCMw7ftN7u2Xra4dffO1C6u1eC+9gnNhuYx7teObGJK083VpseAwrlGZurMx+r3KZhn1aLh4ZvfZQ2qWOvDSzt4Rb9jaJw3yB+6PcolN0HVpzXTZU5l66HDM6NFQaRB0ycwgz/JkkLsIU1IQ3iRCJegUCAgErCOgSI0Y5A3mS7hSGiZGRwYiYihlwRIhCNFgeefiCu7Y1+3qL+/Qx+X2S4XhXDrFRIzdhfXVPftNN5R0BY753LthdmxZ8WmLk2qE5a095rtzMylDfGAn6cBccXnfZOUNqOH+Ui0lMq/EsgWVqxmhgZgC9WFVi8BRJgUB4IsBQIt3kjOVJupcEZjHdXKEUCAgEBAIUAaO5AvQgwG8wECALCwJYgYBAIAwR0CVGjHIm8ySYpODa8BrIAoHaQFIIAgGBwHREwMpgN2kXFMcrQ6DElIjK1BXMHmAJGpO6RJZAQCAwVQgwlIhPPnv2bKbxJDwrwVSFL4CuEgwgF0+OkCsEgYBAYLogMMaxjIvDbABKCgIkGQOACAxAIwSBgEAgrBDgiRGvmck8CX7z4atiPnOZ52I/QhYICATCGQEYy1gwCRi4DrXBpXAW6Bkz3dnGpDqRJRAQCIQDAjwr4jUzkCdh6JlJjWZZV2JXQhYICASmEQJ4mINsLuDWUUtgP0CVwAM1xkkogv0IWSAgEAhnBHhWxGtmFE+CuQxfFTyRUT2jgaRucexKyAIBgcB0QYBnLXik8zLTLigOlmAAWVQDSTGBAERCEAhMFwQYVvRM/g+UNDmjeJLuheGnOfwbUTdX149QCgQEAtMIAaAvSszzt0etUF4ZQLLWvPriIuVrJKyl/KYGTHqYWYJJUv+6TqYRXCJUgcDsRAAoERVmKU/CrAj3A5jsXFVfDDyVIRp+3Fmgvn5G/fAIyfiuERcU8sxEIPJAfK2/WP5gSPEHhaNq4+rFrxVtPulZaf1l32N+eRIb587K7LYer/yXDF8vjkmK3MT+6b3dW+385Csle1e/WbY5I20e80FiI5TicvZdv0e/0HLi7AE2qnFvpgWHWuKy2VnUlvH6Pghs7qbK7IshvJ9T603zhRPqE/MqqEUIAgGBQJgjwPMkXjM91pOYSUrFfXvcmw3bNqHJ3Xj2xB6orM5rNX3D0kBzDvl0ScIO+LgH+pCt05lAPqAr/iYTgcg3P0wtPjapNZ5tL/E1rCTfBlk+d2nwi3JWY4hM2/eX3uJbram1rfl3ej3laVYLarvWWBseuUGmRB63rzf9LaXTvni2nTKn4jvyV/MYFqUNgITtqvbc6fU2tZ643VvS1hKP3tYdaYDS+g96ihvoB4ZXz9X5vsoUDB885KOP+/Lys7CGfHg7kygtXibtpMHyJMazRZ/CTCAgEJhyBHhWxGumAU9iZigEK/nm5ev7yeI5UurPyOAEBKWI94shabB5HVuqsV8a+rx0RLfCYIIQiL5wr6SuaIKc67qNr+vNvzhKcmOzO1a+f6/kxgXlleJbK0/4/bu3sp1Kt15GOU4NP7wP8SSoIr6uV/22rklse3f/pTf7dJJcakt8XQ/+nowBSqS6zJOhk0ueoo2fJshd5ucevupL/L2yywZo2ObnJqv6oNLuiNhZcTjvXMwSFiI8dTBzDpPE3oQsEBAIhDMCPCsCDezBTTRPio5yN2Rf7fbWdRe81+Bcq35SYEWu+z2i9F5tS0uXP+RudyxJb844empbWZus97l3b1a2zKJzXefbvHV+b113dqE3Sv54U2xe56nLnQV1fm91Z97lzrzLtbFmM6zzyLUH//wXabU0NNhZTNeHGvueBgLku/ZS4GmA/H1D9tc8HYNEHpakYVn5dFDZjFtX2tr/hCIYGPyi6qA6jR6suTsoexkODHxe41LD8HQMDnQ1Nn9PizxufU221zd2epr7h4Zl3z/3N5+E8B401zyg+sBg99scmRt950O7ikPf+zyKZ+fbn6hhPB28W5Ui+z/dOTjYeaNb2Zr8+UGN3PD/0fggMNiepTY2qblfTabU9Dwm6EmSFGyLw3aw8ct/yChJEqpRxVD1Q2rMvkkWP/RWPl48255dVqjujrUnbpCLxxW6m5QdH09t2WK6T5R901tdtr5a3ke7cy/zrEqAItO2Niiba97rH66VV0rocgtaa2lP3Cl7RntMQc80wuqytRdaSZD+nuQjDpud8hIgCknOiy27j8SS5sQXJt/qJRtSKAy5IUWJdKPqjj/5+JbRNFzPs3zJIB4WXo4nLY/Mvukhregtvt2a6JLj31nt8bfEw3bbaw3ejpvr7Q4jlNZXk20+sl/ZQff7iDEJQ/e62JcvPtmi1HirBX25pTC57ebm1A8zb8vBVHvkhhgYwx7fnXuZF3IUbqq94sfPHgnyJFeD9/y5yAiOJ9kd/17QmZ19IGgpR/7b3DZvXdvejSx6JjxJhZ0tIvQCAYFAmCNA7+nwLyEJ6n8gTzBP2llbcLV5W1yMzR6zJLW5oLo2dr7DNj/Ddak7Ozt1rt1hW+FNqe5MccWRZfDsNm/1R5tl48Vpzd6rtf9Opra4+BJ/dm7qcxFRtoWpeyu7jx9NUiesA7sq/SkunemPuTCrKu7/+mzobnmize480twfGO5vfEWd0ch6Un8jvk/LMr+edLYnIP3gO7LOYVuX0/wDObREturseZ0/SUPf1BxZ54g5WtM3JD3qyKO1v/35E0kKDHRVeTJzjhTkyfwJGzf2PZUGWtw2uyPmyoPA8GBrwQ6bfYen67H09P5Z4rnpoSQ96pE976npeyo96shh2oWSZGmN8Ev4q6xcxjVKtXdWfReQBts9CQ5bwunWQSnwXQ1pSxUJo/moU0ZpUBp+UEU8lN4dkgI/UOO81kFJ+q6G+FnX2Dcc+LKcwuhuHZQGPiFtOfLpY2no/tkEh82+42zPE+mn7iPEibv5B2mop4JsayZUfDkkPepSUFJDUi+HGrPusgpR+nsyy3Je3JQUuXuvfINMSmzq9bx/jPSlpcf2+3pPnJUXQt5qKbnj338kyWZfPu/IzXx/e6K8P7vy/XvK9lBk0uaGHnwOiecQZC/pRuWLSx22pYd3N/Xmv6/uA77VUuLv9VQXrSSHfg5ErnHY7EXp/nv79rKtsEXmuG/3ei7K4cWXpXf0pL+1wWZ3kIa0tW7dvdpmX724uL1EJiIUCqsNN/Cs4mltPem1hny/f797tc2+PPJkS3FHS/wah+2tlhLfh9HqhbBFlmX6/fsocbQ7OJRok/nqNmy+rr0uZXtJbBk3izvaE+WGv1jcjr4EXJTu7y25ddN5gJyjWhxPUNIYl7WX3G5YSaLaS654tScyknDQ1Nu9mfmysfaKF5Arriwzx+Z35nky+HOKcyKiItObvWVnIqCxihATEaX+otNmqTPPyAvY6oXguoTWoTATCAgEphYBlRTp/H+S1pPiTnfTGUoGIinGnbtsicO2s7bg8mWZZJBJJOqoj05VhCcVnVKmsxfPZNT5dq1XeVJebtRCecaJ2r5oWYw6WwV5khHQ1LKq71ngqyrVhpAVelMnmpB40mD723vkxZ6ElCOpbtKEArJt16qyrqTixub3EU/6wQfNDNalLguRI1DEwKnlZDV9w0/uFlOe9OSuV5lnK74KSN83qU0Y4+Tb9FAKfFmhOsmuar5WmgTTd0LKkcycI7ntAxKtnfCkhzcU46RPBqWfv/DIxmd7AoGeChJSdvcjabBZBYEwvz0ZxEnN/YDCQWWe9E1jFuFPcu7BHeZtMaQLDWV6BZfPiyf31/WX1N06zc0+x93Wm/omqZrwpBuV0THywsnSlyPp/VhuDssAIrXUJ+NmMbAHjXOKjNYYwMy4WdzWsFpNLi7zl9y4MI/yJNhVXHMhGxERqw038KyCwxMXEifTxvUf9HgvAfmWt9sKN7A8SUsBGQ/G1ck8qbpwMT2rFJMUKZ9td9b24hpXnyyMJixTIZr7XVSm/y7X1uVJ7rhHDPZ+iJe7yHkp2iU0FyXH3XY/9U2FzTiLurOzlaPl6tSh/rhyNXjNflHgeIgMxdWGswZCLxAQCEwvBHT4kaqaHJ60b9d7wRkqiB0zN6lJ4EnyfHQqpa5t1wZ5Oos+lljkK6jpLqj2pRzNWiTvu8kT1oHdld0pmrlVM23BpKYlIg5N0jJPsq073fzNY7ILFnjy6BsfWYyxO2yN/ZLecpTN7iDrSf1aZnOjX8Vf/f/QF2/LCzZqWvm/zEuaHipMhVSk4029+8rAxkXv9b580BvvJn9E2HOY+5WsgkO4XZCBBa/LutLOwUAg8ORRf//D7x8H9HiS7Ua/RGKWXWV3Pxp+ULPOkdX1WF1dI/trfT8TJwPf9z/84UkQnIM1nf1PyH5c4MnDLrJIFqxX0xBFb0gXgF6opZ4/ftPT0eMlB6hbMm/1KKeaNHdNRBoiD8RXt+ff6S3puHeiuoysFal+tHdlej+W98vkJ+DkJ7la4qmxxjn1QHiS9jYv6xlLNaltnYZjabOM0VBdKfEzSWUfMNg6asa0UT/5pnY9idC49q0Km2GZlooeQljF0xaXs7vBX3ynt7jNn14mL//YD+y7ZXRASgOC7Jb4pA/Qwb/kZLq8mAcaIlD+qkHg8D7f/aOeEXgSqUWdfNSGsIjxenEUicdEaAQC0xcB5uaLk5QnTfj33ZxF3bnZyvEjmz1mQcz2iPkO2ysNXrSeFJHc7D1/bhHdd5PXk2SelK/ypFXPr9pBStmjI36X63qvOzc3Vf1h9+ouU54EV67xewmtJ5FNouAellWe5ExKzXHJ3Mh5sKL1B7IHR9ZgSPHgMXCyjqKulOgwm4r7AZlYQGCyIMejsw8VAk+aE0Ee/Tt8Gv29eWoR3LFYQfZMlqzkP3VtjKxv/aNdPV8FtWvWkzQ8ieymBfpqqr58ChtwjqrvpMA38i6eZq1uhyszI4lwI2dSbuOXP0vKQhQbmBoSs+KimulxCE9yR09yqnIwKGjA3jXpw19k2Yk+Dz83Nm3r9Z6S62XzVOcMabDJyzz6Z7E1zmnMZPsvu1DeACIODyTe6El9K9b2ZksJWk+aV9he0lQZybZOQxGCTVADU/bpGIJo4FntWnrEhVtP0q7ubNh6Q9613FR5AhEj23HNkhiLkhIkX93q5zclye8UWD5vR6H7lrJrqT0GDja6G5dyPHS3DkFho+el4PgUZKGLMicieZ/vfvpbyvLPxqLunJxXVWS0a0J6PIn+vgJ7IQgEBALTEQFYKDH/bYOJESNPEk+KOPyRt7rBuYzcS+Zuupxd91H8Eodtfpa7ujPFvZ1AvzB1X2X3G0d3zYmIis5R9t3kSwLrSVnuq51ph2Vje8ya/M6C4KO8cZvLunPlkwfmV5EcAAr0yydvHM7y+0PS4054tYxVnpRDziHREzZ2JzmFo5y8qfjyKXkyjuyvyeeWgAHo8CQ7NZaP6ZCTUve/rCFnpZNaBiU1PFtCRec39Mg2MBWCnp43hVXg3sDIBrCQXbBAf5NMieRTRDLn8/z1CVkrImxmh+fTQWnE9SS7I6bmQWDoSeCnbjjQ3fi9JP3gI57X5VR9A+tJ6OUL9h1V3wSUQ070JrfxjPt0ZazcSSBgQiluN6zW3g71OERRqr8n86R8Djrek+zrNV1PQoeZ7MsjixXWQivlGADZOSquo8+6O+a6q5PhMDi6JUPAzxfCawUcc1Nv5vtbN69x2CIJjUs/KR+ZUo5PkWM62oZoeJLVhht4VuPhiQvpLWwbyWmhlvh4wjLnuhs8/vZE8oweavjSY/u1K0CsB0OeRBqemU8fmlu9tlp5aG5efmtJh/KiAblGGSXiRAMCbYViLIdnW3psd3VlNOkPx/bDkS9yrKrBTU/Bo4syJ+LwK/LjfnQ4vJjp857OV5HR8CSyhn2a7PXjvzlrMuLdGYvlc99YL2SBgEBgGiFg7W7oYLgRTtJz3BO+nmSzb16TS7bM8qq7vVd9e7eRR9jI38ZzGdXdhdWdBTX+3Lzc5+UpKZqcT4Lp7NTr6r7b89sqj1V3k+farnYXvFeruaFurMiuIVm6z6egK+p8u2MwMEyea5OGn/TJ7ETJtcqTHDEnfQ+H5IfgApL0FB6ac8ScbH/4VJIC5BG5QH+7+uyYPrPROBl6UEMOTTts9pSqz8kjc3J4gYEuSqQs8STcFWiLeA3CQb0fHKz58ie5LcOS9NN95dm9V6ru/iR3kmFp6JsHj5QzTCbrSfQ0t3IaXakl2zcQkCT5acGB7wbh8BZ5mSdpofwgofrQHC2yKL3ZW9fpTlRjoz1Efh1RyZ2e4jvBx/W19EKxX5zf6iVPk/WWtLUnN5CH88kSEbprqg+jyfY7ylJ98juEOnpL4AkvuUYdBhCXs+9GT8mdHm8bcb6bnHeWnWicQ9hbyON11PiOf3+qTN3Izk5ldltvcZvckOpC+nCWtiFaimC54bqe5eM7mu0q/CIAro3Lo8+2e+/0ett6Su7cUx67I4+q5ez/i+LEW3dBeYTQCCWi16Flz6d+mN0mPwR3p7f41s31ykuYtqx9n2zGEUgxSno8yWbfsvZCu9dP0evJLpOPw9sdNnwRfTedlEipF0Xu/8F4SHLT5bfQAra6Gh01J+IPm8u60w6Th0jgj9i7Grx1DRstvG0ESglBICAQCDcE8K0Qy0ycmBgx8qTxJHkCmh+3aIVmMqJT1XPR2+ctUA5U6jYDK+cu276AHuVGk5rc4JgFMRvJ404j/+1w0cPXI1saeovZk3GIHuXWOnEeVHblLIRBDjLrOdnhykyBF11a8YNmfM0DOICbuRPdMGL2ZNDtRfOy5rnOg3SXjYXRAKXoiKgYXYdzY5VtMt1cpFz9PDqRjfRsAEpWTFIkPcqtvYj6BZe+TM8g6+cyHiI36BrPjaWbUAbxME7sDssNJ5bsK7M5byNFboBejEXwzRql35DIDfgE/cjhbXpZZ4AbXETa+bHPORFJ2853Ju9RNmeDo+b3FcfpE7gqYrTsvNeaQzrcjesSskBAIBAmCDD3QUgygiRJsL+my5MkSZrA9wKYbAoygTJJQNlIDwZCAIgwFLpKbCBkgcCMRID2fKZpRLmxMvs9zVdK5kRsdp5pe31/AjVGQ2ats6g7I1ld+VYpFONTJAUCAoEwRwAN6uBvOVCCYESSKH+izGlieZIuVYL4cC5WGunD/KpMSXgYNwgAlKARgkBgNiMwJyLq+d21R3KSAYS57tqM9MMwUvCcY5uv//IkKCsEgYBAIPwRgNFtFCo1YNaQdJMTxZMgRM0EJP84083CSqYIzjJq8MzWYwRMwGHMcHJm4yNaJxAwRwDGAjYDJTOmsI2QBQICgWmKAAxwGj+ThEbpEiNGORk8iYkPkjA9YQ3I0AzQUAH0s0Rgms+DoGvAK2cJXKKZMxUBmC5G10AYEbQ4kxydT1FKICAQCFsEmDHOJCFshhLpJqeAJ0F8VMDRg8zMiaBnys74JDScF3DbjXIZPS4iZIHAdEEAd2M+ZsjlsxgNWFKByRVJgYBAYCYhwAxzGP5MG+n5JF16BMqJ4knBh0rUz08y1IfGyocOGmyPZaaRMziJoeBlvuFgg7NAOTsxxFAIeToigDsw04eZLCaXbyzY81lCIxAQCMwwBOh4x43iZ4A5EVFTyZMgIBBwuFTWzQIlFfhSs0cDUECTQcPfEoyyjPTgUwgCgfBEAHddkCFU0GABcnkBzPgsoREICARmHgJ0yDPtwkoqw6KRiTBR60kwK2FBN2J8y8fGVGaKzKokoIFbratkVu+wPc5i9CIpEAhbBKCfg8CECnoqMLk4CZZYKWSBgEBgBiNgNC3AbAAGJvQIsiaKJ9HbM75JYz5ELw+OGFtC2Rl8Fa00DfABY9CMCKaVImAjBIFAuCGAuzrf25npwih4cGJkMJP00FgQZlLrRFsEAiEhQEeBbhFmgAAZMhHGhydBxXxw1rPAUrdts1DJgAn4MAIgw+t5DRgLQSAQ5gjg3qsbqi5/0rWc8UqMFZZnfMNFAwUCugjQUaD7gwoGCC2oS4/oF0sga6w8CapkBBw6zjLSgw02EDJGACDiBWrG67EGuxKyQCCsEICOiqMCJRVwlpAxAgxQTBJbClkgMBsQwDMGDAfccKwEMoQF5nD3mHgSVIYFHA2VcS7zE9Aki/cjNBQuE1QZPCEpoBMIhCcC0EVBwHGCkpk3sM0sl3Uh0lXOcqBE82cPArT/Q3thOOhqMD2iMkOSxvR9N6jbyhSGjUGGoIUACFBwIGkuAJL4EmAl1pu7ErkCgUlGgOmoOAmRYKXozAALFjBEoNdVQq4QBAIzGAHa+XEDYTjoKhmexOy40dzRryeZ120SKxScbROfecPNc/EFBnkURaCsEAQCk4CA0RjHXVdXhthwLiiFAAgY4QN6sBSCQGA2IKA75+gOB6oEnqTLkMaNJ0EEugJcGD4Xsma8wLedapiGYzMmSzcZqr2uE6EUCEwQAtA/ef+QhSc1XSU+iYmNeZ+zU6MLGlYK0GZnxxCtxgjAiOCVdJfNhCSN274bBMELfFjUButnvMzDAhrcdl0lY8AkRyyC7YUsEJhMBJjOiW/YTBZDhmguhArGjB4MZrzAIICR1IWOt2eKzHjERAMFAgwCMChATzXmDCmE9SQgXNQjrQZqHVGAsGangPHRndQswoL9MLJFD8JMIDBpCDBdFJI0AKMk6Jn7upF+0pozhRXhtmMZQsJKcxmKCEEgMO0QoH3bKGxmxtA1g9GBb8Sw72YijHA+CTMkkCECqBUE3SxQzk6BBwdfJCtXl7EHhyDMTmBFq8McAeifWKAx427P5DJJsAd9mLd6fMODVvMCUxFjALlYD0ohCASmEQLmfdg8FzcTW8IUZEKPIMuQJwEr4gWoAEfAyBAQo5+FSV0oQEkFK7AwRSBppaywEQhMPgLQRUHgY4AsmFWwBpT0pwJffGZrMBS0pViDwWFyGVhwKSZLPWR49AAAIABJREFUJAUC4Y+ASQfGWfyIYJoGxlgPZMhEGJkn4cKUM+lGA0oIhQo4oNkpY0AwAlgP6GEDXh5FEd6J0AgEJgEBpq/SJFMvtoEsrNQtBZYzXsBQQGN1lTQXssCY0VucZ5jiIikQmBIEoD9jASLBSpAhlxeMbDDDMZL1eRKsIeFioKT1QRxQPS+AzYwXmLbj9uIsrGd205gsmhTzmi4sQjktEMA9n8pM2NgAsrBylvd/DAWPD2hAAHvQUAH0sxxPBhaRDGcEcKelMhPtiAZgD5agwQImOUZykCfhU99AiaAYaJ49e8YEDUEwAg5lBstMq3GStprXABo4i5nCcBbYC0EgEM4I0E7LRIh7skknp1lgPDs32kyggyyAiEcbZ4E9/j2GlUIWCIQ5Arg/M1MHjRwMTBrCDxPGGEiOiaDwJEqDjOyAJEmSBDwJxw3hjhgTE+J0TzINZ5LQOqwHJRWMsoz0THGRFAiEAwK4u1IZR4VzjfRGNth+Fsp4msWMB8MFNoyST85CAEWTpy8CTAfmGwI9n8+yrjGiPVg/Mk/CJImWxNFbj4a3pH54/TTS8FBgDVxFXSVtJs5iGg5ZjF4kBQLhgwD0UkZgIsS5OAvrQcYGQsYIAES8QM14PWiwHyELBMIKAeilcNOk4RnpxzF4zIeMZA1PwltvtABPkiRJwqEzrRoxeqYsJEcsGIYGEDwDgq5eV0kbBVlMGxm3TK5ICgSmHAHouozAB4YNaC50bz6LLy40ABrgxiwvAUQYT5AhVwgCgbBCALooFiBCrMQ9HwzGLhhxI6y3xJNwgfHiSbR5gMLYWzv5HiB45vrp6rHSyH7ymyBqFAiMGgHcpa04wfYgWyk4q2woMhabDDAypbDeoithJhCYfARwR2VkCAbrQTmOAkNvdJOWeBJeZ9I9nxRS0NBsWoomQ/IQJsbQECPeY6LHWeAnTNolwhAIWEFAt9+CEgRwBRosQO4sEczbbp6rC9Eoiuj6EUqBwEQgQPunrmfcdekNEWtwESM9thm1rEuMGKVVngQbcJQnjSIm3FQqgxPIAs20ECBsTHqMFsNpi3ARXp4WrRZBCgSsdGbcvQExrGRGDdjMVIFpO00yjcU2TJZRchRFjFwJvUBg3BHQ7edGd0ncmfH8YKQfl2gZSqSbVHgSfZANrxtRa0yPQB5dcNBUjBF1hbNG53yqSuFrCTFAc/hcnMXIUFwIAoEwRAC6K8QGmhEFKMKPfZw1g2UTiJhWU0tGiZN4VsFusY2QBQLhgIBJ/9TNwkrcz/G8wejH3kxdYsQoR+BJDFuiyVAjg8bjgqCkAs4KE3nUgUHTdBsCuVjQtRRK28KkqGUOgUPE2gOL5k8ZDrijUhmuCJ+lqwH72SkwmDCTvvV5n/HDJGcntqLV4YwA00VpkgYMWUwS9Nh41EPGCjgMJdJN/htdJTJaT9ItY6VusIFmg4YKRnrGbEqSEBu6VKc7BwN910a+V+GyJsFbNDPxMN5Zq5/flDQv0mGzr35+08tz7Q5b5IZIKthHbjUE8+LZdm91ISTHJMw/vOtimytxrcZJ8tErFQkaTSjh6RdMPnql0bV27H7MPEQ7X/3DSwusIJmQ98nRPVpXi9wf5RadWqBV6rdlXG1wL2VkqB3rQUkFyGL0sy0JOGBKhJVYbwIOUwQnTUqJLIHAFCKAeynITDygpwMBJ/HQAD1TfIxJXZLDKBWeBHtq/NYbU0CSJN2wQmoDGFNB16EF5fa4Nxu2bbJy7wnBholNvU6ld4ekhzdG9oOLQxPG1syRK4WKxiB4kjvu7dvrsO390OP379spC20Nq0O870ZfuFdSVzSGMKCxcXGnO4+nJ7Gu0rLqqxNZZYhBssXTsuo/PrR+jE7Mi691vdt1Jm8PtM5ESCzqynKx3gzQYM1M3IachXsyL7MYcpHgIiMaz2wDIyiM9CZo4CIgm9iLLIHAFCIAXRQLTDy6WbpKpuB4JXmGw2vGnyfRFhq1AdpPDcyNjZyo+gO7KrtTXCHfANTibEGIjRFk+5B5EtSCvYEy/ITD+3w9yRkO21stJf7e1Ddl4Vb1i9z9zzzyceNJv6s4frU2lt9sSsu6dCbWPIaQcyeBJ4UAY2KRLmkzACRiZ8XhvHMxS9jOHDIIXITQb7ErUKq/H4L10qwJXSHHkUwj2Qg0rOfxNGkgFDSxEVkCgSlHADoqCHxIulmgpAJfahw1PCviNeR8El5MGvV6Eo0bmqcmly8+2JB9tdtb1134XoNz3XLFYGXuwfeI0nu1LS39MJ0jlqQ3Zxw9ta2sTdb73Ls3K1gsy3Wdl5V13dmF3ij53hmb15l3ubOgrttbTYS8y7Wx3ESvFH/N9/CnL87aHbZ1TX1UeMX38On9GrvDllDRORggoAwH/tnb6IqIUsK79h+Bb3xVf/v7r/96JkmBviqHzR7kSTEn2x8OPelrzImhNR6suas6Gfi8Bpx4OgYHuhqb//eQDO9Pra8R50pIRqFa0e+pzcvzxub5SNtrCHqKz/n7nIWyElCKPpNysfK3dodt/ik3FZZ4Uy5dNgIqvq43/S1H9IV7Ht89T/mBeYXtysrQ0mO7r98r8feW3OnxVBc+HwyyMLnt5ubUDzNv95b4e4urPTY7Ka6Uijywte6ep7ookuzlOWxxOfsUJ/cyL+SAkxfPtmeXFcbX+ov9vSX+9sQNyn13WXZbQX6WDlyR0S8hTrC5tLAo8yWb3bG+II8KzjOF73rW2OyOl14/eumz8vqu8tpbJ9K2wO3892mNnoxDiYVNpfVd5fWNrpfsDluQJ0VvPZd3pfbV9Utl+wVr3JWFtV3l9V2llyoTVwV3zcjWmPuVQ+9+IvuveFknTkAp+eiVT87If560P0IYjvW5WTS8+k9OvPFKNPLwwuI1Lz0HxYPC9m3nu1Nc2JJ4+21um7eube/GoGfkavRKGMi402IllaEuPosxAMuZKvAIQEtxFiipgLMw1GA222CEhgthBiDAdG/dzgw20F7QgABZEyHwrIjXjPBeAL6A0b4bNABjMWdnbcHV5m1xq+ZErHoxtbmwmqwQzFlwzHXJn5OTRg7BrPCmVHemuOLmREQty27zVn+0OS7GZo+JSm32XqXUJy6+pDs7N5UYL0zdW9l9/CjsxVhcT6r68unjzkyH7cqDgPTkrtdhq7gf+Kn7iD2ldVAK9PuOxEbNSaj4638/++ffSpULc6NfkqR/9jadzcxJP37qyCtBnhRzsn0gEHjUUaqQJHte50/S0Dc1R9Y5Yo429j2VfmxxUydv/23o2bNff+yq8mTmHCnI229MkkjD62TWqPzbtkulC4BqUHA1eGt8exO32+zREYm1uXXN22IcNnt0bH5nQdm5JQsdtoUHEs935+am2uwZrsty7s7agjof8bnlct75c4uCt17NfXT1pR7PhbT4hh73hZvFdUXRF+7lX0yz2bdsvdFbXFdG6M7SY/tv9XouqMzMXpTu7y25ddN5IClyU9Li+A1BnhR5YOv1nuKmymhKkux7E5t6PdUe4iS+MPV2b2Y+MVbs/T2ZZTkvbkqK3L1X5U+EE2QkxwVbbRDzwhxP7Z8SbPaVaY3l9dWJz9lfSr5WWviq47k9aVe6Ct9IfIEQpsys2s+yXJT62GPf+Li8/vaJjD2/X7525dpYmXYoPCl66/nC+ltHE1cosCT+qbT2mmttpMMW+fuM6+VXzv1BjSexqKu8vumoa/vK5WtXrlpDiJrhX2T08rUrl6/dV9pV+EaCapaYcuWzE+41JPlS1onazzITgyRMteF8xuZ35nkyuIpiIqJY8sTZGPrElpqRC78Z1H6rDA2kh/u6bhbk4ipmqjwiAtiAAcFKFlNEJAUC4YkAdGYmPNDz0wLOwjLjYeKSuiSHUQafd2MyTJIjRgytjTvtP3XyGF2Kt9mTYty5y5Y4bDtrCy5fXiXPv3MiohZn+LxlZ+ZFREXntHmLTinOl5w5Vufb9e8Om13mSXm5UQvluT5q+6JlMWoAFnmSs/kHqe+Ko+KrwKOfngx84k76ZDDwVZUts/uRNNj6ioNGu6rmP5798nUFvSvc6JeGvnhbvSXI1cnrSZ82PQxIj/4KJMlh834xJPU3rlPuQ+kdj5/9f75VckHCk1SZ7xxqEyzdwDTGrgZvZeUy5Saa4brcffgVsmKUUofY1c7aAmIT7TzT6d7piPG0ZV/0ZSTHRSQ3691olRheLPd7L13Y72vfuvVCtu/DfbW9J84m2TZVnvC3b5Xv6CSM4zeLg4eWitL99/Zr9z3l9aQL8XU9JX+pVkkSPfPUEq9wJkfk2faShjLaKGKvyqiZFq+sw7Yl5dJ11/Kl+95tKrx4K22zfWPeJ57kpY7EP5VeOb9Rdbgm42b5uzmUzRCeVJqphZ3wpBT3mcL625kulSTZFiQWYWbz6tHaj1PUM0yJRV3vvBFco9J64/iNHIbWG+FJnrQEum70wuK1Kxda4EmET8MA0a/FSiT6NjBmVdDIuMAyGDACbwOaWSIwgDBJCgJWMrCMLotxIpICgalFAHdjkCEk0FAB9Pw2PVhimwmVTagOZE0oT3pl13v+7OwDbCPlO320ykLmqMlochvIV43RjX9ZRmKRr6Cmu6Dal3I0Cz0gbfVu6vnrk6G/1nT+NNhacz/Q31T1VWCg2alQHLvCk+ZQxkNvPwY8SUYt8PBGihqkwyavPAGaZBPzn/cowSI86T+b8M0mWEp7k4vYmBvv9qI/mU1qbYJlNTxJRWBDZbZmRarbW9fgtDuWZPqyM7O2nW/evPtybtGpNZ7ONLfx2sNbLSUNrZmEBuW421ozr5NtOPlYd0s8BENOeUOS8CRy9Bty6b4b2UHrLa4rUheHlDNPZOcO/nwfRsulgvt0yInNrrZLo9RUpFa6tagjc8+rRy+dT0i+VvjGnn3vymzGVV2OjzGhJOFJRWlaV2lZZA+OLBEdWg98JeHQJaoM/gvHq7WkZ+QgHTY7W2RV5tGLt0rrO0ovXT/qfpmse434N8k8CeLhZy7QWOne4IcXwA+fNV000AQMhXUlbaauPXMLmS6AiDhnIQK4A4PM4AB6PFKoDc6iMlN2QpP49m0kjzNPggbThjmL/LnZsE0T8/yqHfMWRBFiJK8nUeN5rzV7z5+LjIiSedIpFcRTr9e17XZG2ewxC2K2R5AzSdERv8t1vUd3lOhNxfLd9MqDQH//wNAXb9ubHj590Df45G6Bw1bwxZC8nqRcg4r7geEHVfR2ZcCThj4vPXKjn2zeFTtxqRp1PQmaPyci6u3Pn0j9TVYu8KJXKg+fbkB/lXFkK83gT5cnLTmTUedL/B1XZGdtQVFDGllbOnX4Uu3hMrpEx5nRulwf5vt7S25cmGffsPVGbwnlQDurPXg96bUGb8dNdVnFgCf5PoyOL0rv6PVcSFNaQUup60m4aWPmSSvTrhcWVRcWpTnWegvfrcy88uetNrtjz5/L0XrSS8nXyi+eWinXa8CTyC5Y7BtN5bXViYspGkv3vduVlxGnixVLenCLDGRNkeeWrFy+QuZGkdHO3BO1XSfcyragbnWKcnJ4kjoAlUpxl4amYSVjDzZGAlMWkkb2Ya6H+BkcQA/xg4YKoDfnQ4xbXErIAoFwQIDp2Hz3hiCxJVVC94YsMJ40wYgbYb1VnoRfs6TbJF3lvOSPvNUNG6PJAv7cTZdz6j6KfzFqzoIsd3Xn6wd3kCKL5CNH8uPfdN+N+rHZCU/atSHKZs9yX+1MO7xdRi1mTX4nOt4bt7msO1fnxAZ3s3mlfUCSAl9VzYlwt/79118ffV1B7oXy0aLPK5zkiHdO8w9S4Lsa5dSRAU+S3wvgJAQo0N94kNZS8eVTaYg6sTvTm+/31KTQa2+dJ4XWIXR5krw7WVDkpYttczdVuOn5bsKfKERxm8s68y5eVo9VcRDZHfIWW6/3Uo7N7lh9qafE3yrvlMlHiy4ek9+olLS5oaf4A3JeW/4z4En0vQCuDz3+nvS3tsiWx/bf7vVQJ/blkScb3MepHp37VnwqgcWd7s7O3KdWpBetar/5/Dv1XWSvzbYn7eInZ+j+2nOvHq29nUUPAP0mMeVSV16awngMeBJ9xGxFYtFtshAlH6N+yV1LaBN96dFvEl/NO0X1OotDEOdzW/bl/fkQnHACPbOetPxUXv3HKU6ZOD63xvVuV17aWrM2Uj/OIj1MVmfEuzOiVDRQjWYOYXoCexi/TBbowZK5rzP22MxIxj6xbGQfznqj+HX1oGRAM9KHc8NFbAIBZioYERDcz0EesdREG2A+ZCSHzJMkSYIWMqOdb8+ciITf5foKavx51d3eq7692zYrZf94LqO6u6C6s6DG/9apt+gL9OjPZdW5wpPmREQt2FaZUS0/13a1u+C92lj8guaNFdk1JGukR37k00WNZIvtSMdP9NgQifZgY9+QJAUCgWEpMNj9trosRHbTdM8nKe9PSmnsD0g/f0HtY076Hg6RJ+YCAUkaelCToRyLmVye5LAty9hV1umt6SRQVzcnbqKnuA7vrZQPMNkdi9KbvWe8/DVCGnIuO7uQnLAmD7vBulFcYbKvt6Sjx3un13sDjmY7bOQct96+m/r+pOffain2+/e5lpMqdpSl+sgTc96O3hLfTWe8rMTPx2nv9BGHP/KWnYnQKlGoQRLwXOaJ+qZD8lsiEwo/Cx4bWn/KU9tRWvtJaX3HO3mHYLfRlCfZHc9tOXSpq7QoTbZf8fIb187Ud5ReuV1af9uTIZ8Kl2PQLA7hqAgB6irN+5/B8NRcbRHyJN079V00vDPvBhkYXxA0Ga7LbXv5t4W5Gugeq1oR2OsL6vhin760qMdmVLZYLzYDJ6AccSYBy3AToC1ME0CPAwYlFSAL60EpBIFA+CMAXRdCBQ0IkMXwKl0DbDw5shE3wnqrPAleHwDPuzHzAjSJNl6TXBC3aIXy7BKGZu6y7WQbTj0uCgXBBgSyHLVs+wJ6lJu9d8YsiNlIVjtG+gNvUBEtErMnwwUPIiEnYD+iZ5vdEbMn49AedTMOObFSdjxtFm5E59xHxiSEqmOSnrewNzSCw5ikyBiFIY1gOT/LXa23kxgatkbP2IeCTGS0skdmreqFS/QOGy1I1DzvRl0teOkl/VcA6IW3u7bg/Dl+3SgiuRmd69criMKGLg0CXAXQwHikWViPZSgYkoA9UBmKQxZopoVgFPaIejBghGnRahGkQIAiwPReoyTAxRtA1lQJmA8ZySHwJEqVgCcBN+SbZ44F5IIHrKHeQEMFvopRaBifzP2Adwj2fJbQTAICC1wNuWe8k/+xjvFt2sI1K5ev/YPrT4X1t1LIDu/o/uYf3vueb9dGWBUDP2udRd0Zyeqbxiw4h14NAoTEa2gW6EGAIiEJTHGaZKoIyWHYGkNLdScZnMvIYdsiEZhAAPdVQAMrzWW+CGimVjDiRlg/Mk+Ck0mwpAStAlxAgwXIBQFyqYYm+VwwG51g5BD0IJj7BzPdyc68rMgdDwSil6U3u93a77tZoALjUTUQkTEKK5NryUsmL1a/Gny3QuhNWJb9UfC1q0zx+Tx5Gjlm3Lehe4OSBxCywJi3MdeABzADDQiQFSbCqAODgkZwYQOQw6TVIgyBAIMAdFEsUBusMZcZn+GTxHzISB6BJ2GSRF08e/YMwzFia7ExlfEyEsgj+rFuADXiIqBkBGzDyNiSyRJJgUCYI4B7r+7dmjHAyfFtGnjm3Zpk8caTrIHYqBBS7bisSUEwM7ERWQKBKUQAuigv4KhwrhU9tply2YgbYb0hT+IZEs+TLLYQg0hloEeQZdGVFTPwiW8PoAypalzKStXCRiAw5QhAp+UFJjbeADSMpZVkSGXBmApW/E+aDRNbqBHi4jjmUP3gskIWCEwJArgz8/KIIUGRES2n0ADzISPZkCcZFYD1JOsNgwkCowYyZjPWfZpbgnMwYzSQNK/dohnUIgSBwEQjYL3H4t4LMh8eZGGBN7OiseKBsYGkFf8TbQPBMEJI9eKytCDWmF++kCoSxgKBCUUA91uoCCuZzsxk4SQUD0PBiOpg/b/RdSMrn78FG2i/xTZTezCm4IbqBIpbEXjnfAxgw1xs7N+KDbYXskBgQhFgujFfF+6xzECDrBFLmYwIviyjgVrACY4Z5zIGkGQcTk6SCYxJhhQDU5ZPhuRNGAsEJhMBPAyh60IAoAHBJIu3AeOwEjAfMpKV9SRztsTk4q0rKw2meDGWYwfRxINJFoQBNrhnQC4IYAYaIQgEpgQB6IpGPdbEwCSLtgUbGPm32GpwhScKrAQ9U7VF/+NuBrFhAYIMFQ3shJHHPXLhUCAwjghAd6U+jZKgpwJjjHPHMbaJc2XEjbA+uO+GDyQBMeKV9L0AgIWV6DGaVuyt2EAARrMYGJh4AxsjJ3SuNPEgsgQCk4YA7q66PRYM+JAgS7cgtac2fNnRaZgaGeeQi+mISWyji8F6KYgHxwBK636Y5oAH7DYkb8JYIDA5CJj3VSaXSUKEoAdN+AuYDxnJQZ4EFpgbgZIKdOuNttw6ItRyfPGC2o2cg4FJvWAze2ex+dujVug/WD53IX2j98gPmZsgLLLGFwHzHqvkLoqTv4fIXjjzsmycm87JHxw0/dQg84YClMR1UZn1D9+fhu9hqwJYGhUEg7EJqdvoRxVTU4Hc2OxxUXH0E0kEPWhFSBVBKRBCKi6MBQJTggB0V/5uyGdhDW8/YvxMcZocsdQEGTAkRzfJ8iRYSdK1prl8I6EBug0eBY7g0GZv7Hs62FlgNunr+ocgkSvWCZ4KdZ2YlzXJnRubFBlPPgBC/iI3RG4aj5dZo/uQSdWhZG12FrVlvM59Rm3+4V0XO3Pzc6f7Ox5DgcJhW3e6+fsnSrf/rhHKuqq+GHgqq4cf8/0QzCZNgI7N91iaNS+xMudym2un8gZ8CMykINgEBfKx6o8S3bnLlpiNmqD9wZq7gwGK3n91nFZjc55s7v/nv54R/fCDGrkD0zB0hx5ECG5VPzoxgE2oghpAUozbm3im01t0CnnY7jzTluJS3tvJx4MsDUOCUhMRvJUAhI1AYBQImPRbyAK3oAEBsqwIUIoRrJQddxtlzjf9X5AnwTFteJ+kbkF43o3OAtBOiJ5qIEknRJwMUW56KD2562VnJagXBN6tSRYYgw0VQB+SEPnmh6nFx3CR+Lpe8n00+UOn5Ftp/t70t9gmYPspkZdl+vLys/iqyZfgNDePsIucj3nsmiMdj6Wh+2fJF2yczgT4BE1N37A00JxDvh+csGP0L9QOheNCn9RtFOTyt+Fg1u7agkuXf6utNJirfilI17+i1HxumXQAXBzL1L7qO0n6wZceGzUnYsfG/0G+e03+MrsfSU96yskXr2MSdtBvMENZ7FOxR7VQDTWG3LELUDtFj35TUuN2yanD1c3bfqdpssZAiyqfBVXwWUIjEAgTBPjZQ3c8YiUuAp18dCMUilM0mOQkQ6TLcxgl4Un8RhujwUngSdAYppE8cBhfKGVZmFieZNQPLIdH5tPoC/dK1I+/0oKEJ/l7Uo8vt9mTEpt6ijvCjyfNzz18Vf8DauS79NkHQkJg6o03nnGfrtR8I3mk+xkTc2O/NPR5KaO0eb8Ykgab4QPJIfpkvY1UHIYSFngnRrlB/YbKnLoGzOqCWVZIkt1hM+ZJNB5wKCfJd6YHmoFcyiTJ7tD7nnSQb+GhB20Et4wABmMUsFub3aHDk+yOqKO+gsJcHJ48gx2Iz2twuZLGGIAoLhCYWgTwEGBuzZCFIwQlL9Axgo2ty+ANijDBgH6iBYYS6SaD60lMNl5eYrgUbSGOHtqMBdv794e+9yXZHXO83Y9kwVb+xaPB9iy7I+ZoY9/PcoXDTwY6SukPTZvd4ekYHOhqVLc/Hre+5rDZgzzJVXX/0dPBzhI3vTyuqnsDT2WS98vf/1qVoqJ8unNwsLPG91D2/+z/tR8yvDEcSLzRnvx+i/dOb8n/ul9QW7ZYXv6x2ZdHZt/03Okt8fcW325NpJ+7J9tnaVsb/MV+ovde/3BtnHwzyL7pbeshHu70EKGtJzmb6OPrerNvtBd/4LFtrT7R1pLepPKkuJx91++V+HtL7tzLvJDzvHLjXB59upXWWHK7dV/qFgXbuEJ3k2zs7/UEw9uy/v12UqO/t/hWS/wO9bOycTn7/0KUxMP7Ld7qQurk+dQPM2+revBMb4Tnzy3Su3Nb5UnLMnaVtXnrur01bWnZGeom3ebY3Oa8mm5vXXfBew3OtfTwU677cm387trsq0SfV3Zu2XyHzX4g8XybayecjkrdddHn2il/pWTjmZT3iKXWc/Sy1z+iHryXP9q1TfNRsyWZPm9dpztRvUPrtYsAklDRSbeHhgND3zS6ZDNPx2DgaSAwLEnDASIo+7yNfU8DAXkrSVYGAt+om3EHG7/8h7LHNPS9z6OwKKenuX9oWO7VP/c3nwTS0Nj39EGzunkX+KZGvi4Gxgdr/vr3X8nPkn/9+uPfalzykR1Px98HuprUsJ/01ZCujv+U3iK3RdFvqMyua9io9nxsrA6TkYDieJLN7liV0fjtf9NNNDJsV8lh1HxDQCPNDlD0yP7anMLuAYTer7/8OtBxmjb87U/IThyZXp4O3pWHLQnvkLJt9+xfvw58XrNfbaCn4+8/djU2/+8hGVY6IWh2SBH+juAOqexZrk6eDW50KzunPz+oOaiBTpcn2WLOHa9rcM4PUjoC2hJvWl2394zXyie38RURskAgrBBgZgM8IeAsHDPWg4wNrMtQHAQoy2sga0IFeW4Z4R+rPIlSJeqMaQ8kGcH2SvvA8IMqu4PsaAz3N65zJH0yKH1XY1tX9eVTaejzCichTL6HAenhDUJ9bHbH258/kaTAQFeVJzPnSEGefBtTeJKr6v7QMLlJUMs52f7/ejbUd+XNVREbj1z7j1+f/b35FTID2uzkp60UGOx8/3T68Tc92cCf+BvD4X2+3uK6ssg/d9HTAAAgAElEQVRIhy2+LL2j13PhMHH+WkO+37/fvZoQppMtxR0t8WtI2ZXv3ytukI0jkzY39BR/oBARo/Wk9MIL2R03t5b5vZcu7PNRnrQ3sanXU+2RayxMvd2bmS+fYXI35He0bo5fTmrMby1WNuw2bL7e63n/GJmXlx7b7+s9UbbXZndEFreX+BpWLnXY7KtXvn+vpKkykkBHjIuvX3hxqcMWc2z/rV5lfWtr5Qn/veQjSZT85ftbN8ttsdkdsfmdeZ4Mvf4Xt7ms+3h68DSrno3DZk/adr47Oy9r0XyHbUWWu7L7eDr5qb0otdlbefm3Cx02e8xvc9u8ChU7lVLXnZ0rG0dluS8p/qOO+rwl3gj50tu2XM67fFlmzFnu6s60w3IAK7xpVzvdO+Vrt+ly7tWP4smp8+hFhz8quFobS8gW/EVHRI148DyldVAK9PuOrCOE6e7PmgUk4/Wk/sZgLQ6b3d38gzTUQ3qvLaHiyyHpUVeeze6IufIgMDzYWrDDZt/h+XRQCjyoUvhT00NJkn5+0FiScyQzJ+so6eoa467H0tP7Z0kVeZ0/SUPf1ByJjVp1tPHbX5792OKeExH19t+Gnv3699aCHXMiErM+HZTkMYXHGgJBvbUv8KbVte3dqOEEtAg2NpO1PImUjSXD9p9/q3BGRMGwVcMgg+7hDbgWahg3/vPZP++9rZIeUl35/cDwYPNR55wI55Hmv5NDS+sccyLyOh89ow2POVrTNyQ96iCQKm1/9uuPXVUnj7+pTgjOqu8C0mC7J8FhSzjd+Q8p0FNBPGeTPb6+KzkxdueRaw8C0mDzKw46GwR+oMZ5rYPSs74aNWYCjj5Psme5r3a6tqitkOMnVUTFCZJk1mc0wyTYGUSRcEMADwEq0wixHseM9SBjA4sylKXkDJLc2u2kdp4RKJKcreFJzP6a0ZIStAoLPNBzIkrvDj3uzHS3Dj559FPgywpHxVeBgU/ctisPpKf3K9RBldX1WBpsT5KThCf94KO/UymIynpS8xdDw4GHNxSSRBjV34ae/WfTKvkX85yInM5Hz35sdgJPGmjeyMSjdyEJT4JjQ+QU0a3qF+2O9R/0eC/lqPZ7d/+lN7uQsBnCk25URsfI6zdLXw4e0zbYd0t/a8PWGz3FHT3u19SK9n7o8bfEK6tWjsiz7SUNZaQiwpPaE1303Pfq5zclzSM2Mk+qLlxMKJHDFpMUGbtajUpObkqKzGjI97fEE+iK0v339ruU7gX7gCDIBZMSm3ozTyrrT7qLRhEbcxPzfHmXamP1Tu/+/+y9j3NUVbY2/P4ZnWI6DvhJOlznCoxm8H7CkI/wMuJVfhh+GUuDYTCAEa9BYwgEGwlG4Cp6DUzikJghKYUiM1AxyBuCb6JXrIlXiDKX6yCORupOjXKtMkgVXUNV+qt99jlPr957n9OnO52kk15WCtdea+21137O3vs8vc8+3bHWg6HAL/dXtnYsdtxyF1Ytup88kshfOr1g6fQHG6vspz/b1reeWrHATq+guie80zo8e3t4Q/Pbi0SQWfN29FRViTePnL+CaQVLpxcUL9njPAQUPKljyQJ5PFlYjW91OdURhwjiuMyVLnH7FH8FzXHjMDme9Gn70+IkU6hgVcXGtcsCwVD759HIJwed1mv2d7Q/bzdkEf06kkawKL6t5gs3r31QF7Ke8YmPE3Lkbzz93fBfxFyQQ91eUx7qHoxe+6A27hZOPxE6U3L2rM2dtQ1ty1eV3eLQFMXNSZUmRmTCk+ym5bR1oslpu8IuqjzJDn7kcnToI/AkEcfiSV11pdYcX/bwU08Wzw3l7Pjoh+FvuuzPOaHiuvaO1wVPsj84fdWJ/WahnBvbYBbFNy6KJuRHrMvHHE97QZA8CQRuxTtXhv/nbLXThZzc/FmVp0xH8R5Z0dC33ppNdt+dnTm7X7FRShBjJSMwoRDA2JaCs3TYH670oQ5/3eRHY6wOJXLwEyq9Pgl50vDwcBxPQgVJmBSehC2lhICiG+2fRy+1N18YOt/8zpWhDw92XbHuB3L1xJAixec/vDb8xbF47KyP4yKzax/U4VlGqP0La+veyXh4ePiHf3/JqvjS+z8M//mIfZIUoZASERz6IjN57nh955uzrEdm9saSpV/U6uwz5T2yqKl7+5mB+tNnn23aI3ZunC7E0xGhX9QqGJjgXifb7go6DT13XDwXo39Wi4Hg7Blbjz57Ujy8237s6OKVDh8q3LKyrbfuzEDdqd5Ne6xdqGAoULhj3Yn+ulO9lS3Hy9/qrZM8STIwLR/rmFRci+iakSdNf6hh/aunanbvzo/bqon1FF0OPNQWjj8BY5tmVpW+1lPb1Fmxs62svrPWxJPIh3hBj556ojgQd1hq1sxNb9c09VS9/HbZzranGh2eFJyVX9ry1IG+cHNP1cstiwoT7h5paYvDRmRzKL4Yz12cuvE+dh/XNvdcviae00WuXXqvWexOBXcqu1MxoMiDY0dpbXk6Q1f+X9zLj1yGzp6A1mZMHE/KPfbn4aEPwmJ4Y2wbCdCtq1oqmzorntmWZ9ECp2mnX85QcdVbPGmWQymEmzNP7XaPXJZ7RVYET54Ul2pRdcd/fjskHnH+8N//2SG230I57ZeHh79oN3ER8cHp8rG4JMUVUf4T17Q9Bp6wOgtCXGI58ftbDk/aHhdfIGPgSUaQtYq+4U2IPzswAiNGgC4RxgGsONBiese2jKzHRIu6acw0ympCiyBCZp4kXeEEwiQ1sgNuPafd23j66tDly0OXjxXUfjR05eKF69Zdqv0y3U8SD+O+69uIbXaNJ/15eHiw4xmxYkYut6+1V6L9/3Fj+EK78/GR3jNsniSHhedlcOiLHI5buyRPKmoZIPtJCx44MvDsi+K51S2L7Hf7p8zb8MBb/fVv7bnFGcduPClw94ai8tUB8KRft4Wdl+AoSrG9ojt+ddfOrjr76Rg2lmbfsmxH6YmB7a+LV+rEdleTs90FepS3Z7NpP2nOgbjng7RRI0+yHIqXv9q3oUx9q5zWFbI4AfN2EehU/tLpMwVxEY/zapzHedYpGes0cdx+EuFJocC9jVWv7p9Z9nbsAZw4HdKxeKZ9oWN5Ok0Eblv488ffrm2VG1HJ3JlqxaFs7CcF9p+PWM+wZNd886RlJZsrigU3Kiquav/4e/u5T3x1+MQdsHMwLO26Yj+tczRWL6x8mq2ndRi34tmTxRUcjeBJ74cTPlDbVtYqnhzFxXeGqy8l4Um2vzNtZSbF73wjp61ljaMjsfjx1EqccLK230SEf378xXev2I/Lw2d/GP4Gh+WxRWfvJyk8SeyoXe2xTgHGGgqKveron/QFIZaYaNThSWCZ/veTjLcZmgDLjEDmIOAsF+pCoWfo31Ovq2toNN1KNdRTytQ6ljIlRpAp+XHdTwJPwgluSpXQw8Sd2X8+Eo2KZ23Bgx9/F4nI52tzmy9EIpfsd62tEx70OILFk7CQ5VgfoK0bw+PtlyPR7z96Xj6Y2HfuxvDQB/vE59HA3C0d/eedE5px+0kkTn5gZtWKnS2LF+LgsOBJ1a9uEBHyNqxxiEig4qg4kyROC4WmlLZV93Yvf0AcxxFHi+RpoeBscUjIPhgkbkVy32iO80AN+0kOPiBkTz58cqD6VevIkTj81Fb6lDiyLR7A2UeOQoFFDZW93cvvDQWC1etO92/eLh9mzbmnqV+cCg+GiloG6tr2iAPgecX3NJ2tt5+7iYd023+7Q+ofOOKcTyrFWSvhv+j1tvny+HkwJA4+y4df2u0zRk00k9OjUCBYvvpAX2WldaJr6tJFu+2nZoU7+2p3h8WZ7qlL76455ew5ufOkYPHyV09VHegpW+lcF/FE79Rq6zJNKdxbccjeTxLfVmCffAoF7txb0dqxpIDwAF/vu1kHgKyDcWLMfBWN/KkZVDue6DiRDftJ5JsCgssOfhoRR+6CoeLj4uiT5PFF+86Lt+Toc7f4L7aQzh1PWPuj9+3v+bTveUGP9uPcXiBYtLHjXL91ZBt7Kta888eTFBYrr+PtZYWlFfnaNTVPZ/Lczb7o9rR9Rjwyu29//w/D357GNw/F6AgZIeoWVMA6qjj8w7kX7xPLd8ET3X8b/q5nc35Oruy49T6HvC7yyJHzNC0upnU+zD5kFgwV7eu7IF8E2Xc+Er2mLQixxEQ3JU+yEJC9ljxJ40Db1rd2rvilGAMAJye3cOaqcOHCRJ8fNHjjk3fGFbsxAqOGABm0Kk/ShroyyGP+KY9b2rpbEPhIB6XoVmuU9OBGoD0KSfLFkxSqhO8FMCKu9mRupzxOEQiGDv4pdmy2oK5vMGK9IHMzKl87kkg9/+9DyjY74Un5gbkvffB9NHL5mPU6TFF1xxfi9aJI5Mbfh38YaN8ovrslPydX8KRLznM3utIFHmypbe2rKMcJZYsn/b637nR/3ZmB+t83zXLed5v1onihLHyqv/7M2XUWlRH9WranvNN6r+20eKcs9h6cpFm/F6a6MwPbLeIln7s5aIAnxQfpPFpksbFA3iOLWsR7bbLFzS9a1C0YurX8zcpTA/Wnxft0dSeO2hTngT2bTw3UnxmoO9Nf+duu7b3dD8ij2YW7yoW+v+5Mf/WJfud7CmbP2Hp8u3hyZ+XWtEMcIZfz897GKvvctKNx5q0/nhQK3LN7fWNfuKmntrmvZpfzqG5OeENTX7i5r7a5p2L721X2GSYPniReww7HfdlPYcEzneJ1uUN94YaWsn/ts8+bT11TtEO8XlfT2CPeg9tkUTQnZ7/vu61tvyCO+Yu32yJXJDuxu++bJ1nvVTmjNypeoZIR1h/svxq9GRWvyN28+vFBnKWLP09jJ7z+4IfivTvxptjNyOB71qnwYKhga+cl65mUCDJ0sVmcdxbnk8ikENGM+0lx8zG2k0curlFp5YN1KhZE40k5ufm/qOvFtP1hoF2+jmcNpxgdcca81a62n4Qv85Qd/9p5aa5ga/el6851udztvEJovdih7CcFQwH5nZY3rbcRI1d65IeloPMKoXVxhz6VC0JcYjlHvpCHmWSSznO3bbFey6tzf2MNGZAOOI+sbMAjYIKqMwLjOs5KRmB0EHBGo/MVZVorcJACvQPCZByrsKKi0c2PEqGkMy1ChkAz9BM87T6UJykMCeQnwXM3JYSsJns4wnRzcvOL1lasmKceJFLWLKBJGyXKouLyimKbIcW4MA1CK07Jpx8HHfqStyDuiLQ98ubcii/UpmOxoDhPHuWmSkueMs/3l24bg+QtoGfDAa8x7JR58qw3Wa/zxOtytyz61ZRgaM6B/vqWXYggHxpaZ8OJv3hhjezikO7EPRcjehIwFmfKzKXTxNttcX9TZiZ/yDo+QmBqoXyQp0QW+jvpRUS7ft53s50LVlWUWKew1eBKDp7ForVbDEHmlj5WXoo9qkTxl5VsXk+/5Uj6F6yqeGyV2Goi41xdFqmJynaLsZcHgU9IfE441DLPpVNKkJyH28INDbPs9yTiZlbRWvHYEf6J+igSkM4xTwclRW+G1CXhwH3rN64V32BJJ7t4GFoun4r6yhD7SSSIdWbOenlTJuz09MmSxr71Jc6up1tWrGcERg0BZyja8zE2oUiL8FGs0EtBscYPdWVOkTWENGSMACVtxdg0lErTiDBmgnEbCcxHMqckeBJqkjUlFQTdcFGAA0zQo12qgYzlmGoQxCQ4PMn3tTcFSR2BtEabN/+3Z7e3vDJnZdmcnce39/avq3C+V8mjdwsbKl9rsL7KKL4X4iuJezZsKrPf2PeIwKbRRAAjWQr6gDE6TCkMlx3owY9vOLXumbejp3Kz19eHIpqYSiVt4dbesHhLMbYoUwc63Zwm4kcRQcYt/4QVvR2QD1YG6g8rVRJZfFeF+I6uXWI/KZah26RY0FB1oLEAB/JI70hMVwTYhxFICwIYq95jPgWrTM9YMeXMlWyV4Jh01E33Sbl1nxVBbLCZBE0q+0moPOWn/+AzAw83QAMfaHSkdJOukXHc9GiFCMVFrx5fXjZZlra84rt2tpW/1VXZ0vZAqfNNlYlW82krWzbIM0aK59TC/DlxX+RIcJssiCldzsiin/GszJfAnEd+bp2pVy/Z1MR7IbQ5GVYJDgfKk3QfpWlZS1GOvIhklARkZFi9G4KbFaRsxZ4W12919wGgd1tsZQRGiAAdrvqwp1a9IW+r7j8SDW1Lyno03QcaOLvVhcMIhSk//QcQGxzChibGk4w26edmuuPnc0eYnKyugIKin8sPZz0TvbruwxpGYKIggKE+BgObtmVsTnGgReAplSiCUVFNWmTaune2Hs0lDOJRl02MwNgjQEes0rqHCdNQ+igV/RRpcCrrdWGVJqVFaqUydcZ0VurqbaWgoY3e8fO5lBXpcurP3VauWZtscsbe0nSVqwiY0BCcdRN8WGAEJh8CYzPy0YoE0KMIE2YiNLQuvRDSgWpGLqNRCHpMDxN1hht6RK0sMwJjjEDCAenmQPX6YKbWFHpEq1OZhoLeQ6n4yCL8YZX5owiHEQoIKOOvXLNW50ZUkzpP2v9vv/Gfq5IWrQgTlNCk/RqjCRYYgQmHgMe8SNgX1PXw1H0UjbGIgLBi2kqN4oBiWgTaKGQlspvezQ35Kw5cZATGDAEMWgh60zDpIzY1k96EUYPg0qoUjVWoJxxoRSpTZ+ilgLojFJSw+//tN5QV6XJinqTXkZovv/zKT65KQsbewscIEG0FnvrIoG4sMwKTD4GRDH7UTRYWWRG1aBwqSwdoqEDrQk6XQBuiMo0PPVUaZelpNLGSERhLBDBoFUHJgVqpieqlLK1UT/2TlRGHhtWDJHTTc1MCIgIEvZUUNIgmhS+//MqN50h96jwpGo1urHC+Etp0+lVJRRaNXYInrNDotWCCMwuMQJYgoE+HhB3HfFHqQq9EUPRKEU/GZS0aEzKqQFCaSGORNgFZ/xAFUxqb5lCMwKgigEGrC2hXMUGPeao40CJ19inT6lJGRZiggQATBN2kJwwfxUT1fmR9NVACbqzY4k2SYue4FT+3s9uK25dffuX21hsQoYJbr+BDHaCUgjRRJXVmmRFgBHQEMF/o0iDdqEmpCBMV4AMljSmV8PE2UTc3Ga1AMHpSK2QpyBxkLZiMQVjJCGQgAhi0boLMmVqVXlATlRU3n0VEUNqlk90jFKpDoHGobGQ2HpE9TEpbSis5ufk/mXr75ct/8UN4xPdxy20l/KvwIY9iW/tRY5bITwpGHyips1FJHSDDkwVGgBFQENCnCTQQlCp6EZ4QpA8tUlmPkJoGMXVBCQgHJTHo5ZqLolKdi4xAJiOAcetfULqjV1Qc/BRpEOpP9T7JjV4FGvAt2sQIZRocoaiyrf2oT9ozIp4UjUbdDnQjG4qgUQmAqCdV0lpSRp9ZYAQYAYoAJgtVStnDpDtDg1qYetDQSQr/EQoIbhSU4PCBHhoI0qQU4c8CI5DJCGDcKoyf6qk8Gn2R8fXIaFc3uWlQBQJdQxQC4BbEv562ImtBk5ObL49vJ8GTPHaM/Jja2o/qD+BoQgoWMKHDukY3efjAmQVGIAsRUKaGcblRfOSU9IMVKkLQp7OfOD590Ap6QTVQymgwKUXo4Q+NzzTYjRHIBAQwbjGS9dlHfahbUvnTIAkrUmcpJ6wiHagzZBrNZxz/bgiOKvJxW1v7UcltwJO8n74l+B1cPzwpGo1++eVXm558BqkkvJZK9kqRxmGZEWAEvBHwnj5GK5QJF1bpKRNALTrBvXNLaKXx3cKiXTdnxQFFtK5rYGKBEchkBDB0lalK9YqcWnf8BKE+brPVo3VZHQ6yR4gJfQqCAg4i6ME3PfmM8oIbqJI32/H6fTePmogO4csvv9r/b79ZuWbtHT+fO+Wn/4AUvQXZJfighywwAoyATwTk9FGc3eaUm16pLotKZNRV9Ma6CZWIBk9olIXPqKdKN9nYCzTHAiOQ4QgoA5tmq5hQpD7JykoQFI1CslRJBtFTUia77uCtQW66m9w9mnnnvJVr1u7/t98oDCmpLaVUeBK4kSIovIpaqUnXSw31YZkRYAR8IqBPH10jQ7npfTaUdjc9H6nRt8Ghh4lqaByqT3vCHJARGGMEEo7nhA5JJZxwKlEHvDbvpwnMXD/O/n3QfWMVJVsPH+/0kuZJSAtxdY3MBno9Od0kNbonaxgBRiAhApiMcuUyrl/UhwYcx6nntg4YU/XvPI49osCyzAikBQF95KclrHcQj0mkmJSiW1jjpHZz9q/3Bsd/bt6eKfIkpRvGXD0a1v09nJW2uMgIMAIKAvoaRCeUPt1odb0utY62TPMEvTOmpPfC6DbaCXN8RmDsEdAH/+jlgGkFQW8L+UgfZRbj0xqt6BGNuiUrK5no1fXc3Hw8PJPjSchJaclNr7jRopKTUqSeLDMCjIA3AsY1SJmV+hTTNd6tjMTq1paulxo/PRpJPlyXEZhACHhMijT2Qpl0+txEW7pJ0SihjMwJ0VIWAAsEPZSSmO4gNR4RotFocjwJH/j0xnxm4ycnPThrGAFGwAMB4yT3Xqp0q0f8EZqM6cmY+roBZz1DmEaYD1dnBCYcAiMZ/Pos07vvNt2oJ/WhsvRRWtEdaKi0yMAEgh5WyUp3kBqPCGnjSd5t6Fwyob9bZ1jPCDACOgLGCaWvU0Y3PRo0egSYfApoUQrGWroJtRR/N73ixkVGYPIhMJLBr08xn/goKwCNQ2VEo0kaHeCZFgFNoF0lYezs6PqkEjDsJ9EmkYd3UFQxusGqCEZnVjICjECyCGBm0Yr60mB0o1XSKKMtCG7BpQO1oopbF6gzy4wAI+CGACaXMpWgVyomdKMVFRmhpJ5aYUqvQJtAo3oT1E23+tGoPAmNKYJ3LDgb3WClgtGTlYwAI5ACAnJ1k/PLWB0mP57GCEkp6UxXVl49DnKjJhoBeiihYYERYATcEKBTT5ll1KRXx0RTamF7BlWwnkCTLoHm4BZTSQ9VFH/FTbH6KcbxJL0ZaPzA6t0eQnm7sZURYASSRQDTEwKNQJWKjFkJgVYciZxUQOmsNIcIuqB4cpERYAQoAnSaQ495BE1CAVVoQKmUdamcMJpPB9ooZGNdpXU4Q0hXkgl4EvijkhBNWsmJmlhmBBiBMUAAq5gyT6FHDrpGmtI+i40BlfRoVsbEEIQKqMUCI8AIKAi4TTHcyhX/hEU69TBJdSFhHJ8OtDnk7NYpXU+rUyuVfWZC3RLzJJorrQkZmUGDKlTDMiPACIwSAli2Ek496jlKyciwyrKAIgTaulRSDWT4j1nmaJoFRmBCIOAxfZC/Mn2UItx0AZ60ldGblYiMTKBBJopJKcIf+oSrIvU0ysnxJD1RZAATspSCsVVWMgKMQBoRwOzDfHQLTj3dfPzr6WTXa1GrUUYVXisABQuMQAoIeMxro8n/jKPVaS0qp5AwqtD4bsuXbEtvERrqABlNuIWlDt6yL56EZpQuydBISxe822YrI8AIjAYCciYaIxunsNHTW6lPdj2y4oOAVK8oUWSBEWAE/COgzz551zZG8FgfdH+3yEa9Xt1bo2eCxUGpaNRD6SYoQVIu/i/aW9qYEtHNRPVUVqpzkRFgBMYSATqvabtueuqTUKYzXZFpXWqieuPnLumsuHGREWAE/CCgzGtMPb2u4qk7KJpk/ZXqCYvKxPfO3M3ZTZ+wdZ8OcTzJuH4hkLEDUEKAPwuMACMwXggoC4dMIy1LHmY6jQal0l9jGkiGWqmsBOEiI8AIeCOgTEbprMwppYiAUk8jwOSxKUV9RiIrWXkkAxNShUZPAD66KQWN4Ek0IhqmShkXJtoMlLo/dWOZEWAExhgBfUrqmhRSwpRX6hr1Hi3q/lKjhOUiI8AIJETAOHcw+6Rg9EnIhBAkYQ6pOehZSY2xXQ9Taq37rKXypJS3lHy2x26MACMwNggoC5Bx3UkhE7elyk3v1oTun64M3VpkPSMwWRFQJrvsZsIpZqylQJTGWekWSkkDaev+MClJjnbRiydlTpajjQLHZwQmJQJYgPS5nHJ/3ZYqN71bQ8jNzYH1jAAj4B8BfUJ5a9K4JiRMEouDsVG3PD2cjaaEaaTsYOBJdEtJyQa9Tbk9rsgIMAJjhoC+AI28abeY3ouDUsvbeeRJcgRGINsQUKaY2wM13W20gcJkd2ta19MqSnowKfpRLZp5kpEqjUt+o9p5Ds4IMAI6ApjpEHQfXSOddb2ymCCm8hnMWJGVjAAj4BMBzCz461MMProJtdIo0OY8WpRuSruo61OvuKW36MqTeHVLL9A02vsvzJ8//9HDg5bOKsxfe/jr6NeH186fP/+F96kry4zA2CKA5UkXPBKBs5sPHCC4ebKeEWAEUkaA0hEqY3tJTkB6f1fagoOiT7aIma6kYYyjN+pWXfc0BkyvUvAkj4g0V29PjyDjbZJMZP6jrV+nMxM7agq0Jj4f8KTB999vFQRK/GdFtf1slfjfo62HHQ+iBeVKZ/c4VpYigCkv+4+i9/SHW5aixt1mBDIDATkTlVyUyUuLmLlUUKqnVkRAP9Xd0kYQRfATM40+CXhSSi39d0/T3th/R86lFCSNleJ5SZoCg8QkS5S+bn0UTEjkMng4rvz+C/E7SrIdZ/NJSV6pq1i5yAgkiQAWI1oPSrq8UgePz6aKGxcZAUZgtBGQE1a2QmW06zGR4TNyAesGDWVUYgGhnlKGPxV0t9HWpJ8n/ffppr0xbnTuyN69e5t6/nu0++EVf1R4UlRGFc/LkvpP4z3eXEezSppl741p1qRSYWdGQEEAi5Gb3rjCGmsZlUpYLjICjEDaEZBTzyOscRZ7+KdsoosAZCrQyB5powr1H0vZ7++7pZ7T+SOCKP019QAjrjk6PCmltOxU4p6UOTr6JM1xsDefCBuzeZZ8hih5ErGmlBRXYgRsBDzWI/8meEqBwWUEGIExRsBj6nmYUkjSe7IrVmMRjaY3MYRNi2DzJKUDaQltB0nMk+T5ZS/wC+oAACAASURBVHKC2d4miZ0osqmE84jLZg82saDPpGKhyOMtu7ZzPgm8xKnoNGfFc5TRqNPKC++btm1iVoCFwFYgJ1mYo/YWlLA+evh9+bjN7oNzJIk4W6LS8agTww4uzeBJMk9Dw2pYLmc5ApjvOg5uJuj1D6PUpMh6fNYwAozAGCCgz1PZqJs+hZSUyS6LNI7iYDRBqVeHadwF+3032p/05iQew5HncMbgNhtw7vcOBQFzomzBYUIxgmHxDvuMtmNd+6h16EdGsKtLnmQXnA0bwl0Q0aZKThqPPipeQ1OZjGN1WIkTF1EcA3rs5CY8YmxMpT5wFwLtuDTYQeJ4ElpinhSHHhcMCNCZDpn6GZXSwc0EPRVoTJYZAUZgjBGQk1FvNC08ic50XaaNwkqVUtZNUqN7jrsmjielPxuxmZSQJoEP2OyBUA6LApDtHIed4KwzyIckCyjCIcY2BE9yQjvUQiUitIy2aCxA5FjtSHZFh+rBjQrC54XD1sv/Bp7kbHeRGnZQUK/5L7wvOxjP5JzOkJosMgIGBLAw6QK8qQlKKbiZqD4tq7DSLhcZAUYgBQSMk9GoTDY4pjyt6F8pa+n+UkNjZogc40lpT8jaSfJ5iJvyE0t+4QXrBXiLEEijoCAODaJ0xCETFlswOTjk6NEXXiCbTFZ3nboxJiIlK77DhOI4DVByrPE8yQ7kVuXw+3YX4hzsUCrdcfpibYrJTB2epOaLnTekxwIjoCCgr0p4zURZOo2eMprRBKUSR0mAi4wAIzCWCMiJSVtM1wzVI7stJrR1Rca6Ab0xLKzjKKT/fTerM9Zrbn52kpyu24zlhfclq3m09WupebT1a0kjrO0WhzpQSmHvNslNH5ODw5NALmK1ffGkmLuTrPi/wpOwJ4ZWDPtDVj19P8lOkJI/qyWnCdE1hyfRFCxZdl+rq/mxItsR0Fclt6UNnvqqChNFM2NXN5oky4xAFiJA56Y+nVMDxLgIyFC0OT/BFf90Zein6aR84t53S6qmu7MkScm942ZzgrWH3xdfLyS2W2xN3IMqhwZRWuBwHYvOOA5x3AYe8pkXOWlkW+J2d9Avh6bExUpgdUibYEs0SVQz7Sc5HMvQEOgRhFgkKUmDuS3Vl8vZjICyJAEKo14qPUyozgIjwAhkLALGKTzybN3CuumNLUrnjOVGNOf08ySLJcW+QIk25iXbDMM6NC3v+vZOiXUi2+EBDnfBkSGHGNkKpxhHOWw2JFzAY2wHx+TEtzaKXpC/KOK0hVi2syxr1ljnbD8SM2Yz8ySZtoGuyVBe+0nSw9wWaZbFrEfAbVVyW9qM/kZl1kPLADACmYtAykTEY7IbY3r4S3RorYTOGQVo2nmSoElNp83fK2lRKLd9JofixLZ7dI2gMdZzKzzdsgWHyzhWp2xhbfMWSaUcfmN/6QCKJKLNVxyTE8sJEx/HtsKIOEk8d3Oe4tlV3n8BdWXYGE+Sp7bQxtrD9uNJyZMkC3TyzahxxsmMOwJyYdLT8NYr1om1uumdZQ0jwAj4QQAzHULCWh6eMOlCwrCZ4DAqPCn2oyWQrA0mT57kPGgjZ5JBPpRbP/QWYaDGxDyJMi0zx3HiqTzJOeck7Yo1PiV7d8t0gWWG+taRFcCiOzKypEqJw0oPmRPzJBPirPNAAMuW0QdWRTA6s5IRYAQmBwLKfEfRu3febrBC8I6WUda086SM6t0oJqPwJN8tufEkmyY6b7TZRAosCILSkJ2Gw+0UKxcZAW8EEq5ZcIDgHZCtjAAjMKER0Gc6NPTBmdJH+Cj6yVFknpTadXQ2rpI+GOTKk8g7dLEvIndJzmndfgDHLMkFJ1YnQmByr26Jes92RoARUBGQa4KixULhRpXgoFdUNBOxyDwp2asWx1GYoSQLH/tnFAJua2JGJcnJMAKMwJgh4MF4jMuFTEyvpWvGrAtpb4h5UrKQxngSk6RksWP/jELAuJB5LIUZlTwnwwgwAqOBgHFZoN+1ZtxSousGIkAYjTzHMibzpLFEe3K2RWfI5OzhJO2VsoqhyBd0kl5w7hYjYCNAJ7sCCkyKnlIlDxOqT6ZlhHmSfsVZkxwCk2k+JNfzCe6trGgoTvBucfqMACPgigCmuSLQCjBRpZSNJiipoNeduBrmSRP32mVQ5vpOrJwwGZQip6IhQBc1yJoXKxgBRmCSIIBprgu0h7BSpZSNJiiloNea6BrmSRP9Co5p/m7TQNErxTFNkRvzjYC8TPjXdz12ZAQYgQmJgD7ZoaGfdY1KdFhaUZQCqij6yVFknjQ5ruPY9QLTic4WyJgtcBu7zLilJBHAxUqyHrszAozAxEPAbb4b9VDqKzlMFALdjVonusw8aaJfwbHOX04S2SqdG1QvT/yNdWbcXpIIKJcsydrszggwAhMJASO/8Tidnaz/RMIiyVyZJyUJGLtHo6BH9EZLZcw9RosRYAQYAUYgExBIlvfAHwu+7AX0mdCpscmBedLY4DxRW6EzBEwIAuVDVCl7S+tO1P5z3owAI8AITBYEjGuyB++BCcs7NJMFEl/9YJ7kC6asdaLzClPFjR5RB+qTtehxxxkBRoARyHAEvKkPrFTI8B6lPT3mSWmHdFIFpDyJUh+FEsk+S2dUMfpMKnS4M4wAI8AITHAEEi7UlCFheZ/gnU4ufeZJyeGVbd76rDBOKsqQqINePdsA5P4yAowAI5CxCIADZWyGmZAY86RMuAoTIAewH536eGh00wToKqfICDACjEB2IGDkSVjtswODxL1knpQYo6z1oCzHOHOMSgmXrOvhkLWocscZAUaAEcgQBPQlWmro4p8hqY5jGsyTxhH8TG+aThXjdPLuAM83b3zYyghMDgT0xWFy9GvS90JZolHkC6pceuZJCiBcNCOgzBxKoej5bqWyUkuxcpERYAQmBwI80yfidZRXzfjvROzO6OXMPGn0sJ1UkTGX9F7pj9jAolBLCrIurHoo1jACjMBERIBOcJm/rpmI/ZrcOSvrM18yt8vNPMkNmcmmx5RIuWP6LFI0IEC6gD0nmFJOgysyAozAOCLgNoUVvVIcx4S5aTcEcFNQVnI3/6zVM0/Klks/wpkgVz09CF0NMeuAKbVCyQIjwAhMXAToIkAnOGR9HZi4nZ3cmfOV8nl908OTPvvswuHD7Vu3bi8uXlNUdO/8+Qv5LzMRKCz83zIxCG556g6Fhf9bKnWTEtPbza1F1jMCjEDmI8CzO/OvUVIZuq3nSQXJQOeionuLi9ds3br98OH2zz674JMSGd1GypM++eTc3r0vL1lSnIEwcUpuCCgTQxIg/OtWy6g3LpqID8FYl5WMACOQ4QjQKawvEXT6U3n+/IVKMcO7yelNbgSWLCneu/flTz45Z6RBCZUj4kl/+MOJkpJHJze+k7h3dAX0303vWgn3nPw3xJ6MACOQgQhgjtPcjErqwDIjMO4IlJQ8+oc/nEjIinSH1HnS737XtmDBr8a955zAyBFw+5hII+v0SNdQf3ygVJRcZAQYgQmKgD7loYFAuyaVRhN1Y5kRGDMEFiz41e9+16YzIW9NijzpD384wSRpzC5tuhpK14KlxFGKzJDSdb04DiOQCQjQCS5luntklOHGq0EmXEHOgSKwYMGvkt1VSoUnffLJOX7cRnHPfJkuW2nMdpTCpjFDDsUIMAIjREBOcz2Iose2NC8LOlasySgESkoeTeqsUio8ae/elzOqz5xMQgSUlUtZ4FAdKx00KQj082UK1bkKI8AIZCACWDQgKEnSRQY+EBRnLjIC44vA3r0vez9ro9akedJnn13gt9vG9wKn0Lq+WtFFTQ+o+7v5pIVa6cFZwwgwAuOOAF0HjCuGrkQVaoJy3HvECTACEoElS4o/++zCl19+RfmQm5w0Tzp8uJ2BnkwIYAmj61pSHUSEpGqxMyPACGQ4AnRvWFkflKI8h+S2FLjpM7z7nN7kRuDw4fb9//YbN25E9UnzpK1bt09u7CZr7/SlChopoOgfgRSq+A/OnowAI5A5CNDJrq8Y1CpzVnx0h8zpGmeSOQgcOPdjdPBdH/k0nvvxx3MN6jdaHzj349cnVaVbtK1bt69cs5byITc5aZ5UXLzGrVVFLzr84/kDY//d3A3nf4waEFTSy57iqK5Qoxo8e64R95QRyHAEMNMhyITpnhPeboNScfbedspwBDi9UUdA3Lu9/vvxXOP8+e9+HR3smq/wJKlcmBRPKi5ec8fP53q159iS5kn+f5Ykk3nSuOU29qzRalGuVvpZIn0V02cCljzdxBpGgBGYcAj4mfUj7xTWHBlqbBodedocYdwQaDj/o/jPvLfSNejsfZwcdNgL/j/YZZOn5HhSUdG9U376D4jiISTNk8YNxLQyjGzjSfKqeSxVHiZccT8+cGaBEWAEMgoBzF8ISaUna9F/9eoJI+sf1fQgrMlKBBrP/SjpjhtdkTzJ3jean479pPnzFwaCIbf2qH4UeZLgIs6DRiHb/w12zV84X3k0hiLZdsNTRtS19tzko8dGxLPcRPHrk+9+LZoY7EI0AWX065MxZxmhi/BREtPvQ82JNYiNu0EJlzP00XtZhBsLjAAjkOEIYNZjUkPjJ3M3Z0RzC+JW0c2f9VmMwLtfe+8nNbzbZZ9JSsNztwzjSQ3nvxaPFRdaHDBqkSfBXcBRBHERjKrx3KC952ZxI4tRiU02S5i/8MC584JjiR026S+YTde58wcsPgQ3QsIkQ3L26ywSJumXiO9yPSb3GDWuWd5Ko3Vyo8S9YwQmHwJyImM6Q8CZIWz2wAQBPvQEkhEipYrRh5WMgAsCcrPD2VSJ+7+4j2PTJM4Sjf547rx1aCm5524ZxpPIIzPRT2uTiTAVAQ12j2z4BKcBT3KIjoxzclCjOHGsS+FJYGOCVNmEzII7C3iSx2YSXc4wZKGUAopwYIERYAQmKALGSe0xxxWTvpjAQYlMPeEzQUHjtMccAXE3V/kAoRBOPpNxPwlP3QQNtAnKu1/Lt9JivEdu/4Ap2vQIFDK2FeQ8ziOQEWTV526xB2omlhazOtGyUYPlTFnyshkT7jsjMJkQ8J7alNwYe00dsFxIT2NkxccYk5WMgIIAbvfgAY6g8gFHbx22Sekcd0btJ8Vt9pBtJLG78+O5RvnvfPFYjTwLi3Edh7WIB3DOzpu6FRTPQGN14/XWfpLcXopry8BVnUYnqcljCfMwKQOai4wAIzCBEBiNqU1jUlnComsmEFyc6tgjIO7Lg++KJ0JxWyFxJ20OiO9NaiTnuOXJ7lS+FyBjeZLVYbAcsZP0I77riHIX66i1ZEWDzndJOftP1vkkPE3D+aTYTl08T4qdW3KYlsrJJiYZSssapARRimM/T7hFRoARGAMEMNMhJNuoXpFq6OZTspHZPzsREDd9yg3sU0dyuyi2c+HCk2yHpL4/KaN4kny7TW6SDZ6jm0bxJ7LtU96W49fn8F2RsYNd4Eb2UW7pKb58M37fKJ4nOe/BiQd+DuVyDoMLlTxgHrsME32MytWKrlnGHsHBp78xCCsZAUZgQiOAdYD2wqikDlKmS4dCjHxG0GOyJlsRaDwQ+3Lt2E3ffrgG/mQ9d8J+0teD1okeYu0aJCdwfOyAjP/3AuDQ9Phd+Hj+5AO18UvVL1HzWIA8TB79Sq2WR0A2MQKMQGYikHCywwFCZnaEs5qMCIAe2W+4x/rofLck2ddQznGLe731H90NSXxXHXeeJPocexY2PhxlUvEk+YkN65fyAS42pByo4ZmUSXdmDSPACEx0BORqoKwJxqKi9O64Max3FbYyApmDwDjyJIcVxh3FSszsRgG7ScKTEq5cioNSNALrx8dYkZWMACMw4RDwnu+wQkiqg6nVSqoJdmYERgOBceRJ40KJuFEbAY81S5o8HEZjII5jTPQUwjgmw00zAuOLgHEWQAkh2SRTrphsQ+zPCKQdAeZJk4o5JVyMEj6GkyMsYZy0D8RxCWjsplE5Lulxo4zAWCKAkY9n99AgDV0DE/0ybqpkmRGY6AgwT5rAPAnLGR2FdCGjMvVhmRFgBBgBBQH9QxRdQKisVJTFhA7GWqxkBDIfAeZJE5In+VySfLpl/jBNe4Y6MlRD5bQ3zQEZgcxHwDgFpNJoQo+8rXBjgRGYQAgwT5pgPMltGaJ6N3kCjcsxS9WIFVWOWSbcECMwjgjom0kyGeNcUJSyqCjHsS/cNCOQXgSYJ2UiT3JbcajebV1L7/jIqmgU3qzqOHeWEfCJgDJHZFFR+gzFbozAREGAeVLG8aSUFx1a0U2eKONyzPKkQI1Zo9wQIzAhEJCzwzhHoIQwIXrESTICKSDAPCmzeBIWHQi4qNBAkC+YwEEvUlN2yjjqTkFTgOKduewcG9xr/wjQ6QMZgv847MkITEQERosnRaPRQDDEf8kikJObr//JIFSva2BFi9BIAfosEZTu6yAYHXRllsDF3ZysCOTk5nt0zdsaCIYwI2QQpegRmU2MwGRCwP4JOc///S9Pq9k4mTAay75gJaKCTIAuatSqyMgWemiyREDHdYEi4GZV9LQKy4zAREGADmM9Z1h1k6KBpxQUKxcZgWxAwMxy4rXMk8Zub0xZlSg3wnCEj65R/JUi/CexAHCMgt5xuFETlFkIIMWB5YmLgNsYpnope/eR+nt7spURmKwIxDMic4l50hjxJLokuS1h1AeDkiqz/NZOodDxgQYC/KGRgpteceMiI5BRCGDcUgEZUiVkWHXBj49eizWMwCRDwMyM4rXMk8aIJ9EDAW4rlFEPpRQm2RhNqjuAgtYyKhW0qT81KXouMgIZiwDGOQQlVeiloFhpEZ5UyTIjkJ0IxDMic4l50ijyJGXBkrtBWKT0zSHFRItKqOwc0ACEdt+olA4wUaiNShqQZUYgAxGg41bKSpLUQTHRItyocrLK6KwRscnaa+5XUgiYmVG8lnlS+nmSMjn1KUod6BWleipTn2yWvZEEYoAIGlTUNXBmgRHIcAQSjl76eSDD+zLa6SlYoTja7XL8CYdAPCMyl5gnpZknYUJSQRk6Pk3STanLRYoARZLK0odqdJnGYZkRyCgE6HClibnpqQ/LFCVdZnwYAYqAmRnFa5knpZMn6XPS7RMe9ZTXDJ66iV5UlikCEisAqENHNVSmQVhmBDIHATpKISM9aLBcwMQCENBR0jVwZiHLEYhnROYS86S08aSkpiJ1pnKWD1m9+xIcXW/UuCHppjcGYSUjMC4I0FGqyDQfaqJ6liUCbvhAz0AxAhQBMzOK1zJPSj9PwjXAzKSCTyvcJrFghAX9pVafn55pFcRhgRHIHAQ8RjIdvbqMLigm6FmQCFB8KCbQUyXLjEA8IzKXmCelnydhQhoFjEvdClM2CHr39VsI9fGJCar49Gc3RmDMEPAYnDDRWUCVbvoxS36iNGQETVFSMCdKvzjPUULAzIzitcyTUuFJdNbh4lGlt2ysAmU2CB740O7DjSo9ZPjzOuiBEpvGCwFlfNJRChNygwaCmwn6rBIAixRo3xWTW5FWYTlrEYhnROYS86TkeJJxymGEGa26Ev4TTJi6NP/OWQlzzr3nkelTvVDVAbE0s38yfbY0JWxCOtA49Nsjkwrisy12YwRGjgAdsZBlWLci9FJADlQPZZYItO9Upt2neg+ZVmE5OxEwM6N4LfMkrzu6Mm78zDfqQ6sT/ez80rbKQ33h1r7woZZ5wSQSoAGTkWflL3/69ttG2NDiol2nKh5fk7Dd6aVvV+3aNs29XwQK5wfPZ24razz11BNlMCVsBZ5GIWF1dmAExh4Bn2OVuikfAGjOcKPKSS+j10aBdl9xgMlNDwcWsgqBeEZkLjFP8sselNmlFBMOLPgHCvY+1Xpq9b0Fospt1r/ulCJh2DiHe/eWPbNtuiFaVVlzX9lDfnsaF9OJNnNzZ832p40mTVlYuLPnqU3Fmt5OAFDgucO87T2VlY/oercIUk/9qexdi62MwHghQEeplPVMqI+0Ug2mjORPevVJr6Fo6Pgo3dedE1ZRInBx0iNgZkbxWuZJvtiDcb5RJV2/6FRUPg4Kt5K2cEPDTId/pHMUjl7kqVVlhzqX/5MvrESP/mn/U4da5rk8faO4Wd1/ZEVD3/qSENXreLoBRWu5+bCeEcgEBOhYlbKeFXxgggYCTNkmAAG6PhiVEhmYFKCgp3EUHy5mCQLxjMhcGm2eNOeuPV3hMwP1vQN1J47OL5Q32h3rTh1d/NTRaksffqthVl4oENyx7lT35iP99b0D1S3Hnz0zUH+md+Vqy79wy5q3ztb3DtSfObv5lS23Ogzj1qfanj0pItef6S3f+oh9UfM2PNDWW9cr9OG33rzHbnH2rJ1dsrn6k11ryu+3nQu3PPx7K8LJrjWvHw837ZD6W8vf3CwjO87GeUWVdL4p+lhx/t6Kxp6aJvHEraaxp6axp2KTeIx1+6aOmpoqO6Vf7q1olA/jqkobWxatbJFP6Gr27J1p045ZeGxX+1pb0T3WgSFRyxA5IPVWW6WrCMu5rXz5nlPiwV9zT2VNlf2MbFVLTU14Xk1nrdCf2rCpzE4pGBLc7uW96k7V2uYPrkTEsLoZGfywucS5LlatpUtf7ltfYp83kgggWgyQXPnczeZJCqeEPxWUUNTEMiOQ4QjQkW8cydQBfaFKus7AIXsECgV6bVRKq5vJTY+YLGQPAmZmFK8dXZ50647u+tPHFy2aHQjOuevV3vrON2eJu+muTb0D1a9X5+WFAgXV604OPPtisaXsXr5o9q07u+tPHb0nb/b83/ZXv1IWCK5efmyguslyXrSj/OTA5u0LxCW8e8/m3rMPl84JBENTStuqe3tXPiB4wF2vn61r2yMi5xUvbuuv+61FfTYerTvdtVikMTtve1fd6aPzRRoLFr81UPfWKz+7IxQoePLhEwP1rbtE5Acanu09++tNK3Jyfx7acnR7b9fiu+O2OuQAcmbatvWtvWH7zzpytGubY8qnQmzYabs+MytPhXdtsx0WNFS2thWJ9Latb+2rrHpanInOf7r0QN9Tm5YKnwdbag91LCksCAQLbi/vqG0i2zZa5MDUwukFS6cXPF1ibdg4OSxevKevdldYRL6tfPVrfZWVFsssaQs3d65evjQQnJW7vKWqtWNJgU2t5m3vqamucKpLZU3Pd9GhT5s3zg0VPNF+4Xp08HgpHHJy839pVaEIYInXlBUljT2lD4qwmslOQDGhIRYYgUxGAONZSRJ6TArpQPWKLKeAEifbihQT9J0qpWw0QcmLCYWC5XhGZC6NKk8qXn5soHKHRWuCoUDejvLT/aW/ljzp7Bq5VxQMzTnQX9+yy+JJxxcFQ4Hnjks6NeuVs4InrX6zuvf4IrHhJP7yXuyub9sjZIsnrXtq9RShn33LouJb7xAOgicdaZhVMFv43PGrvEVO67J4b3HeAw2VvbL1XZt6zz5cYkee9cpZyZOk4Mw90YXNW61oVgIyDccqtkMguy15skrsX43NuPOkUysW2OkVVPeEdwouVbizj1CW4oLSqpm32z7uT/RiGzYiDXFAqmMxaq1sqW1sLJCbRrEHghUljbEjTUW7HC4FEMIfDUUvt8+1m954+mr0q04RxAFklkX+KDgUH+hn3L97xe5TNf+6Fw8iYaL+CAtrDE+kxAIjkDEIYKBCoCMWSil4mHQH6pyFsveyAGAlMii6CVkIIHdZQcDMjOK1o8qTytZ0Dmx6zrmLB1EUBAU8ySEouzb1mnjSc8fFkzX6Z29KhW4tb9p0QjynC5/oWrnROTWc98iipu7tZwbqT599tmmP2CsSFG3D8rfO1p0++2zb8fKW7rBsXTIwZ2F10ggtarWa+7/n6+Vf74C1rYVexIiRBXdxQWl4Ef2738nEiaxcFZ3NgCeJyVzUsCW2nxTjSY7PmhXY/tHjawzMaTqeJ8W2rKxOoRhXPa6KgScduRw/kKLRoY+ed0hSTm6+xZO2u/EbLFt3lrc92dBTWVWB9+NgUhZEGsrpV+yisIYRyBAE6ACmspKem4nqISt1uQgEAJEuSB9dDw2CsJDNCKg3MlN5VHnSI2tOkP2k4JbSU/3rKtT9JIeguPCkX7eFTx+d7+wnxS4n9oryFsx4qq1aPIOL21iaMm/DA2/117+15xa5C3XkFedgk8PS8qwnd9p+0pwD4mmd21zS9OVLdraV0b/y8liSOpVRt20E65KUwo5ssZaF4uDOtvWtOk8KFe3qq6rEyaGCaQVLc3FcOo7oUA4RR3oCv9xfSfeT7m+skV9PEFc9roqBJ+0/H7l5sdnZT0KXgY9D7EQaUFLqE1NOqyo7dGr1vbGEYyb7AFOcCW2xwAhkGgJ06FJZz5Na5bwwzg69ImsUBIy4SXilpwI1NSmhuJiFCJh4kaobVZ4UmvFid/2JN+8SmzrOwSDBeBymYtGIBDwp+OTDJweqX31SPl/L29pW+pR1CrsCR45CgTuq19kMTDwmq37dca7rrj/WkBcM/WyfdTRKND3nZ3XddfZuljiftP23O/6f3PxAXvEDR5zzSaVt23t7Hy69W0ynUPGi19uc4+dxt3yMJ30SwmQW4uiI4BC3lL0dPtBYIOjOrBkVHeHWtiJ3npRb9na4qa1opkhmyr2Nla1vL8ITtPsba1o7Flum+KbjSE8gWLzk5b7KynIB6dSli3b31MoX/uMSi6ty++ZO+dSPhN3/8fXo0If7raNURRs7zn/cvJ5CIajV5tiXLcGECNDk5D6yoqF3vUNY3XgVKrLACGQsAhjVfjKEMxX8VMwqHwmO/y67gQm9/1DsmQ0IqJzIVB5dnhQI3j+/6Wz9mf7wqYH6U93LS+RBn6R4UiiwbE9554AIcnqgvvNokTiOHQoE77/nle5w70Ddqf66MwPVTTvs7SLqfLLLbvFu+722ujMD25uOVvbKY1KhQOGuDacG6s/8se7MH7ee6LfPcQdnz9h6vPbMQN2pP9adOV/b9Lw4Fe7sDGGy4SMgpjH9WAN/gxBHMnNZsQAAIABJREFURyzuNW3dild7w809NYf6Kqtanmxt89hPCgQX313VWdvcJ96bO9S5esli0sTiop094da+2kN94d1hQYPE7pR1utz51z6yPbOqtKEv3CRajL1JF5dYHE8K3NtYJc8wOTgEgqGCrZ2XhsTLbpFINDp0sfmJIkJxKkoazVtEJFvsMwme9PjDzndOuuw/0YosMwIZiICyOMgMqRJrBZLXrX6XETITEW3CCUr39fypg241alKoYozDyixBwMSLVN1o8ySLYeQtyJsnXkwb0V9BcZ48nR0XZ86t9/7K2mqKD250LrDPeiONnNDPc3J//tNFv/pJbv7dB/5oHSe341j64p+GxDtr8Cc8IO5dNsWH+nvLdErnzFiIJ2hUb44wtXD6nYVmU/7S6fmJf11E1M1fOs3vl3QXL3m5p2ylIWzBqorHVgmGJP/szFe11L68N19R5qpgOnjOLtrVq3zPpIyDsCwwApmPAJ223jL6orvBNOkFve9SQzuu+FCTm0yruPmwnhEAAionMpXHhCc590tklhnCvPm/PVvb8srdK8vu3nl8+//947qKn4PxuE02qoecWndodSo77MHAKlJrKD21FjZUvtbgfIdTPCtVru/UstWvda5YGCNV6B3gpSkJ64L9lYc6S1cWU0+jM63IMiMwjghgrNIcoPQWjFWoctLLacRHWSho5EkPI3dw5AiYeJGqy2aeJL5j6a6dbeVvdVW2tD1Qej8mmIReKeJ6QC8F6P0LiECrQJlyWBptNORbV7VsiB0hd6VKMyvfLl1Jnwbi+Zor8xNdnr5wxl2FFITR6ALHZARGjgAdpcps1U1GzchzmOgRKCz0kyH0PjsIf13wGYHdshwBlROZylnEkzCRjMMCVinQqWv0T1mJhpQI0CsfjxS3cSnS3FJID9U9kodPCvE9wrKJEUgjAnSUKjJaoXoopQCTos+2InBQJrub3g0f6q/IblVYzwgoCJh4karLCp6kTCFZVMCixEjx1z39aBAkKWe33PwEGQ0f9IIKSTXkVjHTeppUp9g5CxGgI9koe2NCq3h7TnqrGxRUr1AoN0yUKrLo5sx6RkBHQOVEpvIk50nGWQSlDhlMVNDdfGr8BIGPjKkUfTY0Sm5IRhGSao7WVfrocylMqjl2ZgRGCQF9JCsfrpR2qT+VFbfsLAIQpfvQJ7U4oJYSjYuMQEIETLxI1U1sniSnhxsQmDwegrGu7m9086OkoeiqSmX4UKWf4KPng5SMQlLtIgLtHZRJrYZJtcvOjMDIEaDjE4MWYaGB4GGSPnCY9AIwgUC7DCVFWF8iaBXIShXoWWAEUkBA5USm8gTmSW4zDUi5OVC925SjPgiYmoBQ+iogW6cO1Ce15kZeC/lAkDGVos+GUMso+AzCbozAGCOA4Yp2FQ2KVNCdjVa4TVaB9prK6K9RKa2pmRCZBUYgKQRMvEjVZQVP0lHzmIpwlj4ojkSgzYEb0YBwoDxJ4XBKkVZPr4xklBah998cquiC/yDsyQiMPQJ0xMrW6XRQrEoR/tCPff7j2CJ6bRR0cCiwupV2hAakepYZgZQRUDmRqTyBeZIHpfA2JbSmjLhbRTq99UVBycfNWerdmkiv3tgWEvPfFqpQwX919mQExgsBjxGrm6jGOMF99gJxfPpnoBu6IAWZYUKl0hHqT01ueurDMiOQFAImXqTqspQnUWqSFKZGZ7oiKA6Y2FLvUYQJ6yw0tK4Sf4RFpQkSrf3C9Ss9tXFfkuTuHOdGgsR9cxL6RR1YZgQyEwGMdmXcGvVUKWX/ndLrJhvBf1tj4Em7Q5vT9VTjB2QZTfGkTbDMCKSAgMqJTOUJwJO8Vw062RSM4k1LC59pW2L6UXqlls8iDU5lWh16KBWNsag7Y2mQ/nAYuaAkQAIeuxS99kE4jgDpzhvbz196dz+pFecv9Xotb3+2MgJjjwCmGJrGuFVMRj1VKv4I6CGguvRRih4VM9CE5BUcjHqqdPPPwD5ySpMJARMvUnUZzZOUWaRMJHmpFB96/agpEIz7Ydd4k+HuTuMYZURQ0jA6U6WsCA2NQ2UlLExGEBAtWcE9rC+e9PyH16KXj3k3mt6EvdsamfWRRTVtJSXFIwuSyljiFscRAfcpENsNpelRfzm2oZG71NTZvyyDwH/izBp1wAMNpQt+9Kji5gx8WGAE0oWAyolM5YziSbPyS9sqD4nft699ra3onln2bLmrqvS13nBrb/jQqQ2byuy5tKqlpiY8r6aztrUv3GzrhWlq2eJdlrK1b9uehn+aJX4r45c1PTWNPcKzSQjbGlt+af0mq4yvw11y8KPB6xZa1698cHC97bC2/eO/RiSGQ593Vs+Vy2j7hesXO5ovDt0UlsiVvufnhgLBl3r+eu3jN+xfh83J3f/Bd9c+bl4TCIYK6rovfR8dHh6O3owMfthcYv0yWk5u0fPvfCEjDP/4zftOi0iPrhpQ6mkbNea+2O0KcPAXCBZVd1yWaQx9evFb7Cc5HR8eHv7hvzqr51k/DPy7i5HrkcjNaPRmRAjXIxd+J1fM9c39V4U+Go1+f7lja+wnck3pxVqkzhIlEYGgFPjdxcinnc2fXrP1p18qCIYC4b5vh84fFJhbf/s++vb7881LQoFg0fPv2H2J0os496Wuy1YEcbE+OrjWqRgMBW4Pb2jtC+8OG35WWfkBOy5OIgQw/iFgoOoa+rweVimgVlKCEgREgTaUVMBxd0aPlEygp32k3aQOVFbicJERSC8C1r0qwT+ZxJMebKk91LGksCAQLLi9vKO2qWXe1FDOtIqSA72VleU/yc3PuSu8vqlnfYn1K2APt4WbO1cvXxoIzrrlwZaq1o4lvxC3/DufO1W7Ozx9aigwdemi3T21O6qcKffIiobe9SUxWiD1BsQr+76NXrvwxpaCYNHGNy4ORa/2VIYCwS1df40O9e8vCoZy/nl//w/D355+xopw7M/Dw9/2N2+cGypY1XzhevRvp7fk5OY//d7V6FedxfJ2sv985Pr5/YKRNH92Y3iw45lf5Ob/oqJz8Gb0whviPp2z7/yNv3/TUbEwECza1HFl+O//2TzPzpOmZ3ekpE1QxlbBJuXf+hJys1duYLQvv7sYiV7peCjm7CDjYLLvfCR67WPR8WVPd1yO2DyJdPw+0fG/nd6CrPT9pI3vXo0OnX/xvlAguOzF/mvR7/o2KimRYsEbFyM3r3TVLgsEl1W/eyUauWgxnuYLkehgx5aCYKjgiRhKgSOXozevWukVFb9xMRK92rM5FAjW9HwXHTxeKlPa/0kk8slBIR8UkTueKAoEizZ2XInevHjQavfF/kj0q86Nc0OBuVs6vopG/9QuyBb+8guZJMXQACyTXVAnQq71SSBo3k9yu7WnhhuapmFlKGpKLXhG1fLoDky6kFFd4GQmJQIJKJJlziCeVLizr6a6wrkSxQWlVTNvDwUebKltbPyFs+0x44nO8J7dt+Tm55S0hRsaZtkrWsXDjX1lD1k8qepU7Z69M/OtH6u/beH0O/HTqgae5LRF7pTBUPX716JXum2KEyx9/ned+wVPkn9FxeVbNm7e0vwfN+TzppzcY38eHvogbC+s+//jxvB/HRMfmB7qHLwpSUlR85+ikX77EI+1ECwr2bxl4+aarivRoQ9fEpEtntRVV/oL0Z1lJZsrii2e5DSK1pMWJI9x0HtGUIqO2AaPsio9/+9D0a86Hd6gPHcTHd/01DPN/3Fj+AurgxYgOk+SOResqti4ecvG5vOR6OV297ts++dRm9YIn5r9He3Px2ichtKRy9Ghj563ox38+Hr0UrsApPj4FZuSzm2/cDPy8T6C0n3rRRpV3YPO3pjgSVe6n19lgXDf+o3lpU5/SS33hEd+RThCZiKgzAW550GVStoeJsXTrYgIcIAGAkwZIqScGCoqm0m0X9RHytTKMiMwSghMLJ60ZsVrfZWVj6hYOHzInkUoQhAU6tEVDX32XtG0NQu3dVQd6gs3nXqqJnz7beL+Z9VVeZLakHN3bP88ajxzU9J8cSgSufE/31z6/PLg9/ARPOn9sL0lQ3iDoEffvlcTEDdvuSNlPQw6fSUSifzw31/8+b+++NuPwz/8+0vWwlG0tePi334YHv77jaG/XuzYsdxrmZhTsag0TP8K5rje49sv22Ng2PovGnWYGfmsbAObm9/+hcjHgSXGk2THI99fufT55a//ZzgBT1rbfuH7SCRybfDzy5e+uhb14kk7P/g+lo/Tbgylob9evvT55W+vOz5xPOmlD4ail45YHXcQLmi+GP2u72l5Hee+1COQvvbt5cuXPr/q7I2FAnN3dnx6VTxbjFz79tPOarHvxX9ZgQDGucfkUnxoMb3jxC0HtJje5tISDbm5Je/RCq3r4cYmRmDsEZhYPClUtKuvqrLMgalgWsHS3KmhwENtYbKfdMuvO8Iv780j+0nWDAQHmn3LXUtvnS52d6bMLFtc3xOuD+faN8K4c9xOK4Y7hOA6sW0VsY9SIu6mzZ/9/cZnB4vk5yHChwSfkDwpEAwRvdglinzX9zx2O4KhwOa+b6NXu9ba+/ntl6OSJ/1iVcXGtctER+5b/+K7V24Mf9NRYm9QGfK8d2/Zzjb6R1/iU/z3fxKJ/qnd2U8SZA4OWLkcHpn//L8PDf+l09rTCgWC4EnNF25GLhy0d6GEj+d+0sE/RSOfNtubNOGPhrx4Uqj9ssOBxDWyNtLmxlCSqcZ83HhSMPRif+Tb917q+Cr2AG7j6avRv3bL41+kL7iaoaK1+7u+Es/gnI1Dw0gAVixMdAQw2hVB75figKLu6Ufjvzo8peAn+Jj5KLmlkCEi0JxTiEOrs8wIpAWBCcaTcsveDje1Fc0Ud6wp9zZWtr696PZQYOrTpU09j0saMb18dUPvvzyxQtzaH7afu1mTDTxp6ZKXeyurxGGmQHDW9HJBqqbbPKlw8Z6+qthzPdf7Yo51TOeDuoXi2LU4HyMf5Ry7FI0Odogz3QVPNF8YsveT5HM3036SPDoTGRqKXGh2HnXVfjQUvfZBnSBbC3d0D94ULCEnN3/j6e/kmZ6c3PxfPNH9t+HvrJM3rhkmMThkX/ZZJGzelo7+883OyeWc3NmzHm9Zt+W5aRY+AsZ9524Mf9djnbwuOnjR2YOJ6/hnP9j7SZJyFb9zJXr9/H4cow6GxG7cV52CoMzdclCcuabP3RbPq2wrfRxU2HpkFrncbqVUtO/8kDw+5aAUCIaKam2URJfdeVKgsu/b69eGIhebnUzEw9Ohj6wz9dbJJ+esVc939iEzcW7p3avxx6cKZ64KFy4sTAJee2il40pxqFFDADdpo6Bfbp9uekVdo4TSHaQGbvjQQj/SuNUaAz0SU4SkmqZ1lf5KU1LR2JkRSC8CE4wnBYKL767qrG3uq2nqCx/qXL1ksQ3Hwr0VTX21TT21zb1VNVW3yk2RuOdu4En5OXPDZQ294UM925r6wo1vL1loHVSSS/DC/ZXN4pW3cOup1Qtd7205uQur3/nixt+Hb/x4I3ozcumdnXJ35OnjV8TbbuKRzZULX1lnmMQjP3vfRU74uP2kYEic5r5+/sXYDaB0/4dXxVW5GY0OXbzwV/t0Ts68nR2fi5ewbvx4Y/jvNwblm1yxWq6p+hguzgtlkciNvw//MNAujjBbkXNyly19uS/c1HK3XcwXr931fTc8PByJRCLfXRWUzvr+JKXjw990F1vHxUScuS998J31ypvgfNYZrMrOwYjVwZuRwT9dGYpe6YodOXq69FBf+F/BXEOB4PqD/VejN6MRUeXqx/aLfmaUvHiSdZobh8BEYg8dFIlZUFvv7kU+3i86XrC189KQlXAkGr1+pafOobACBLHjaHjym54LMZKLyHVdEcA92G0uwAG3ZEVjZCR+fNxa1PWIJk3IhLIi6kNlPdrYaJCDUUgqB2MEqkwqGjszAulFYMLxJGs1nFo4/U7DZ/qfzFp2yzTnzSzy/Mi41uTMWJo3Y7YJzYJpBQv9vNOUk7usZPP6IqchOavFs6FycdqaTnK5zkJjajR+lZ9bWvaYOIGkeObMW1u2Ya3z2Cu+ir9btXsORSs2PGk4Gz61MNc6vyUzsavPKy2Rx5zjGhUdl3xRb6VorXw0Gcu5aG1FsUPI4rp5W6F4lhoXORSYW/qYEzxmmlv62NplsaJSxV+xYFWF9cxUbbFgVcVjhj5WlDT2rS8hxNpfKyNMkqunjACGoj6bZEwPBw8T8vHjA2dvQYYyLlZKqsaid/C0W2nHIdPkk2oREYxCUqHYmRFIOwLePEl8iU80mkHvuyXsP51mujO1Sln3SUpDgxiDQynDKkWPtmhkD7ekTGg94T3DI2zCIB51J7xpQUPVgcYCncYxW8pgBLxHrIeVmtymjGQG6RrYtEVwDgSHFSapgYMUPFJVPEdYRD60RSiTCo5aipBUEHZmBEYJAQ+ehPefJhJP8l5BJIiYimnBFNGkoK+bVE+daet0oaFJUp+Ry7R1vUUKnUdbCYN41J0Mpqm8maTuvWX4ZaUjVk91JFY92kg0NBMp69F0H93TOLX1UCPX6E37XEP0pvV+6T6sYQTGC4Fs5EnpxVqZ4XpwxYEW4awvbdINDmkRaNPG+HDwbg5uetreFdnKCIwLAh4j1sNE7/ojH+poyIiAYpVFeFIrlWmGijOKaRGUfDxiKul5eFITao0cZxqWZUYgLQgk5EnDw8MTbD+Jrh2jOuswt+WVUJYSaoUs81GKSJheUSUaNaUs03bd4sPHoxX4uAXxqMsmRmA0EMCYNAaHVR+x1KTX9bbq/oqGVqcydYPeQ0l9qCyrQEOXFxpthLIS3zsanL3dFGtqtZQgXGQERgmByc+TUqBKCSet0UFR0iKV5YWExm1pSyHthEOENgpZqeWmd3MbjTyVtrjICHgjgEELQfeHSRmxVK+Y8AFG+ugx/WgQn0ZLWJHWks40BypTK2rpDglb9HCgYT3c9EwSOrMDIzAhEIhGxS+u4igSpU2OegLuJ9ElSV/7El4YrAsJPamDXotqqCxrQUMFBEwhbdR1E2hDkBVnN73iJhHWlaxhBMYeAQxaRVAyoVZqonopKwvISCYjgqNFt2hoWnoai7KuElNRwurWEDLxKdCACWNSZ5/x2Y0RyHAEKE+Sb7eBKk0SnpTUBaCTnK4I0CvRpB5KYxFxqBWyFOi/iJZ2Aa0otwHaEPWhepYZgUxGAONWF5A2NUEpBWrSZcXZZ9EjDkxKKOghUAeplBo4UKUyr7Hy0CApyG5tGUNRZ6MDKxmBCYeAZEWgREaqNPHOJ6VwGTC9ZV26+sBkXHeoldaicWRFxRNJuunh4EfwEwQ+ynqKVCFITz/tsg8jkAkIYGy7CTJJalXSpiYqK24+i4hA26WycTFRHIxB9MXEZ0oJ3WRzihtyoILioxThqei5yAhMUAT03SP6DE7Kk58n6RMbGgjeFxhuEOAvNbKoW+GWsoCYiqAHhIOSDPTKEqxHYI0rAlOX5t85Nl8ZUHx7YYFrGhn8PUajnTMdxj5lJSW9luLgs4g48IcGAkxuAjwh0I83kN2qp6CnDaE6lIoAB12gnrqVNYxAxiJAh66UZargScaNpcnPk4CLfuU8TLqz1KAKBCxnlIK4VU9Bj4aMghIQPm7Z0iSlrEQYp+KcGb/etXhr9V3z5oxTAgm/MWhx0a5TFY+viU/vvpp3nlgVT1x+cvvdix9fUfrovNummWOu2r/7X7f9v4hzz7ZqWhT6UPnqVztX0B/biW8CdbNNwPCWAp16ignFtEPkEdnDZEwD/lRQOmWsmLISDSECNMrK4L04KLUQjQVGIJMRoONWkRWepBxXmpw8CRDIa0bm/NLCZ9qW3BtSHLA2+bnGOfu6L/Uf20R+twTV9bB+Anr7ICZ6QTVQoqfSqhRpFcXk3XrarXnPvFle92Rc2LwNa34/UHeiq7yla/uZgep9G+Ks/ilCWUP5q7vy/PsbPIuLXj2+vMzAb2Zu7qzZ/rSW2PJd7z0tfu7X+ZuxYXPL/9n96qHNLx3dffjk0yV3xkzwKWnad2D3PBTn795Bi7Z+wf7KppZ5/LXgDrCAy2MkUxOVUTcpARH81IKzFPxUkT6Yv4igLCb+Q/nxpK0gAZozHKhSj0zddCtrGIEMRIAOWl3WeZJOlSbbczegoF0t8Sunjz9s/zQbtaIKVi5qpXLOkS/Er9AH48iW/+o0lFGWoWBCZGg8VlI4uwkIAgdoxkaY9crZ+tZdtK27Xj9bf+SVW+Ud8YGGZ3t7Vz5goBe0ill+7nh955uztDur2dnsVramc2DTc1rrU6vKDnUu/ydNH1y+6w+PzY+Fum/H/9ldY//i7z+WNL3U8m/36a3rPGnXBj3yrHk7ep56olitfvvTK3a2LLnf8NOHqmcsKz34BNZg3EoBvVb0tAifZAU/QRQfFH22RVcbWZfObp9BjG40MnXQM1Q84aDoaRCapLebUouLjMBoIIBB6xYcDlKQblSpHNwGbZI7SRm4nzQrv7St8lBfuLWv9rW2onucEyF3VpW+JpThQ6c2bCqz4VjVUlMTnlfTWdvaF26O6XOmrVu8q3NHq/Cv2dNw90xxY5hX07Otsae2tTfc1FPT2FPT2DLPuZcAL4pyycGPBq9bcF2/8oH8EfvavsHrkRs3xE/iRa5HItcjg6d3imWiqvvrH797v67IWjLWt39+bejT9sec4DRmQlnPJGdt8/vf3BBX8WZk8MNmuXuRk/t48x+/u/F36/L9zxcdW+Uv3u/s+eabniO9X/8o9f/ZvDY/J3d1+4UbX79b44yP0o7PI4Oy+Fj7x3+NyAEx9HlntfObtSXN57+VHb957VLHTvnDt66ZL3tl08mB+t6BuhNH1zT1Vr74iOU5e8bW49VnpP74omXWrxFXHg2f6g+fGag/0y+EU/3rKkOBoKQm+LlisaOzcqO13bJox7oTIkL9mbObX7Q3mX72Ynflnl3L3zpr6XvXPXW/aO7BhspT/eHTwllGdtII3Vr+5mYrvfqTXWvKLec7q0tPnC1/zpKDs2ft697+VsOsO0Pzm0RKdb0D9adlekdjBKikLfzy3umGC/oPM+7+x59Af8e8VZsXznaK83e/cPg3D0jcfrJg+Y4/7Dv83r6WY0/saI/bT/rJ7XfNyDMRlwdbahsaZjrRbPzvbaxq7at6xhn/ijU7ipgj+h2amqhso5c8PnoQqZEBqRXJQOmnUdSizrQJqvcpeyfgbZVNwMeYnuLjMyt2YwRGD4GEIxYOSg7Qu/EkeX/MPJ70YEvtoY4l4hxrwe3lHbXy6cPUipIDfZWV5VOCocCd4fVNPetLrI/UJW3h5s7Vy5cGgrNyl7dUtXYsKRC3nJ9XnardHc6blh+YunTR7p7aHVUOHGI/aX1J7Lbk6PMV+AKVfd9Gr114Y0tBsGjjGxeHold7xE1d/GE/iVZ5+MjlGzf+8+C8/JKOK9HI5fa1sSaomyVvW28ROMH55N+ubfDR8qnp+Xb4h4HmjfPyf1HRfGEo+u3pmkAwtPHdq9Gh8y/el5+Tu+zFPw5Fv+vbKPa3Xnr/h+Ebf+muvi8/576arm+Ghy80B4KhguaLwz+ee1E+KCzpHoxe6RJ7Hlu6/hod6t9fFAwF7tv/sYi8RaTxUOdg9NrH+5YFgqGifedpx5EkEZ58+ORA9YHqvLzQlH/es+n0QPUr1i284mjd6e7lK+cEgnN+tqe7/mTbXc4tSttP2rWp9+ya1RpceVtKTw5Uv/qkuOKL9mw63b/puQWBYEhUP9X1gBV5Rl13/WnCZvT9JLE7dXbdxuJAcHZe5dHtvV2L77YaKnmz+kz38gdCgZI3q3t715SApZn3k+Zt76mpriC91rJ1ehfzmbaw5sRLuzb8o6X5/6pO7Dvw8q/+cVrop/NW7DoZx5NiVZQgBXufau1YfLva1pT87N1MAlaYJsYbObUaHRDHj4BoyiaK1MsIuuyzXZ9ufvKEDxI2BocV/roAH9ov3Y01jECGIEBHrDElOOhWaZJMCNtIRiGDnrsV7uwj96TigtKqmbeHAg+21DY2YmMj/4nO8J7ducFQoKQtHPvMXVHS2FdmPfUQPGnP3lkzxP0vZ/r/zrur0IHpkRUNveBJjlIlSTm5+dV9Q9Er3Stypan0+d917vfkSYFgafvnkchfrwzdvPZBndzdUe9w+hUyauKyqv3oh+Fvuh6yHxQW17V3vC54kvz7xaqKjZu3bGw+d2P4i3ahFDzpz0ds5xXvXIl+/1G10O//+Hqkf5/QV753NfpVZ7ETIRAsKi7fsnHzluZPItHLx0RYiyddaK4R/Mmyltzn3pHVb1b3di1ytkMWtUqeNNsRZMXqdafPPuxwU788qeJo3am2OU6eM/b01h955RbJk/DY7u5XKnt71zzopKfxpPi2ipcfG9i81aZEs/b11p/orhT0S24sySBmnlS0q6+yUu6TOW05ieFaxAuzxEO3puUzpNv96w+892ypc6xbee4WX5HG37a+9dSKBVTDso0A5oiRCkhIpY87vMmBqbSoBIdV4VIJW/fIP2FdNwckoyQp/anVLUKyvfCIwyZGYGwQ8BjYHiYM9YnFk9aseM10T4rjQ4QexenJXtHUNUU1HVWHesNNp/5lW/hn020mlJNr8yQKnL5U5eTmt//XsM0btDuicT9JDIX7jl26GY182gw+5zI+igtKw4vo3/1xx1CQm6jefjkavdwef2Zc6Ne2X/g+Eolc+/q/vvjzX4aGh79oF5TupQ+GopInCZ8jl+U5qkAw9PR7V6N/ai8I1vR8F73QbNO4kuaLQ5FI5Psrlz6/PPh9FP0tOdh36XvxPC7y/eUesaPmfkeJpyYOPRJsQzwXI3849BPPXUKBoNhPAouKIRYfOeAU46vH70U5PgiyqDUuh/peZ7tL9KhszYmB+mMN8ee+08OT5u/ecfjYY/MdYhTY8PRhcoyJeRIu0EgETBNlZVenAAAgAElEQVR9/o4krLEubUvKupvuo3gqRRlhNJJXMvFIVTdBkzAIPFlgBDIBAe8RC6sx1Zzc/InFk0JFu/qqKnH8omBawdLcqaHAQ21hsp+Uu67DPi9i5kmzcu9ceut0sX0yZWbZ4vqecH1YbD6JJ1OSJwkTiCRdqoDm8x9ei37V6VAEsemCbRUXnlS0/5NI9LurPvaTypfsbCuz/tbtbFu3s62svJxePOQglOGPhqJXOubZW0RiA2mteCJ28E82IRPO4bM/EJ506YhDawhPErtEkYvN+89Hrp9/0eY9zRduRi4ctDmT6K/cT7pv/cbyUtHxuaVPN58fikY+3ucE1AlTyZvbDftJCx44MvDsntW0U5DjiU4oEBTbPJU7xDM16++R5Uf6y5+bF3jmeD3ZT7plR7fkNPHVE/CkOQf66367w4kc14tbd3TXd47KfpJFktYXOXtsonXeT9JHzog1mCZSMF7lkSvRigylFLGGQKDJGJ2VlOjio5hSLqJdCEooN72b22gkqbTFRUbADwLeQxdWfcR6mOTknWA8Kbfs7XBTW5F18nrKvY2VrW8vuj0UmPp0aVPP+tKlAsrbylc39D21ydqDMfOkpUte7tvy3IafiG2Y2XkbHFIleFLh4j29z22NvZcu4ZNXCFCK4r7zkaj9BK3gic7BmzG6kLP/XCR6pSv+BFLJkcsR61iSdT7p4kHnTLTbtUdbNAE4w2o9MosOffjSL3Lzc+Zt6fjLcKR/fyAYav88Gv2qsyQYypn3zMGBuP0kM08KFjX/KTI0FPn2PTy2O3YpGh3sWC8OMD0hTj7ZPOmNi9GbVzqesPjTfc0XrkcvvAGGMWvm4y1llVXTYjc5cT7p2T3WM6k7tqw7aW/Y3LK9q/708UWLrIdcdzy5sqlhlsMbBOM52TbHKQaCIYuytN11h2hlSrlziiivet3p/k1brat8x5MPdw48+6IgXl486ddt4d7uBwqRbShQ2ra9t/fhUus7mfKKF73eNl9axfkk61iSOJ9kHVSyeyQY3vYD1jmtWB9Dt2/uDO+MnSHDZdKFGRuebjF8HYA4n/Rq7d3ixHfer2pO+DuftKChsrWtkKRhNSc2IwvmkD6qDllkwjTRl0X90uga49SjboivK6GhPlSWDopGFpW6KKZLQKMQlMhueje31OBVonGRERgJAhi0VFACUpMyaBOavM9xy+NKGXQ+KRBcfHdVZ21zX01TX/hQ5+oli20sFu6taOqrbeqpbe6rqnFu1WaeFArcE17X0Bc+1FPT1BtufHuJ85V9AqyF+yub+8JNPeHWU6sXxt7tlzgS3Iuq37kcuSnea4vejFx6J/baV07u+vbPrcdSNwVZ+edgqGBr37fRyIU35N7M+nZBmY7Rr9UhYdUWtXbFfQ4XVZCYrd2XrkeHb9y48ffhG190V8+zniFWdg5GotGb0ejNyNcXvpFnmORzNxeeJE5zR6NXOuy31kUrTx+/IrpxMxqNXLnw1bXolW7r3NL6gx8KvdXx6NCn7aQjgoCGm1rupvfmkibxXtvp/rozvdWdeLB1/z2vdId7B+pO9ded6a/cYx3HlrWsb0uqP9Nfd2Zg+6vyLbb75zf11omX4Abqz/Q+LN9KE4fPGipPyQgD25t2yC8O8OJJwfsXtfSLN+/ODNS37REHwIPitbvtZ2JB8vJCgTt2lJ+2WVcgOHvWK731J94EjQs43anvPfvwIw7nuLeximxn0qsZLz+w6z3xUhv52/Ev1umun9z/2Kun9x0+ubvlZM2rx3zxJLFp6uyDklbESwA4YEf0Tqr00mSBTGdKUmikqyKNQ2WZDDSKAGtSOft0VtqSRaUufBS9UjTWVXy4yAiMAQIYsbpAW6dWqqd3VeoDecLxJGvFn1o4/U7Dez1TZlqP4XzcAET/ZyzNmzGb8koJSiBYMK1goXUfjTESx6Tcb5aVbF5vnWiO6WXAglUVj62yH1op18OjiKtCBd0fVpgWPvZMiXi7zf6T+qK1FcVzY12AczLCshL5lE2F1NBxEXZqYe5tMSiEJm92IDjn1kULAkGxGVO9j553nnPrvb+SOCspTZlXfKu1gRTT5y3IM30Z95R5xbeQzaeYv5qwk1VBcV4B3l+Tytm3LEoqiJ528ZKXe8pWOl9R4dZ0Iv1td5IvEUjgXLz81Z7SB7UWb99dwYe7CXRyRiQeFaSKsmKirjK5oIe/1OhuVKPLqA4TXZFoK2mR0YreLo1P3aieZUYgYxHAoNUFmjO1uumpj5SNL7gpyozaT3JuePFLG+2wT5liIatIDZWpD5XRBJTQpCYgDhXcQsGHOkApBZigh2YMhUdW/r6/8vVdd927oej17rq4Z1hpu45j2B33nBc2VL7WMHOsviB7WunbVbu2keebdmJTHmmr3bNb12cERCOesGPQCzpZqExZhZ4GPKlA3aRearx9YKXVfcqoC0GvqJhQlORMFr07q8dkDSOQIQjQ8azLMkmqV9KmJioHgiGFEhmLk5YnKSsCPskBIzjoEMNHCgriKRRpwITV4Uw9oTQK1HPs5DvKil45uumtrk1NbxbJ75OcCPfLFPCZtrJlQ+wNA3dGNfLuh8Kle/a6cLJZgbHiailAlMlVMGVoklBKgZqMsuLvsZ74DGhsRVfq7UKjOCt6FKkgq0CjROAiI5CxCGDQegi4p0sfvS+0LqxGYqQos4UnUQQBEFDTNboJPikIiIblleZDlVSvNESDUFlx4yIjwAgAATlTUISQ2gyitRBZEZTpjBZTE/QWqYbGhB5KaKjgscKgIguMQAYi4DaMqV6R/fRCoUTG4iTkSRIpCZA3arD6QXMkPmhIrqG0SGUlZ71F6ixl3Yc1jEA2I0DniBsO8IGDz9kEN0TQBcQcuUCDI5pRqbMf6gZZBlGKiMwCI5DJCGDcSkGmqiiVop/uGImRcrh7kvMkLB9GvCjcRoeklN5XSLEai2gOVmhYYAQYAZ8IyOljdHabWW56JQiNTKtQWamSVJHGx9rloaR7V8jBTUAmcICGBUZgQiCAoUtHvjJTqI/iZuyjkSdJJb5aaRLyJAULoKboAa6uT1aDJnQBoXSTUSP9YUJ1FhgBRsAnAnL6KM4ec8rDZAwCJSpCgCk1QYmDorLcUz1MitJYRFaoBQ0LjMCEQIAObCVhaoKs+OhFD54UjUYlVZr8PAl8SF8aJJQ6cElpcD2MAkIpVuhpesgHztSNZUaAEfCDgD59dI2M46Z3a0X661Y3ve7prVHyQdFt7aLtUmfIxuXFOwe2MgKZjADGtj4pZNrUwc2HdtCbJ0mqlL08SaJJ8UpNplfF+zrpnmhRMSlFuLHACDACCRHA9NFZAtZN6qMETGhS/NNY1JuGBpnL5qhemnQNEoMJGhYYgYmLAMazMinQI+mAoreQkCdFo9Gs4El0uQRkSUGJWorgdsGMeiiVIDQ9XHgPZ706axgBRgAI0LkjZWWKwQHTTa+rmxAEzqMhIDcZHEU9H90kNaORFcdkBDIHATry9XmRbJ4JedLw8HCW8qR0LSj0gtHL46anPlTW/aGhbiwzAoyAHwTk9KGemFAwQYAbfKBRBL2K4uC/6NaWokdRb9rD5D8N9mQEJiICdPCPMH8PnpRF57gBIpCVnwuhH4mAmAqrddO7tZWsv1sc1jMCjAA2fuisxBQDPlRDZTjognTT9Ulp0JYxGqyICQ3tjrR6mFCdBUZg8iFAR74+LxL2F9U9vo+bfjVAtuwnSeAkOglB1B0Aq3JJktUjMs3ELQicWWAEGIGkEMCcorXopJN6uCnzmtaish6BWhPKtDnISi1dD40UqD81UT3LjMCkRyDlwa9U9NhPginreFKyo4diCpkGMa6w8NSt1KTLNDLLjAAjkBoCdGYhgvdkhJuHoEfwcFZMNCXIio8s6lZopIBaVA8lC4xAliCQwnykU0ZWl2QIj9jAjaiQXTwp2dGjYKoUPaLB0+gDqyIYnVnJCDACySJgnFl0VVUclKJsjiqTTUDxp6GkrDjQIpyNSlodnrRrtBbLjAAjIBHAZFGK4EmUGCky8ySvnzUFsnIZokWPhYm6uY1R6uMRyq066xkBRsADAeP8UmaxrC496ZEmpW5apieN6ZE2TUlpl0bQ5YQx2YERyFoEMF8oAlB67yRJwsQ8yZUnAUe6YFEl1RsvAHWQFakby4wAIzBKCGC6YcJSJkQbhadUwp8K1D9lGQERARopQO+dqlKLLjI0AsuMQNYigDniNpUkMtJN2ToyFpknJceTKO766kbRp+sXLhtVZu0g5o4zAqONAJ1omKcQaOtGJXVIl0wXATcZbcEBGggwSQF6FhgBRkAigDniBgh1MBIjRck8KWmepFAl/UrQawAZgu7PGkaAEUgvAjpPohralpyYVJOyjDkOgYaC0luQVeBDI7DMCDACfhDwmD66SVIi+fSNfhcApUrMk0IATgr0MlCTm15Zf2kVXaZBWGYEGIGxQUCf2mjXwwQfP4I+2fXIuo/yoQtVqKef1tmHEWAEgACmDzRSMOrBkygxUuSs5klATREALtVDqSDunycpEbjICDACY4MAJrLSnNQryhSKiK8LNJpidTNJPZypG8uMACPgBwE5feCJ2aTfr932kChVyl6eRIHTZYmvogfo+qdAmJQqsggrC4wAIzAuCGBi0tbTMj0RGdF0jWyU6mkaynqiOCueXGQEGIGECLhNRvAkTEbKhyArL8FlKU8CRkDTuFS5KeVFokFw2agSlwRWFhgBRmBcEMDEROt07kOZgqBH9lg3PBpV4ijFFBLjKoxA1iJAJxpuxJhTVAA3gqCQpGg0yjwp//9v7+t/o6zS/r9/xrgwVJC1U+WtKBWQFyvFImwBkRehiK2DPBQsRYpALW/loVCxK/A8Aiv4iJU2iksfMLwsC0pKzLoJZmOfuDEbg9kYkk1c4w8Yf2hCwnxzz5n5zDXXOfeZe2ba6T0z16ZrPue6rnOd63zmPuf+9Nx3B3olUfqUnVpAt+5CEsTDIkAYEAb8wABbm6qZZWHIyTYHKpU8DoFUiB+UCpFNgDBQPAzoq4kuSbVaVQx77saaSjyJTkqhkxi5bDd0+zCK53KUmQoDecQAlAdA9sUbNwG6b3gcwi2Px+4SJgwIA2AAq4nesvVV/8CoMggjABwsAYhOSq2T6Jank65Tj49KgDAgDPiKAeye6VaFjnQHUEngojlh1ONZLxqpMM0jWBgQBjJggC4rdNfXl9JJ+oM2KCQ5TyrTtzAjuUwn0RhgfBIChAFhwM8M6Ks+ZbVY5hTYe9kjqZdhe1rxCgPCgBcGjMtKGWl30UmuXyBJaWIY5DK7XSrpwWIRBoSBwmAAe4IOLBOkwXoY9VKsR4pFGBAGMmNAX1nKorLBSw+TKMaR0v3794v0uZuRdxDn9hsnDQA2phKjMCAMFAADWOZuwG2OiHcLYL96WcLEJQwIAxkwoO7jdCXqlkAwFIlE6JtJSiqx/xayTgo3daRFLgh100kqG8LSSu4x2F4z9QID6ENYXDSYhbGmigw3ddh/aELBwkBhMIDFTvcEaqR2TJkGwAhhRC2ChQFhYIgYwNpU6xELEHY1LtNJOEaiwK86qaS8ZOwEnb7fjJ0yssTrAzXj/V7PCYtxdwPFCEuAJxpWr145Nui1nkRH9y4pa0aADlh+GkAlDgsLBEOIBKYWFU8tFOtePb9YhIE8ZcC4J9ANl+25app6L92Sp4RI2cJAXjBAb9xYfWrlsvrzWCeNnde6+neVbD6BksU1jc1Txth0CRUERsxzxiULqKQbn9GYyDC9KRyuy7FOUqPrU0tUFZ2RLmVYAJo00g1DPylAR0c9SChAGCgYBtx2AGqnO4aaOLxMUVF7wVAkExEGfMiAWmsojDVh15+70WMkYH+eJ1XOWdc6+1Guh0bOaq5fvpjO0ILpLd8SBhe2MLXr0aYrxYOkk6jsYBjl6QATBEAMLABwMYAANa6bFzqJhdHurK80hYF8YcCy2KmLTceji4YpzPJIUxgQBoaaASxDfSDju9tQSAr4UidVNNa/9OKY+ElPfGJTZ7zUPq+Ci6e4l9txC8c9nkaOW9C6YIbzXG/s3B0KPDJ/56LKaQ+MKntwWsOKjc67OPXrmp+c4Hx3QFQ5TZ++etuMisULwu2OVnhxZUkwFEjopPJxv9uxeuWLD6uzrpKpU5a21jd2hBvbVyxdPCbxoHD+M+sbpkyuW7Teyf/S4mpVklup1E4PclgvFoZpKjsTXrrQoRYWjFSMQ4QhwK0GBAgQBnzIAHZPHahqmZ1Owc3F7LRJuwsWBoSBXDKAlcgGpS9xM3mEph910oQl7YtmaS8nlb64bF24jIsnLo8UBey2zZqBYGjk7G31S+YHglOmv9gRPaOaMG1V+7yKsgfK161ubK2cNM4RTDObXtrY9FjsMd/M2eGO8IbmGZOnlzw8ZWxpuTNQTCeVj6tprV/XMGFsrJgJS9rrV60cWxIKlEyfsaaDPEBcXNPUEQ43PDZhSsnDU8bEX8Ci5blhfLQI0AFiIKqohWkd6kIqamQY2ogGG42sozSFAX8ygH3TDaiyqZdNxOiiRmDWUZrCgDCQYwaMi5F+HzdUkQ78p5PGPL/I9BJS2e/2EMFhlkeKd3Xzpp8BvbXH7OPDK9esLBmzYlG4dcW6dWXBOXPWb5v2UNnEJe2ra+bECZ0246WORbOVYnN0Us2M5HEdnRSeMq+1fn3jY3GRFH2Jijw0nNJQ/0r44Zi8W1zTtKdyfHIS02vUmAidBYxUnVCMYDVffda6xSKekA3jwuKJYW+KFjkFCAM5ZiC+zJO+b1Y3Ugt7FYm6UDw1snjECBAGhIHcM4C1iaEfGFWmqyLd4judVDJnR/Skh4mJ+fM27phRyoyGJpMIVEYkq4SaBY2Nk6Y0rKyZP3VV6+xJKxa9Ei4dVfb48o6V82Zhd3vMac6MchrVSdOTR5ze5ORv7AiH6x7Gw7VH61byP6Fveiyhk4iEiisJViRt4uMEwCx0gBgFEAC70aKGwxEUHZ3GU6zn170YVIAw4E8G9E2TvXaNshGJncHuQjzCBAgDwoAfGFBrU1WisK6KdIvfdFL0JaQpyXIkGApUNNavib4SFNcWdsbZbZs1o32nTF/TWrO8tWZ6aGx166IljS8uX/jAqLLy5R2ra+bEk0+Yuqpj2Zwp0aaLTtrYPGWs43pp+eKRqrYxKxY1uUm6xTVNZp0UH9HwJ/pwKYC56MAtEnZ0gUUHbjGwQ1fRvvBSo2BhwLcMQMpYpA+Kp8EsnrpoPLAAYUAY8A8DWLD4jgBdFekWn+mkieHVhpeQJkxZ2WF4Y8ldM7HbNmuqz6ysZk+4cdvUMaHApHXL1u+LPV+b0vDShqYp0Ydov5kYXtm4Y3rsEMtFJ6nvBRi7uGZDx4rYyZNT7UvLF5dET5h+M/HFZ+aoE6lQIGjWSfQaMpaqB9AwivVIu0V5kQFAfx5HXTh8QnLmhV2AMOBbBuiOSYs02mFUAPHUDqMAYUAY8C0DbAnrqki3+EsnldXsWzZ3Kud3zIpFGxsn4MGWuzxCR3bbZs1Y2Izm+LcfzZ+3MfHa0MNztr3U2P7S+vb6xj3PVETf13ZGtOqkYCgwvm5FY3vN9Gj82OrZq/eFG9tXr2+vX79txsRH44Vlq5PURMzT0WjRw4wWGNkTN3ZuZPRSY3yO2lmgVphECgN+YIBtl6oki+6hLh37YUZSgzAgDKRkgB0J66pIt/hKJ82pDDfHz28St9uS2U0rF85POXkaoO799C4OTMPc8aMj43+M5h6TqNAc43ylOBRSquC4mIBq0XNSF6ZDAetijGcx9ibLYAmmkZYwcQkDPmeACiC9VOplWA8WizAgDPifAV0V6RZf6SSvYsL/1EuFwoAwkI8MUPVjrJ8GABsjxSgMCAP+Z0BXRcxy//590UkizoQBYUAYcBiA7mEn82yv9xjGeklTGBAGfMgAU0V6U3SS3B6EAWFAGIgxYBRAMPpwi5eShAFhIEsGdGHELKKT5A4hDAwyA3JbzXLbGsbu+OxwnqRbhrE8GVoYEAYGnQGmivSm6KRBvkcO+kcoCfOOAdxZ865yKRifnRsQioQBYaDAGFDCSP1ruPgvVUuik0QnCQODzwDusgW2oRT8dPDB6aDg5y4TFAaKk4FIJAJ5RAGVSvIe9+DfJovzapNZgwHcZS0WuAT4hAF8agz4pDwpQxgQBgadAfXv4FJ5RDGkkugk0UnCQOYMqHsqVi97r0XZcd9FmAAfMoCPiQIf1iklCQPCwKAwoFa6EkaQRPR4CUbRSZnfIwflo5Ikec0A7qn4q3I1HdgpyOuZFkPx8mEVw6cscxQGFANqvd+/fx96SAEcKcEuOkl0kjCQFQNqsUEnqSMldsdFU3YoPzOAj9LPRUptwoAwMCgMqPWu6yQcKRWlTpq5r/cfv8Rm/veeBNH1R94/srUi/i+HBHbf/OHXgYHozzcfJu6g7/9fzDhw52YLgqOgYkXrkZ6LPe+0Lp2ZiE/kTw422D/8Vg038Oudz3ZnlCHlEIaAJxt6WhqeydlwrgPN2Nny+51PGmgx1OyaJDfd8VhNDQf1g/srAGQTCqMuGAUIA8KAMCAMDAsDak8uHJ20oefr7/50JEsqN1z/KXL364MLQoFgVdWCKmRrufFT5Oe/JqTPzLqXm7ZuaHr/q7uR784mbsxV9Vs3NG3dcOlO5O5f9yZu4VV7r98ZuBe5e+f2Dz9HIgM/fdaOzEcu/+PrnqZEBozIwYJ1Tuamaz9EfvmizUN8YvRsgme9dn7Paw4bw/zz1IE9xw/MGvYyvBSg1hU7MYIkglcPoDFeBpIYYUAYEAaEgSFlQO3YODQCyNfnbnv/8kvk9rksKeu5Hbn7lzc9J3nzi2SdFOt49naSTlp18YfIwDcnlDaqOvK3gci/b26JKY9z36Wne9KNz1LfzHrt/Jba4RZJgWDoqQN79jcY5jIpfDq8fWeZDyrENQMlpCxo6oAKI5xCqTBkEyAMCAPCgDAwvAxAHgH4XCdVtfTevnsvWu3Pt3vfiIoP9UzqXiRyL+lZ2JZLdwb+9de96jlX/bnv7v7yzYeNbnS3XL/jPNhKJIk93rI8SgsEvemk3X+9G/nli/b4bb7+SE/viS3BfZ/dcap1ZjIQLTv6qG7vjZ8G/nFxafzGX3Hq67u/ftuzKN43qOmk+ve/uBNNcm/gh7+8P+ia5rfTyh+MF6Ooe2LrllPXO8/cePP4kZdbP8FTOecJXePLS/ace/PMjc4zPbUTVK/H57324QHHcv3A7w/MeySe6ommpuN/7jxzo/P0uaa6OWp2C1ovvVr38qvKfurD2qfGYNahkeOmPFKaaMY/xMrqjpttXR9XhXTXsFl0oQMLk0pqFjDSZnyCwzYLKUAYEAaEAWFAMQB5BOBrnVRx6tuBe3cu734uEHyu5U93IgPfnoi/7mM6T1rXc3tg4O/vVwTX9f4zMnD7XEoZoZ8nuTxKUzcwbzop6JQRGbjzVc+RWv4MS9M9zTd/jPz0WbPKX+eUfYs+TGTxrZ/9O3L3/97fMDNU8WrPN79GfrhQ535lr1l27GZbF/k5dmxSXLi490q+VS9Zd+rGntYXp4wMPjp5y5bTN/BUbtZr5zvPXNnWuOLJyTOmzJhVHk04reGjzuNH5k0YExo5beGeTzvf3DIhEAyNfOnV039uaZj3aCD46Iy21jOfrqtyyliy/0bn0beiwePmtX7aeXTnlNRVja4c9dvkCtOd0WDHQxWheCghHBrpJ0nohWB0FyAMCAPCgDAwjAxAHimgi6RIJOKjv3fr+Udk4G8n4ny1Hunt2bsqdps06aRQYNW57wYGfrzzS+Tn+MGS9b6o66TYWOxRWiyJR50UclRd77c/3nVIvvuPiy1xbRfQz4eCVe//PRL5e4/zzrjzwA6aSU0zWSe1/fVu5HZPPJvzctU/LyZeNrfONM5heiLjqQN7zvzPkpGxzEv2J+ukN9mLVgtePn5jS238WGjyzlbVt/ZkJ3nZaMGeP//nazVKJ0F1hea/feDMHxZmVuTw9oLiYWLIKJJUjCoYHQGGdyIyujAgDAgDwkAgGMovnbTvi59d3x8y66RgqKrndiQy8M0pvDptUwZDppNig1Y193z1cyRy+1z8yVqy7lH6o/Prgcid3lWhLTcc3ROPNOmks7fZ55f0XhTXSZWTVrRV15GfFeFRPMZGTiAYSpY4XCfxV4gatjhP3OjP+ZefCkZPnqjxRme0I83mvJB05uSSfFyiVOVQjLkoI2QTANNViBcgDAgDhccA2wcKb4KFNCN2n9XPk/z177sl65jnapsa8Wf2Zp0088RXv0Z+/Ndwnif97sTN7/52Lv7idihw5OuByO2emEAx6aSg8zTtxxvnvvpVl3fJ8Ue+Hrj37fvx86RU1+Xiyte7w/vIz+s7H05TJz114D8t50lcJ61oOPXnpiXx86R4eRPWfth5dPe0eBPKrHB0EqbGdBLbGVlTdBJ4EyAMFDwD+vIv+Cnn7wSNOkkZoZl89Nxt6YU7kYHbPfXOzbWq8+u70XMXxf7SS3civ359JEk0RN9Pcl5Lir6f5LyohLty+aT/OB1u3j4mYXFcyToMwaFANs/dnFeOBr7rVV+/9NzBW7+Qv3dzZNwPl9axC6ji/W8j9yIkDJUk66Tgka9+jdz9y5Ho+z1VG3q//up9noplzrbpvJ/U2hh98/rBVa+eSn7uxnVS8Ontn3YeP/C0ehN8QlPD9ped95Z+u2XbmStb6qZFJ1X6dOMR9cp2Jjpp1Nzt1emfimVLQvI1Y8lGt0KFaTD14gEcjHo87StYGBAG8poBrHQ6C1n1lA3/YKNOgkJSwEc6KRBcd+LWT5F7kYGBSOTeT1+dILJg5ptf/Dv6J2/3HOkQCFY5X3qEF73rnReVvjuL+MWL3r7ZdvL0tOR7nq6TnKd2Sf+LHgU5LwYl/U99m4A5OBiqPfHXH36N1XdYnBsAACAASURBVBbBn+lFh649e9v5czXn/3d6E3/XFtVP9KVs7RGb+t6mijcufnc3mnkgErn77fuvenq8mM3191TbHufv1K68efqTPcdT6KTQyDlL9pzvPPPnA6eudJ45/+oKpY2C5QsPtJy+0Xn60oHT1w/8frcSUpnopEnNV9syeBs9+UPPhg17X+NWyM6N8NyNAnRkwD6ceIUBYcCfDBgFkG7EevfnLIq2KnqzZ/JINf31Hnfsc5pZ9/L6OnI4hOOWUFX9Vu1vyhLepI85538qVbGi0VybPp3OtB6ohSpWNL68YsgVkmJv5JhQoLR8wrhQYOLK39/Y0+jh27pHjpvixHN18ugjM/iXDmgxeq8kS0XLZ237d6bby2M89iwoGI8dEaZnYBbaxCjK6CankFyAMCAM5AUDWOZ0Ubth7AN5MbUiKdKik+Dy1XlS0m2yED+k52p3O+96/3i91Y+zq3zp6JWW7Q1PT168cHvPm2c+qn2Cq59cfkBrlh27WlujvoNgSMalG1wGHwe6070PRpUQTRWDJoZTFjQFCAPCQN4xgFXMFjiaFOTd7Aq+YIghBXCkRO2ik4bkHmy+tpx/Oe6X724M/jdGmodLX+U8OG/ha0e2/P7DLa0HFj7B39HOIVGq8tFDKJLoL3zYxew0Uj2kd0dflU01kZnqJEQKEAaEgQJgAMucbgsMo1kA8y2wKVA9pP4FXGbx5XO39O/uBfaxyXRyw4CboMGupwNaGGQTzYPdkHlFJ1HqBAsDecoA9gRVP5o6sG8FeTr9gixbV0W6Rc6Tcn5MIkLQHwwwfUP3NX3Xg+7BTgELgqmLeZEcMQKEAWEgHxmg+wZd+7AbjWqmiMnHiRdqzboq0i2ik0QnFSkDlj0LOx0FbJuAEoIGgsWY2WhkOaUpDAgDPmeALWQ0FaD/ddsZsFH4fKZFUp6uinSL6KQiVQlFsgYs08QGZ4nx6MLmqOL1zLrFY2YJEwaEAV8xwNYy1j6AqlaJIRihjVh3X02tOIvRVZFuEZ0kOqkYGcD+hU0ty/2LJtRTYZcszp1IZi0MFAwDWMtY8gCYIyzYCnSAYAHDy4CuinSL6KRiVAnDe136YXRsZKoY1kSFbnYEUICtUJ23w0XtMAoQBoSBfGTATSdhLmzTUPEwym4AonwCdFWkW0Qn5YNO+u3Sskn5UKc/XtD2svz03QobGe1eMnNN6ZgyPZjGACODx3h0FCAMCAN5wQBd2ljvtHLdmFJX0e6Cc8+Arop0SzHppNI11af72vv6O/r629/bk/g8Kjc9FV6aaD5/rPnqrbboz9rmhDp56mTM2Hb22PiEIJj60LNLS9VP9ZxEkkRAIkOG3tHhZUev1i6ZoXWfNPqhpOTBsc8snt/YMPf5ccl2rWNSL5N3KDJPGje9rmHR2sUTJiWNWPL4k7PXNiyqm1+aZB9d+vyqRY1rZj9TWpKyWnuA61zGjy0jlcTLmzxl1KiY/YFRZaV1H+/Yv4v9Q4GkFx9a3yUtweISBoSB/GLAopP0tU+D1TQRA/GUX9MvyGp1VaRb8kMnbej5+rs/HcnyQyo9eK3jYveUiaFAcPKIiZORbfyhvo5PTyakT+mcqO5pqbvYv3FH4kY4YlZUD+273HHxg/KEDNq/sa+/Xemq6/0dFz95qjLRBUN4AJuWnP6g6lm9b2Xlvs82byQyLhgaPWHFpob3/tjZe3RBIj74xO6ezrMfvHb46PauSx2Hw6UJl4fRY8FDlblk4fbdZ8/vPXG08URPZ29P3cKgIrBk4c69ved3vRO1nz26YJoqddyCw+c7u041Hj6+6+ylvbvnZiSV0pnLtPBrZy+1nTi66Z0PDjrljRqFMyQD/xY+9Z3REiwuYUAYyF8GIHrUFJj0YV48i4dd9gqffPS6KtIt+aGT9v7ll8jtc1nSWt3Vv+tog+ck4ZXJOinWcccFTSd9ufIFpTNqqrtvJZ1UJeRUStWyf2Mf8pDg6Uc2/8/pWaOJpWJ3z1tdR+t2H2+nOumZ7bt6Ty1ROmPc4ld6zm+o8zzTePIhy1yx8r1LO14bp9io2N3z9ntbxjuDPrnqvUvbY/bgrIN/fOvQqmAoUFL31ls9B2eNi9Y/bdP23g9WVg7uXKI71HiwFHzm0Pn9BxdH1dgDoddOdb63ZQI5atI/guhEJoVPh7fvLNM+YrZdpl25llAyCAPCgA8ZoIoH5VEjML4gAAAuCpBEQC4Z0FWRbvGVTqpq6b199160yJ9v974R/cdfP/x24NeBgXuRyL0BB/w68M2Hzi12y6U7A//6696Z0Xt8/bnv7v7yzYeNbuSOP3it7eqt9s/7Oz5Xz86uLXne6ejyKC2aM5iBTgoFEipq8iNvXGj5PPqM79ML1c/Fj68qt6786MuOvv6Oz79sOrz1IeemuGbJWacq52mgOpciz/UmNV/dvWtL0rxKxkUPY5yTGHKetP7o2107K1Tl455c/Z5zDJPuHXfIMlfMblzzxOOxWZQ0Hn+7a/tjTqnh15zDG2UPlr/xgZqCI6QOh2PFT1vT2HPptfVJDHiZl3Uu0b1pfJSlPc+MKnumvgtDPBB65agjQIlOCi5e9PbNdbWJf0Ql2v3p6o6bbV0fV4UU5/JfYUAYyDMGoFHS3l7iW5CegVlUE/KIAmDEZFyGdMyGAV0V6RYf6aSKU98O3LtzefdzgeBzLX+6Exn49oSSQcGQ6TxpXc/tgYG/v18RXNf7z8jA7XO18WvXjbLqrv6Ww2HqdXmUplZ7BjqJnCc1ftJ+/dqS5VMDwanjD13ruNI9xSnvhSXn+ltOtpSWhgLVLWsv9m87+EK8HuN5knOHblxrPE1x0Ukls9Zs6DnfEX1clYqQ+NBsdxu6zM5A45acgIaL66Rx5fMO/fHg2fNMJz30/PYdZ525ZKCTYnM3z+WBB2fHWdozd1TZ3LqYTho9/Y1TB8+ef8vRSfRYaNauz1pbEio8thWOqSx5mMopRqM0hQFhwNcMQNPQxe6yKxomQrvTDFT30BiVmXrdLN5rkMjsGdBVkW7xkU7q+Udk4G8n4tNuPdLbs3dV7Oo06aRQYNW57wYGfrzzS+Tn+MGSVRnoOik2VuIQiC4G7zopfg70eX/H/3bPcN5Pmpw8Vsva61+urg0Fnj/Z0ndt4bTYKCW1e+avt+ukNcuO3VxXS6sCNimAp9e+tf/sB+HacQsOQ4vE+UTHlGDoMoeiL1F17XxCPVOLnifV1zqSZfe+ZaXxI7HoeVJDVLIcX/IMREz6EwkFgoa57JrzShJLSidt2TR/1YnzB9/ZVK66JOmkSc1X2/bvVAVg48uonpTkS4AwIAzkiAGsZQbcljYVQzgNosC4RSA59boNIfbcM6CrIt3iH52074ufI3f/8qaRJrNOCoaqem5HIgPfnIo+obOKpEAwlKxdyFLMVid9Wbdhaemze9Ze6W/apf7kzdFYzsM18uO8Ev76hY6+C9XmOo3nSWnppN5Lb7237+lZzlO5QdZJg5S5dP3RjsTL2uq526VOR9iVO+8GUZ3Ue6n9nU2PO38BN9g6ic/lGaWTOnv/uPW1SufvBKM66Xd4j9u5TpROwn7HtkvjFStGYUAY8DkDWNGqTjQtgM5IhUEn0W0BLualdppK8DAyoKsi3eIfnRTquU110nO1TY1Lbc/dQoGZJ776NfLjv4b9PCn2/nXJrsvx52tzFp7t33YIZ0VxTfbCBy19l6vxl2gVS0tnTY1fH1nqpLVHO7v2TY+d00R10huVZkEWL8bVy85gBimzEkkLozIuPvSaxt6e8POxv32L6iTnvaXH3uh5+52G+FcbODqpcW2cpZTFswDTXJ4cH8vmqEmHpafXdF16vXFM7OsAol3mhbBXxnXSLtnjMv0U2IciTWHAFwzQNY5rG0YjQBgEkLIg2NJkXWgqwcPIgK6KdIuPdNLSC3ciA7d76p0lVNX59d3Ind74c7ell+5Efv36SFw2RTmNvp/kvJYUfT/JeVEJa6980n+cDjdvZ197M3TnSbG/dyvdWhc/UnI00/UL1dXR17cnblp+8li5I482rb7S33I4+jd3pUvnd9/a9c6m+PWxte5qf/OemngzNpfKfTebm1YyY7TJFMDjDa87mmO0Q8K0hq1n/xh+Hr3Katoq5xpfcgJjFKSROTC1sXpFeFSCeZqH4Ojf/ye+DiAeX/rcO5f27psflUTjFr5zfv+++Y7r+X37zx5fFFVU0Y7Hn4u/Ax4MDclcntz3x7feaRjn6Kfok8F3Gh5O6KQHRpVV7e/bunkV+FRg1NztnuYenyzrLk1hQBgYXgaYuNGLQYACegAsiGQWNEUkUSp8hXVVpFv+3/3793Wr3TJkk1x34tZPkXuRgYFI5N5PX51Ylxho5ptf/Dv6J2/3Inf/ciQQrGq58VPiRe9650Wl784i3nn9ue3k6WnJtyhdJ1V3JT0aiz0Uc059kuzq7W9zcDDpHOgR5yua1Lcr1cw4fK0t+ids7Z/faj60aYQq5rnDG6/0d1x3/viurevwIzhbCoYe2nHBib/e39F3ufrxmMgYFf647dABkxBhaiYUKK072NZ7qaPn/Fu957e/Tr9zqGr/zebmNQkyk2nR7GlkDtR2tx07NilFwlDli12X3u5N+om9mj1tVUPXpc6zfzx49tLBE1vi7y0Fn3j91MHe8wd7znf29jTUxb5QIDrK0Mxl3DOrTpzvPHu+/eylzq6Dz8S+xim+922qfffqC9pXWzkP4zzMXaOXyMdUvElfYUAYGDoGqPqJL/akFxPTGhoZVC+aHJa0Ekpwbhiwqx3ldXSS+p+XaBUztNXPrHt5fR05HErcV6rqt9aSb1a0lTG6ctRvEx1tkUN7r5r60LPzYgqJDDRi1tKHnK+71H5K55SyL/UevaXu5MUl07VIvW/UEhw7S/sybkc1bt642DCcSxJjpClz6OGNvW1vv/VwOnkMyUseL0/+Mm4VM7p0lvZl3La50PcDDKOQIo1zeWBU+fhxSV/GHdvplp/e/fZb+vckVbR8hpe77cOJVxgQBnzIAJMyTOhkUDBNSLEcJmVAZs66eFE+/tNJ5H6WM6b8PNCY2u7tB9rYM8Q0Cp5+pPlkd+U4r0orjczBpUuOfhZe5f2JXtY1uMwFG5xRKsFrnxrCAJz40eEX/uvisrmJL0+KJ1mz7NjV2hrdnvUc5foXBoSBnDCgVnp8RScetcOiQNKGYC2MRurJWVpp+oSB9HSS9wdwPple0ZRRPmljb12d/u+7eb4ljx6y2/nQZXbbj7QRsTexjUldHnYvu4QQDPuk5o/rls9HMwlolSR53eoXuzAgDPiDAX3H0HcAWIy/g+lLPt14PYNYcsyAJ50UiUTiT968vqiU42nIcMKAkQG6JQEjEhYK4GUAMcwuTWFAGChIBoxLnhlZ0wsPGXTxklZiho4B0UmeT1z88fvN0F0KhZcZ+xEAnSOMFNAAihFDjYKFAWGggBlQq16fIHYDtwC9C7Nk3JHlkWZuGBCdJDqpYBlIuZ3RALf1hhi3gEKyY7IAhTQ7mYswkBYDahXoXbA6PD5o0zOIJb8Y8KST0n3oFolE8osFqbZQGUi5o3nZ6bzEFACBlCuKC2BqMgVhIF0G1BLAn6GhqfJggbilTRng1lHsPmQgDZ3kJRQxPpyqlFTYDBg3JhgVKGwGspkdI4o1s8ksfYWBfGSA7hhYDnQiNIDaFUaXIvktS2egkCwQNhbgq++ZLNiHRIV0VeV4LnRL0jcv6s1xYfkynJEiozFfZiR1CgNZMkD1DdYCzWk0qgCLi2YQnC8MWOQRXD76d0vyhVapMzcMYD/SAQpgLtgFgAFKkd0IrwBhoIAZUCuCThBrJDMj7SU47xiAGLIA0UlyiDWcDNBf7OgCw87lBhBMA2AUAAbc+IEdkQKEgWJgwLjn6MuBWVizGIgqkjla5BFcopOGUyUUyYXoNk3L1gMX3dSMRreXMd0GLTa7kTRqpAwXGzkyX2FAMYAVQQmBUQHqElwwDEAMWYDoJNFJw8YAtiG15OgNm7mYGGLbFoKZvWBWcsqJMAYok0bq9HjWJeWIEiAMFBgDWBSYl26BS0DBMGCRR3CJTho2lVAw11lmE8EexIDKBiNrws7u6272zGrLr1507hRjFtRox+giQBjIOwbUte1WNtsx9DAsDeViTT1eLIXBAMSQBYhOEp00bAxgJ6IAmxQWIfOyJuJhR8diAJi1Dtj0WQC81A6jAGEgjxiwX8PwppwRIhVIGS8BBcCARR7BJTpp2FRCAVxhWU6B7UrGX/hojBqOWmgXirMsLF+6Uyrs5DAvm6CehwVIUxjwMwNuFzC1K2yfBeLtYeItJAYghixAdJLopOFhAFsSBWz5GV3UqDDrVTxNSgVmbTQqL1wIZvYi1JqMCmnmEQO4nilA/dQIDC8DKQNYvDQLhgGLPIJLdNLwqISCuciymQj2JgCWDXZ6/6ZGamd9i6FJqcB8YYQFwM0Fe5HzCaIE+J8BetEqzGpmAcxLm4ikRsFFwgDEkAWIThKdlDsG0t3OsH+hIyzqz7iKZCW7TRNsUH1DjdTO/vCN5kQXahQsDPicAVy3CrBqqZe5aNPYlwYUEqacsM2hkKaZ1lws8ggu0Um5UwlpfXgFFszWJ1ui1EsnTu0U05gixxYmdcaoxYiLnEyZfn4xwK5hvXi2OvSA4rEwrtAsHgbcZgoxZAGik0QnDS0DWJAMsKuWeqmL2oFpgGDKACjSgQrT7bDQPIKFAV8xgKuUSR83u6+KH/ZiKEs6HvbyhrcAizyCS3TS0KqE4b0Chn10fU0qi14YjVRebIi6S+8uFpAG3twetFE+gYVAYcCfDOASpQClUiO98hEgwLgPUN6KnCKIIQsQnSQ6aagYSHcp0njgIl/D+vQVM7rdaAGNrBe1GzuKURjwAwP0QmUY5VE7jAIoA6AopZEGFAm2yCO4RCcNlUookovMMk374tS9sFBgyV+QLvvc7V4jIRl0MeYRozAwFAyo69OYmV666qyIWmgXNzuNKWYMfigJRiMNKBIMMWQBopNEJw0VA1iHKQEWJIuEvRgAm7tqsonTGOZya2bQxS2V2IWBQWfAeJ0bHxUxI33KRi9yah/0avM0IeVHTYFa3D6CPJ1sumVb5BFcopOGSiWk+2nldTxddZgINdoxutCtkBoLHlv4YXNXkcxIm/Q+QdPSGMHCgB8YsFyfRhc10uuc7hvM7odp5qYGj+SwMNrMTZ1+GwViyAJEJ4lOyooBusyAsRJgsQPEFydg5LBN3/u+z/KwZnFyK7P2MwPsElVNVTBcrAk7Dc54yfiZHO+1MU7QpBlgtAPapUiwRR7BJTopK5VQJFeS2zQtSw5daAyMCsDF7MXWBA9UElEjtVvIYV1o09JLXMLAMDJAr1JgVg/saiHQJl0asLPuhd3ErI2AzZ3FKK/RyDoWcBNiyAJEJ4lOypABtrpYM+W6ovEpgws7wI0KN7uFDdoF2BIvLmFgGBnAJUoBq8foMhpZxyJp6lToFkoFvEYj1Z00oICxRR7BJTqJq4RwU4flmoAXgAZToxum8QzTLsylmikDjL3sRi85WUy4qeOBUWXqv3RdqRWo7Gs3d4SbEj84GAcwLld7qYXqBRWUzGyIQsJCZUzmVRgM4EIF0OdldMGogN6reCyggk7ZaGRbijGebUE0plAxxJAF+FUnlZSXjJ2gfzC/GTtlZAlXNjSM3puNmAWrJtUBFNu9emQgGKJGhanFPjoiAVCAcS4sTI3uFqkHoxiLCwUgWI2i1qGSRIhRQ8OFLlBUWL0AiCl4gCkDYMqw6JsUdelebHxIJUAYyCMG2OWtmqx+xMAOCwBcRQiMJBiN2C6Ul3KFeOMmQyMLD1vkEVw+1Ulj57Wu/l0l/0hKFtc0Nk8ZY9NJvEswEayrAWoBBkAqaqEYARkDZFOA/pfmRBg1Mk2mXG6RxmCWza2pcmIhqVQ4LsK6UgGQRFRCrd3snD/pP24jFp5dn7uyYKY0AEYFvLhYF2kKA/5kABczKw927CcIoC6KEVDkAJyAB1gA3FxGO4xFAiCGLMCfOqlyzrrW2Y8mJI76wEbOaq5fvjjjD0/XENQCDICBLCc0yoVIAGMXeN2APrSKNGYzDu2WQddJHnOqhHjKhl5sCliQVCchGElUGOtb8E2QowPMnbpgVCAzF0siTWFgeBmglzEwSoJFAdjZEQgNozHFjJmypBRRDIqoUccIKx5gkUdw+VInVTTWv/TiGHIUFP3Mps54qX1eBRdP+sdJb88KqxhdQ+gWXU/Q/MZ4FsBiWBPB1K4XTL2WklgYjaQ53aZvLAZG9FKpsKLoKCpGueiICGZrmCVP2USelJG+DcAUFND3fVROI2FUwM3lZmfdpSkMDC8D9EIFZiXBrm8a1KUw6ytNMKBzBYuKQdMIkKd4AMSQBfhRJ01Y0r5olvZyUumLy9aFy7h4Msgmph7QBMAVoFt0EYBguwthLCdrIoxm02OYhUoQhmlCY06kAmBdaC/dpSw4JVJbGK0Biw2RSgrQGMvQ+ohIyIAemRcWzIJWCyO9JVAjtTNpRfMoF7NIUxjwFQPswlZNY4U0UgVgIcBl7ChGygBIY1sH7CCTApqhqLBFHsHlP5005vlFppeQyn63x/DGkkk2sbsymgC4CGABsIsGdu+nvWhOPQwWhFEALwUsgDaB9QJgsQB0B0CwsmA5qabyqhWFCtEXK01RF27qoG8j0beU0CUloDkpTtnRbwEonlFK9y9as1u8m532FSwM+JCBtC5dGgzsw0kNb0npMoN4tgvBPrzTGfbRIYYswHc6qWTOjvol8zXu5s/buGNGqeH0SItM+oszqnuYGoCL2ilmmZWLBlCMYGZkTYRRoMcwC9SJDmgezAiSRcWrGI85qcqheahdpVL/xWJT7zCpMLjYoKxatyZyIoCtcNj9D/S5qJqNdhgVwOyoHUYBwoD/GcCli1JhAYCL/v4Ab/6ufTov75hOXJ879XrMmUEXj5kLI8wij+Dym06KvoQ0RdNDFY31a1aWmE6P9I/KTUzo92wqI1QePQb54VIATQToGeyRkDV6wW7J0YUNimZmHdGLriiFkZm6KG+wq6MjPKFjk0IeO0A2AMTrFrj8DIxlw2jfB2kYsJ8nK7UJA4wBXLd2gF56GFwFD/S5KwubOA1jLmMz3XhjkgI2QgxZgM900sTwasNLSBOmrOwwvLHkIptw12cfrW5nFtVkRpWEGVmTDgQXgJu4QQAA8jCLasKoA7eOsLvVoAKQ0Pj7nOqrnycpO12E+LM4jEszw+gGkEoFqCbFuqpwS+VzO2ZqnBH1MuzzeUl5RcuA24XK7JYmqEMMLMUAMGsjoAwggBopZrsK4pmddilmbJFHcPlLJ5XV7Fs2dyr/zMasWLSxcYL16yV5F5OEstyz6QGJLiloR0QCsKFVMO2iApiFNim2BLMw1dSN7CCHNlmpaLIkVC3Raar1RsdVmK7DtZuTvs1cz4xBGUAS2GEBgMsnIOPC0NFt56IBwD6ZtZQhDFAGcH0yoGKY0dKkOYsQU2aM1HnkhOZh2GOGYguDGLIAX+mkOZXh5unaS0gls5tWLtTfWNKezZm0kfrIoRX0K4DqAOrVb/DGSGaEhsCIDNAhgNlYxpwqWM+m90VaBmikett67WbnnWv1o2fW15iKwa2d1YkKldBkCenorDAMxOxUrumu4bWgZgXSLQbd7R09htmTiFcYGDoGcInqgA5KvV7sNKZIMCii84URuy716pjG61iPF0sgGLLII7h8pZPSkD7yAWfMgL5+YGE5YWeAhXlsIomXeAQr4KVLzmJYbR63MJRHu8MIUUgtgoUBPzNAr2S1CnSLvX7E28OKwWukAkYFvPDAunjv6CV5QcZADFmA6KTiEmfGVUSNbCVQFzCL8d5EBou2YDFoeh9l6CJRDANpjUj7qo66Ja2EEiwMDAsDuG7p6DDqa5y6GKYZihNTQigD1K5TSiMpRi9qFGxkwCKP4BKdVFA6SS0P49WgjFg/iGQW41L0EmMZlLpoKloSxYhhRponxxglGUFaxSADzpBgUSCtbBIsDOSSAbo/4LpFAbAAWFx6DIILEmC+AHSaMFKGVYDFhT2EphKcFgMQQxYgOqlwdJJ9OWFFqTB2JWXTl6VK2cRYrCRamI717SPlQIMVgIIBVGbW9DgcehmBxyQSJgzkmAFcrhiXWdBkQMUzo2oiVcED4/TpnsYCKCEeXbSLYO8MWOQRXKKTClMn0RWIKwbrDRYAuIwdVZiKQZcsARuRJYeXaaksB82sO4qxFOkxM0tFmx4zSJgwMCwM2K9V5mVNFAw7LMUAMGsjAAPUC6MCbi5qt2zdLJs0KQMQQxYgOqlwdFJKSYFFRa8SYHhzsN7oWAqjDAA9hkWyJjoOBTCOhQq9j4guFHjvLpHCwHAxYLli4UJtsCgAu0fAumeWxONYQx3G5qKG827U41nBSMXs0vTIgEUewSU6qWB1ki53sKJ0V0qN5fGaU2EYSO/FXKyJMgBUgFta40T0QdOy0BHtHfXi7fFsUkNRfMoCJEAYyIwBXO3sujXaqVHhtAbVu2eQJK0Rhy6YzoWOYrQbjaoXXDSJ4OwZgBiyANFJ+aeT7AsGXradsZu0fnlZOurBuoV2p5hGwq4bYaExFKsAZlFN9M0esPz2hGkFI1VmvdBdgDCQAwa87x64nmkXaqR2j5Wju4pnTY9JfBKG4hkPRjs1usX7ZF4FU4ZFHsElOslXOqn84amL7defWkhnbnQqoILP3OikvRBz5kan5Ufvgo7UZcdqaNSDta1SoUmSVJZVJs2RRdImxSoDLAyQ/Fl9oDRtypwIThlJA0ycZFUzTS5YGMiSAVzV+oUKFx0CRh3QsHQxsqGjXg9cfgaYCKvfi512QbyfJ5uPtUEMWUBx6KSKpaXPzhsR+8LuqQ89u7S0YrIPP9Extd3bDx0Yl/TF4gtaL726gljUaqG6MatMIwAAGUxJREFUBEoFM6IxygghhcWmMsBrkVPoi/wUwEtLUgEPjCqbueuN3+98ksYHgourDlz9j9ULsAWgJIRRi47ZwZgKQN8sAYbzkhbBWQ4q3YUB/zCAqxoAtekW42JUYeiVFsAQAOiuW+DyM3ArG3bshJgFdekYYQIGhQGLPIKrEHVS+Nj6o/tLibYoP/xlR1/f8oXR39pf6W7r6285HB4UigczyZwjzSdPzxrNjhaW7L+xpZbM5YFRZVSRMIx6aBjTQGrhsY5YjcgAACWkLCwba6o86Ft5YO/xA7OZMTBu59qTvYufLMOgPCAYohYahsz6Bk1dmWE6EC3ALRuNd4sRuzCQdwzQC5suBNjZjGAHYAEem+iupAOabLF7zObzMDo7vVR4GdAjxZIlAxBDFlCIOmnHhY6LH5QTbRHVSf3bDr0QCIaeeu9W+/Vb/tNJ5bP2fLb51aXaR75k//mXnyJzgb5RAoWtImga6CQVhrS0O+ur/1qDXhRgCGVEQn1rCwRDlQf27m9w9BDNEAiGyl69uHvPdrb9PTBqzbyd3bW1DgmojWI9D0vrvanys3gMSgGLoU2PYbSLYGEgLxig17bC9pVI4zObIDLQ7jCiBur1A86sMDovt1nQmMxGccssdsqARR7B5SOdNP7gtW0nuzde6e/o6++4eKH6ufijseo9az+NGj//sulgA2b40ObubSr48771b6xx7M8fa756q+26E9x29Vbb1VvNBx17+eEvW85eazt3rLR0z/rr1zZ2xXVS6Zrq033tfU58y+lDj8T/CV5D5mAoUNqwsDsW3PbRBzMq4wc/tYc3orzDWx+KaZqaGe9Egz//sulw98arn8S0TuXWlR996UzQsSM4FBi9c11X76KKeM6EMHr0kWkTRiaaIZzfqJWDJpNNgaATiZWGMLBHvUp/IIYCxANQnQQ1Bi/bTIPjK8AqjQlUvLW5q7sqfngWq3N8W0NXX9uBtpFRXYWtAbNIykA4SdeOhFR4USPF9uSItIeJVxjwIQO4ehXQK2QBtKkHZ2NJWUA2yYeoL2WD7iRehqN9vcRLzNAxADFkAT7SSc6pz/UL1dWTA6VLq7tuxc6ESrfWXelvObrJebuo+tDG67c27pjjUDbtUFPfl6vrpgaCoRF13S14rBYMBUznSS2HD9ddvbZ83yftZw8v7FLP3SY7Z0tnj42fGApMDC8/17/rnU2WzFPe+bK9+1BpaShQunR+96329/ZEP7mWtddvNe2KngNVH2q6fmtto6N1SnZd7rh+eeHyqYHSOVOP9nX0Xah27usvLDnX33KyxUlSvWf9lf6mXdG5OArv9O53363wfO+nKodJE6xAKnewjKkxsyuPZlA6SeWBfkIBGNQ00Ja6//mstiamC1UXZyKPVI4cxZ/HwWvKoytLTxYUiZzMgqZ1FolzL3sYRhEgDPiBAXp5U6zXRr0U65FeLN4z0EiFveTPTYxeW7rLHxlowX6bJq2tgLFFHsHlM53UtT/2eUw73NzXt/L5UKDxk/ar3VPjAuKRQ30dZw+XxHXS2s0vRN/OnlxSvfShifEbpFknhaced564Ne+ZU610Uun+jX1frnwh3qvxk3b1tC6qwPTMjk46e6xcvQA+cV5pdVziOLVF3w1/9oUlH8XefKru6t91NH709cIHLUonKRA/tSo9eK2j+1BsvrXdbceOTYpP035RUpFElxbWngI0TIkbmhayhhqNGGmVFx0VYE0EK2BMGDWuWXbs5rraGPk0GBmo/nPPE//4vFGHPHQUZWQWNBVARwZoGHNJUxjwJwP0otWxXrMek64soDlpNmqnGDHKyJo0MscYlejAeyW0L5ugcnlPJZHZMwAxZAF+1UnBuIhhooc0H1p/cuOnt5xHbJ9eXr6BvNlDYhSJznO3w+GA8wb35fnTQjGd5KiW6OO8xH/VqU/InLl0TfXJa7s+7++4/uW2k4ecUyjn3jy5/ODltuu3dp27vP70hW1XlE4Kr7zYv3FH/BYOnbTjgvPEjf7gPSrPOgnHOeosB00ALEKqk5QRmkY9lcMVhr5uADn1AySoJcSotKyJseLAVSdReZQqSZzhNEUSHSJej5OK7f4YndlpF5rKHsZ6SVMYGAoGcNG6JUeAAuwChpF1Z72yvNSRTY1Cm8AAtEJWVY6bKEkHaVWid2eWtLJJcJYMWOQRXH7VSaXOYzXnsOf1Cx3kPKlkz7WOc8ecv2XDiU7pnEc2d7c4z+Did003nRR8YWpzQ0kwrpOiR1axP4KjN1pz5sSR1YhZDQs/utXx0SHnWOvZY9v6ri2Mv6sUU2DBydXdpvOkV7rbrn/yVPw8KenT9ayTaC+1upQecrNDTrGtjWom9KVGiulWpewqrcoJQQZA45E8Gdh0EiLVBNHMAFgyYG9yS4sASxIPM41flvQaEywMDAEDXq5YxLDLHnbL1U5jWPd0m3QUmhbbFIwqM2umO1yW8RidgozXPk2i4yxLle7pMgAxZAE+00kXPyh3ZMTk8sN9HVe6pzhvTzsvAG18I3pcNHHT6ov92w46f7bmPI+7fnl+dfRd74kta6/GXgxyXM65UUK7xN7jJl8EEFczc+Z/1N/eFX3lyHnJ6eRa9ZK4OfNS59Wid6KvSQUnl7bH5drzJx2JVuuUMWL5sebrseduzvtJVz55ytFPk0v3XYu/n7RpNd61Ck4ufaO7bnNN7EOdfaS5q7vS89bJxAr0Cr1EoFrUUlRnRQhgMkjZqZFi5UUedRyl8uO/9M1xGo+ND0NHwc51XReXzY5pCJU5EKyctKKtcm5lcmTmOoPuQXpOeHUXLIhxmUXmtWEIAcLAIDJgv2Kz8aoiB3chsHpYcuWlcgQWMMa6wD7ogJUKNvSSUg5NU1GcsqMEDAUDFnkEl990Ul/L9egfrH3etzIqPhxeao81X+1vv3qr/fP+XSf3JP6g7PC1tr6YvSVhDwWCNdWnnedx7Z/3d3QfGqH+3s2gk0KByq0rz97q+PxW29X+jqvXlkffCg8Ea2YYMz93aP3Ffif4en/HlctLYuWp17SjY138ZP3Z/rbjW6OfZayGtuv9bf/b1xZ7jzsUoEkuflKldJ4jj9a/cDzxXrPlaqByx/iYDH2NXmpEpAJMGKEJoDYsKr8URnfqYrsbHcvZ2mrebT3+7mNxXRjfa5xDpubm6J8uxl20Y7rYvgfBa0mLmHiFIoyEAV8zYL9iqVe/7O1ePT4bCx1LYT2bHgMLgt36ImCwgHEgvR4vw6EXgJdeEjNEDEAMWYDPdJLzHvfkkmp8d3ZiSxoxa2mJ4YnV1IcSX7SdCHYIrfD8pdsT55XOcv5uLvnHJbMxbekcLcPkQKlTg/N2uXO+daGK5jclKdvYq75SKLkMVhVvYqUpQDUNxXpO6qXai0ZCVMFIlRDNoAKolxVGf+17YNTk2Xs/27wx8UqZCg4EG2vfvbmuthzDZQlYDXo2BOguWBBDpwCvAGHAbwxYrliLy/KLjccJ0uQU693hVS7VRBj1UkyDsRhZXyTJBuiDumXzHkkzoBdmQb2Cc8yARR7B5UOdxKVAjlkblOFKNn/SduXCwlfC4185vP5Kf/t7LanTjg4v+6+LL8xNWyXkZtVhFDURSxMu7AKwxPo+c6z5v45Nin95EjbowJxj24+/W0HsqUmj6jMZY1AAPZvFRYMRhhlRr2BhIMcMpLwg3QKoXb+YqTeDGdHuFNNUsFuMLEY1EQ+vqh9NBGQJkFDnR8+cVjC6oxcsAoaRAYghC/CRTip9/YP17dFvMEq+4Q0jg1kMPbk0fLju9OXmjy7U7dsUf1aYSgJO2l53yOu3A9DasPC8rG3aERrF3hH50ZdZjE09ODpKeNmh07PLk76kW3V34kenLRMxCgMoiQK3GGZnTUsGFilNYWCoGaBXo8L6iDSGeTNzsSRuTSRXAazp1gu7EAJoR4pZWrjs2xfSegE0Z8q0NNhLconxIQMWeQSXj3SSDxnMl5KyWa7om+5kVUf0onkoVgGwUED7Ag8WoANRTPPDTo1GrCKNLjEKA7lkABctA6wG6qUualdYeamdxqeLkYem1ZOkDNNrYwmRAUAfJQMLstECLHkQb4kRl58ZgBiyANFJqc548uRwy+OqptcrVjjrCzsNxu98+B1LD6N5jBhdANgQg9ikQwCjeAwEFywChAGfM4CLVgeonLlgpwuZxaBJgz1i9AVAR92iu/QYagFWAN3ZXKjdC9Z3A5ZQH05Pi9p0l1jyggGLPIJLdFKB6KS0rki2tul2AJfHTYSGoa++3dDyEEbHpQEpsZcMiDEWg7JpWMpxJUAY8AMDuGjdgCqSelnZ1EUxC/PYRAY2Ll16llToDkDzUIxla8nm0cXGYqPAm3JE75EeC5OwHDMAMWQBopOKTidhYeNyhAUALjeASAAVSZsUu+VJ146cDOh5EMAKg13tgGjqGcQiDPiWAVy33gGbi96RBXhp0iQ0ntpTSg3VUe8CC/QWHSJLTJMjFTUC2+v3GIYhBPiNAYs8gkt0UhHpJCxp/Uq1uPRgWNBLAWxnQydB2Ii0iaoUgAt2WADcItFFgDDgWwZwGbPlRu0UD8VEVH49M8bVXW4WdAGg+4ldrLjltNjpKCoMFiOfbqlYL7cwsfuWAYghCxCdVOA6CctYXab6dsMCsDd5uazRFwDdqcVLKi8xyIlZUAuMmKnysibtwlxeapAYYcAnDOhXsr76aAxbIN5nQZOk7EWDFU7ZRQXQYGCazWMe72FIji4Yl5bEjAgGQJ6MGUYqAblnwCKP4Bp6nVRWOSJPXoXO/SeUgxGxho1jGb0wplz2KlJlRi+6WRsH9W6k+d3SYly3YBaAJsrQLXAJEAb8zAAuXbZUqZ3hzKbjJQmNcVutltFVdwSoGSEn7BkARg4y6Mn1GhDjloTO1BKDQQX4jQGIIQsYcp00ru7j7e/2LppT4Mc2fvvsUQ/WOSwKpGtn3WkSuJBTAdgzA8iG7rCw/chop0Y3rDIrL0YRIAzkCwPswqZlMxeaNCZdzJKgaQRUQHgZSCXRI9li1wPsFtSmh1lcCEaMvQy34pFHgG8ZsMgjuIZcJwWCobJXL7Z1tI2SU6VhYoCtYax8duG62VkYbbLMypVBHpqTYpYKTbZnUTtczKiadO9GJB1RsDCQXwzQ61yvnHqxBPQw7xYkccsMu8rJmpaBkNkSk64Lo7stdgRYMiPGLYnaVSwZxOVnBiCGLCAXOilQ2912zPA105PCp8Pbd5YNk3rw8yc3uLVhA6ILHkY1FlxsaNiNewRLwvpm38TorEi9GETCRS0wsjzZVygZhIHhZcBynaMwFYNmloCOaEyF4WikvgZZX/Ri9myalgJUWgRYRkEMm4Kli7jyiAGLPIJrGHVSZXXHzbauj6tC8khuaBnABgSAYxUA7AXs+nazqzCakHUclKY+Oiz6nqW73MrT+w5KtZJEGBgWBvQrf+jKoGNZ1pcexoL1Nahbsp8FK0NPiADdRS0IG4oi6UCCc88AxJAF5EQnzT22vevjKv3fNx1dOeq3QysRck+6D0dkO5SqkK18NFG/boELwJgZXu/AMhZzoalvWBaX90okUhjIRwZycPFjCPCjLKypFiYLRhPLlvUdokdXdFx9RPpbImZhBCyPMUaMecqARR7BlROdFJxfte9q66F359cszVMq87psusgxERiZRTV1L8IoUGHUkgHGWMZs8KrMaHoJzqAY6SIM5CMDdF2kWz/6WjoaY5iRNilWaWGhQoqOCAlFjVliOigwy+lmzyyM9ZKm/xmAGLKA3Oik8kkbe7cf7123fr3/WSu8CrER0J1IGelkaRiNpDEMewxjvdBkI+olGX/hY72QjQZnWRjNKVgYyAsG6LpIq2B0TKsXXW7oSJcwS4smA+g7FICNpZpsIMQwO2sa+7IYaeYjAxZ5BFdOdNLsI81dvfPHySO24WEAGwFVD/qyp2E00nLpewzTM7Cx9GLQBZGw0A2aFYBgZqd9BQsDBcmAZRG5zZeuF9qd2llfuJSd9qIL04hpF+QZ0qWKUWg9bEQawyYrzWJgAGLIAnKik1z+3m3U3O3VK8LyfQE5uBaxF2CPUBY1NPXqGOXBBUtmAHkosKRCGGJgUcBoh1GAMCAMMAawgpTd3nTry3rpqRCAbQepLC7EWADtrrAxGGG6TqK9aJgxjxgLmAGLPIJrOHXSpOarxu8LKOCPZLimpvYpuh1g52JG3Y4AgOxngVQYzpITwTQGRiOgkYKFAWGAMoAlYzQqL3W5YeQBUJE0A3O5pUrLjpwM6EkQQAuDEZsPLHoGsRQ8AxBDFpALnTRqbW/boQP6uVFFy2dt+3cW/MfghwmqHYFtB6xJf+VCzYgBgCsbgGz6VqVcNDmCqZFWiwC9L+siTWGgCBmg64JiSgUWETWmxOgFQBcmcMo83gMwkBGwPCoGRrcusCNSQPEwYJFHcA25Tnr4+WONJy8um1uu8b5m2bGrtTW6fXhe4tHKK5wy6GaBHYEaMXd4YRkigIGYgKN2SCjsttSiCmPxesAQ1S9phYE8YgDLxFiz0auMxnhm1JcwXbCDviT1amFhNcOuCkaTAuZiU5NmMTAAMWQBmeikEQ8+6p2+UTPCZWUuYmi0i12+oXtQGTBuH8ZPkEUaY7wb6X6kb5fM69ZUw8HrfXSJFAaEAcWAWj5GNowrC0Z92epJEINeVCfp8elaaPEYAoOqbEY7NbphFIMAWAQUAwMjHnzUIo/gykQnTXxsZjEwWKhztOwIypX9xDGEDpBcd6m9j9lVPIzoLkAYEAY8MmBcPkZjBhLHIlmYy2O1NIwViSbLTO1wMaOxibHQCxYBxcDAxMdmQgxZQCY6afnK+mJgsIDniC2DzVHZmTHdJpIbAc1GA9zs2L8QTCMFCwPCQEoG2NpBE4tLZYCdJWRhHr32XiyJW1MvCRaWn9qVi1lUUw1EXW5Di70YGFi+st4ij+DKRCcd+e8/FAODBTxHbBN0jnQfofZ0MZJjI6MWGOlvrtSohqNdmCXdeiReGChyBrCa2KJTdkUOjWF0WVwqIYsfxCaGxhahWzCc7tItKhh29BVQnAwc+e8/QAxZQCY66fvv/1mcnBbSrPWdQlmynCPSYl9TCY12GPVB4UIeWPRgsQgDwoCdAbV8qKzBgmKA5YGX2dHECoVlcAErAE19XN2lLMZ69O7GMDEWNgPff/9PizyCKxOdFIlENjRuLWz6Cn522FPUTC0bSlpUIC3bhtzsbsn1eFjcuohdGBAG3BhQy4d6saCwVGFRYaxJ+1KM7tSYAXYbTrfDog9tcWVQknQpbAY2NG6FErKDDHXS99//M62/eitsuvN0dthT6G+ZWc4FOdkW5mZ3Gy7deLc8YhcGhAH6uA1sYIkZLboXYQywlc68XpoYSwHWBV7YYdHjqQvxAoQBnYERDz7q8TApEolkqJMikUh3zyf62GLJLwb0jcZj/W77Ubp2NRztxbDHeiRMGBAGLAzQZYUwXeIYwxCvAxWv2z1a6HDAel/dBQubgptdzymWImegu+cT+xkS9WaukyKRiLzQne+XGttlvEyH7kQUo68xpzFSdaEuHSOtAGFAGMiYAbqykIQtVRqjMCKHAujDsXowKCJ1i16nHoxeAoQBxYDH17chlbLSSepUSR7AFdXFh21IBxYeEGyMgZcCY6QYhQFhIAMG6MqCHKGABaRsZlAD7aLnp16GEUztMCqgXNRIgwULA4qBEQ8+mtZJkpJK2eqkSCTy/ff/lNe6i+QqZNsQbdLdirFBw5gLTRqD7RteAcKAMJANA1ieAHgrEUtP5WcB8FKQTSV0FDqWPSdGp2EwGgGNFCwMBIKhDY1bvb+ThMOkrN5PolmUWjry339YvrJ+4mMz5YSpUC9K7Ed0gjC66RtjgDLSPIKFAWFgiBjAcsNiNL7cDSMtA10AqDdjrGeDRQGaGS5qRLXwArAwaRYnAyMefHTiYzOXr6w/8t9/yEwhDdp5EhNM0ixgBu7H/8fmGDffZ3bVNHqV0RgvRmFAGBhcBu7fT6xN+9KzewexKrYtoEkBHc5SGLrQeMHCwGAxMAjP3QarFMnjfwbc9iPY6XaM6cCrLGgqgDABwoAwkBsGjOtUDW1xZVAbXex6d+p1w+gl2wWoEJBjBkQn5Zjw/BgOexYr180eiUTg0vdZ6qKYJZemMCAM5IYBtQyNY+nr1xiW0khXOsW0I7XTcakd8cqIpgBhIGcMiE7KGdX5MRDdoYBp6UajCnBzwU4BzSlYGBAGcsyAWoz6oFSv6F6PFrrSGWYZ4HWz03rcamZ9pSkMDC4DopMGl8/8zoY9SweYGFywALi5YFcA8QKEAWFguBgwLkYqSrIpDEseSWBhQ8COSADdpSwIECAM5IYB0Um54TkPRtF3Jfo0jU7AGKkCjC6jkSYULAwIA7lnQC1MOi4TMdTlHbutd6PdMqIerxfsvSqJFAYyZkB0UsbUFVpHfVdKqZP0Pc6SpND4kvkIA/nPAF3CFGczM+Mm4LaZWAbS8wxWhZZBxSUM6AyITtI5KVKL2pX0yRvt+hamOrrZ9bRiEQaEgWFnwLi6s6zKbRNws7sNl268Wx6xCwNZMiA6KUsCC6e7266k7GyeCGa/4cHO4qUpDAgD/mSALWHvRVoWuzGnJR6nTRjdHowwAcJADhj4/7lFkuGUWRsWAAAAAElFTkSuQmCC;" parent="1" vertex="1">
          <mxGeometry x="90" y="-240" width="384.24" height="246" as="geometry" />
        </mxCell>
        <mxCell id="jlxDaTGka9EmKuP6cyfk-13" value="怎么动态改变offscreencanvas的宽高" style="text;html=1;align=center;verticalAlign=middle;resizable=0;points=[];autosize=1;strokeColor=none;fillColor=none;" parent="1" vertex="1">
          <mxGeometry x="480" y="-72" width="220" height="30" as="geometry" />
        </mxCell>
        <mxCell id="AANEkFu6PaSc3_7YnXE6-1" value="&lt;ol&gt;&lt;li&gt;初始化3个canvas, （操作栈）&lt;/li&gt;&lt;li&gt;默认自由画笔&lt;/li&gt;&lt;li&gt;增加一个设置画布尺寸&lt;/li&gt;&lt;li&gt;自由画笔实现一下（私有方法）&lt;/li&gt;&lt;li&gt;橡皮擦实现一下（私有）&lt;/li&gt;&lt;/ol&gt;" style="text;html=1;align=left;verticalAlign=middle;whiteSpace=wrap;rounded=0;" vertex="1" parent="1">
          <mxGeometry x="430" y="370" width="330" height="290" as="geometry" />
        </mxCell>
      </root>
    </mxGraphModel>
  </diagram>
</mxfile>
